<svg width="72" height="67" viewBox="0 0 72 67" fill="none" xmlns="http://www.w3.org/2000/svg">
<g clip-path="url(#clip0)" filter="url(#filter0_d)">
<path d="M17.8965 46.3483C16.9037 45.4242 15.5836 44.9153 14.1797 44.9153C13.3504 44.9153 12.5509 45.0943 11.8302 45.4301C4.74837 36.0917 4.72381 23.2948 11.8902 13.9337C12.2877 13.4144 12.1576 12.6934 11.5996 12.3233C11.0416 11.9532 10.2669 12.0742 9.86931 12.5936C5.9163 17.7573 3.88837 23.855 4.00474 30.2273C4.11553 36.2917 6.16132 42.0443 9.93047 46.9278C8.43279 48.84 8.61007 51.5422 10.463 53.267C11.4877 54.2206 12.8337 54.6975 14.1797 54.6975C15.5258 54.6975 16.8718 54.2206 17.8965 53.267C19.9459 51.3594 19.9459 48.2559 17.8965 46.3483ZM16.1419 51.6339C15.0597 52.6409 13.2994 52.6409 12.2174 51.6339C11.1354 50.6268 11.1354 48.9882 12.2174 47.9812C12.7416 47.4933 13.4385 47.2246 14.1796 47.2246C14.9208 47.2246 15.6178 47.4933 16.1418 47.9812C17.224 48.9883 17.224 50.6269 16.1419 51.6339Z" fill="white"/>
<path d="M54.6128 52.0928C54.212 51.5759 53.4366 51.4595 52.8809 51.8331C49.3342 54.2183 45.3472 55.7985 41.0306 56.5298C40.0304 56.6993 39.0103 56.4498 38.2321 55.8454C37.4594 55.2454 37.0164 54.3639 37.0164 53.4271V44.9635H37.1247C38.5612 44.9635 39.73 43.8758 39.73 42.5386V40.5892C43.9324 39.0962 46.9257 35.3058 46.9257 30.8764V25.4095C48.9251 24.9012 50.3994 23.1968 50.3994 21.177C50.3994 18.9534 48.6125 17.112 46.3053 16.8283V9.63009C46.3053 7.72 44.6357 6.16602 42.5835 6.16602C40.5312 6.16602 38.8616 7.72 38.8616 9.63009V16.7892H32.6584V9.63009C32.6584 7.72 30.9888 6.16602 28.9366 6.16602C26.8843 6.16602 25.2147 7.72 25.2147 9.63009V16.8283C22.9075 17.112 21.1206 18.9533 21.1206 21.177C21.1206 23.1968 22.595 24.9012 24.5944 25.4095V30.8764C24.5944 35.3058 27.5876 39.0962 31.79 40.5892V42.5387C31.79 43.8759 32.9588 44.9636 34.3953 44.9636H34.5351V53.4272C34.5351 55.051 35.3032 56.5786 36.6423 57.6187C37.7111 58.4486 39.0431 58.8915 40.4112 58.8915C40.7647 58.8915 41.1205 58.8619 41.4748 58.8019C46.1585 58.0084 50.4849 56.2935 54.3338 53.7049C54.8892 53.3314 55.0141 52.6096 54.6128 52.0928ZM41.343 9.63009C41.343 8.99339 41.8995 8.4754 42.5836 8.4754C43.2677 8.4754 43.8242 8.99339 43.8242 9.63009V16.7892H41.343V9.63009ZM27.6961 9.63009C27.6961 8.99339 28.2526 8.4754 28.9367 8.4754C29.6208 8.4754 30.1773 8.99339 30.1773 9.63009V16.7892H27.6961V9.63009ZM23.602 21.177C23.602 20.031 24.6038 19.0985 25.8351 19.0985H45.6852C46.9165 19.0985 47.9183 20.031 47.9183 21.177C47.9183 22.323 46.9165 23.2554 45.6852 23.2554H25.8351C24.6038 23.2554 23.602 22.323 23.602 21.177ZM27.0757 30.8764V25.5648H44.4445V30.8764C44.4445 35.3333 40.5487 38.9592 35.7601 38.9592C30.9716 38.9592 27.0757 35.3333 27.0757 30.8764ZM35.8072 42.6542C35.7967 42.654 35.7864 42.6527 35.776 42.6527C35.7656 42.6527 35.7553 42.654 35.7449 42.6542H34.3957C34.327 42.6542 34.2714 42.6024 34.2714 42.5387V41.176C34.7586 41.2367 35.2554 41.2686 35.7601 41.2686C36.2648 41.2686 36.7617 41.2367 37.2489 41.176V42.5387C37.2489 42.6024 37.1933 42.6542 37.1248 42.6542H35.8072Z" fill="white"/>
<path d="M58.1838 48.9634C57.6921 48.5361 56.926 48.5526 56.4558 48.995C56.4463 49.004 56.4367 49.0132 56.4277 49.0221C55.9601 49.4884 55.9873 50.219 56.4881 50.6542C56.7273 50.8619 57.0311 50.9647 57.3343 50.9647C57.6548 50.9647 57.9745 50.8498 58.216 50.6225C58.2256 50.6135 58.2351 50.6043 58.2442 50.5954C58.7118 50.1291 58.6846 49.3986 58.1838 48.9634Z" fill="white"/>
<path d="M67.4372 27.5635C66.8845 20.4947 63.6109 13.8381 58.2197 8.82021C52.9208 3.88795 45.8422 0.868897 38.2882 0.31938C30.8262 -0.22367 23.3997 1.66101 17.3742 5.62576C16.8147 5.99387 16.6818 6.71451 17.0773 7.23516C17.4727 7.75581 18.2471 7.87971 18.8065 7.51148C30.3286 -0.0698653 46.5183 1.19464 56.4652 10.4532C66.7447 20.021 67.9877 34.879 59.4205 45.7821C59.0161 46.2968 59.1366 47.0192 59.6896 47.3957C59.9105 47.5461 60.1669 47.6185 60.4211 47.6185C60.8034 47.6185 61.1805 47.4546 61.4235 47.1453C65.8486 41.5134 67.9845 34.5592 67.4372 27.5635Z" fill="white"/>
<path d="M14.9075 8.95447C14.4208 8.50564 13.6352 8.50864 13.1529 8.96174L13.1326 8.98091C12.6503 9.43378 12.6539 10.1649 13.1405 10.6139C13.3824 10.837 13.6981 10.9484 14.0139 10.9484C14.3331 10.9484 14.6524 10.8343 14.8951 10.6066L14.9153 10.5874C15.3977 10.1346 15.3941 9.40341 14.9075 8.95447Z" fill="white"/>
<path d="M38.558 30.4498C38.3357 30.0949 37.9275 29.8766 37.4861 29.8766H36.5996L38.2325 27.9569C38.6578 27.4569 38.567 26.7306 38.0298 26.3349C37.4926 25.9389 36.7122 26.0236 36.2869 26.5234L33.0623 30.3146C32.767 30.6618 32.7111 31.1356 32.9183 31.5342C33.1255 31.9328 33.5593 32.186 34.0351 32.186H35.3576L33.8383 34.6827C33.5006 35.2376 33.7103 35.9422 34.3063 36.2564C34.4996 36.3582 34.7094 36.4066 34.9167 36.4066C35.3493 36.4065 35.7692 36.1958 35.9975 35.8207L38.5657 31.6004C38.7833 31.2429 38.7803 30.8048 38.558 30.4498Z" fill="white"/>
</g>
<defs>
<filter id="filter0_d" x="0" y="0" width="71.52" height="67.12" filterUnits="userSpaceOnUse" color-interpolation-filters="sRGB">
<feFlood flood-opacity="0" result="BackgroundImageFix"/>
<feColorMatrix in="SourceAlpha" type="matrix" values="0 0 0 0 0 0 0 0 0 0 0 0 0 0 0 0 0 0 127 0"/>
<feOffset dy="4"/>
<feGaussianBlur stdDeviation="2"/>
<feColorMatrix type="matrix" values="0 0 0 0 0 0 0 0 0 0 0 0 0 0 0 0 0 0 0.25 0"/>
<feBlend mode="normal" in2="BackgroundImageFix" result="effect1_dropShadow"/>
<feBlend mode="normal" in="SourceGraphic" in2="effect1_dropShadow" result="shape"/>
</filter>
<clipPath id="clip0">
<rect width="63.52" height="59.12" fill="white" transform="translate(4)"/>
</clipPath>
</defs>
</svg>
