<svg width="60" height="60" viewBox="0 0 60 60" fill="none" xmlns="http://www.w3.org/2000/svg">
<path d="M58.8281 52.0312H56.4844V6.5625C56.4844 5.91527 55.9596 5.39062 55.3125 5.39062H46.6796V1.17188C46.6796 0.524648 46.1549 0 45.5078 0H14.4922C13.8451 0 13.3204 0.524648 13.3204 1.17188V5.39062H4.6875C4.04039 5.39062 3.51562 5.91527 3.51562 6.5625V52.0312H1.17188C0.524648 52.0312 0 52.5559 0 53.2031V58.8281C0 59.4754 0.524648 60 1.17188 60H24.727C25.3741 60 25.8989 59.4754 25.8989 58.8281C25.8989 58.1809 25.3741 57.6562 24.727 57.6562H2.34375V54.375H57.6562V57.6562H35.2732C34.6261 57.6562 34.1013 58.1809 34.1013 58.8281C34.1013 59.4754 34.6261 60 35.2732 60H58.8281C59.4752 60 60 59.4754 60 58.8281V53.2031C60 52.5559 59.4752 52.0312 58.8281 52.0312ZM15.6641 2.34375H44.3359V5.39062H15.6641V2.34375ZM28.8281 52.0312H22.7344V45C22.7344 41.3927 25.3773 38.3924 28.8281 37.8302V52.0312ZM31.1719 52.0312V37.8302C34.6227 38.3924 37.2656 41.3927 37.2656 45V52.0312H31.1719ZM39.6094 52.0312V45C39.6094 39.7014 35.2986 35.3906 30 35.3906C24.7014 35.3906 20.3906 39.7014 20.3906 45V52.0312H5.85938V7.73438H54.1406V52.0312H39.6094Z" fill="white"/>
<path d="M15.9375 12.8906H10.3125C9.66539 12.8906 9.14062 13.4153 9.14062 14.0625V19.6875C9.14062 20.3347 9.66539 20.8594 10.3125 20.8594H15.9375C16.5847 20.8594 17.1094 20.3347 17.1094 19.6875V14.0625C17.1094 13.4153 16.5847 12.8906 15.9375 12.8906ZM14.7656 18.5156H11.4844V15.2344H14.7656V18.5156Z" fill="white"/>
<path d="M27.1875 12.8906H21.5625C20.9153 12.8906 20.3906 13.4153 20.3906 14.0625V19.6875C20.3906 20.3347 20.9153 20.8594 21.5625 20.8594H27.1875C27.8347 20.8594 28.3594 20.3347 28.3594 19.6875V14.0625C28.3594 13.4153 27.8347 12.8906 27.1875 12.8906ZM26.0156 18.5156H22.7344V15.2344H26.0156V18.5156Z" fill="white"/>
<path d="M38.4375 12.8906H32.8125C32.1654 12.8906 31.6406 13.4153 31.6406 14.0625V19.6875C31.6406 20.3347 32.1654 20.8594 32.8125 20.8594H38.4375C39.0846 20.8594 39.6094 20.3347 39.6094 19.6875V14.0625C39.6094 13.4153 39.0846 12.8906 38.4375 12.8906ZM37.2656 18.5156H33.9844V15.2344H37.2656V18.5156Z" fill="white"/>
<path d="M49.6875 12.8906H44.0625C43.4154 12.8906 42.8906 13.4153 42.8906 14.0625V19.6875C42.8906 20.3347 43.4154 20.8594 44.0625 20.8594H49.6875C50.3346 20.8594 50.8594 20.3347 50.8594 19.6875V14.0625C50.8594 13.4153 50.3346 12.8906 49.6875 12.8906ZM48.5156 18.5156H45.2344V15.2344H48.5156V18.5156Z" fill="white"/>
<path d="M15.9375 24.1406H10.3125C9.66539 24.1406 9.14062 24.6653 9.14062 25.3125V30.9375C9.14062 31.5847 9.66539 32.1094 10.3125 32.1094H15.9375C16.5847 32.1094 17.1094 31.5847 17.1094 30.9375V25.3125C17.1094 24.6653 16.5847 24.1406 15.9375 24.1406ZM14.7656 29.7656H11.4844V26.4844H14.7656V29.7656Z" fill="white"/>
<path d="M27.1875 24.1406H21.5625C20.9153 24.1406 20.3906 24.6653 20.3906 25.3125V30.9375C20.3906 31.5847 20.9153 32.1094 21.5625 32.1094H27.1875C27.8347 32.1094 28.3594 31.5847 28.3594 30.9375V25.3125C28.3594 24.6653 27.8347 24.1406 27.1875 24.1406ZM26.0156 29.7656H22.7344V26.4844H26.0156V29.7656Z" fill="white"/>
<path d="M38.4375 24.1406H32.8125C32.1654 24.1406 31.6406 24.6653 31.6406 25.3125V30.9375C31.6406 31.5847 32.1654 32.1094 32.8125 32.1094H38.4375C39.0846 32.1094 39.6094 31.5847 39.6094 30.9375V25.3125C39.6094 24.6653 39.0846 24.1406 38.4375 24.1406ZM37.2656 29.7656H33.9844V26.4844H37.2656V29.7656Z" fill="white"/>
<path d="M49.6875 24.1406H44.0625C43.4154 24.1406 42.8906 24.6653 42.8906 25.3125V30.9375C42.8906 31.5847 43.4154 32.1094 44.0625 32.1094H49.6875C50.3346 32.1094 50.8594 31.5847 50.8594 30.9375V25.3125C50.8594 24.6653 50.3346 24.1406 49.6875 24.1406ZM48.5156 29.7656H45.2344V26.4844H48.5156V29.7656Z" fill="white"/>
<path d="M15.9375 35.3906H10.3125C9.66539 35.3906 9.14062 35.9153 9.14062 36.5625V42.1875C9.14062 42.8347 9.66539 43.3594 10.3125 43.3594H15.9375C16.5847 43.3594 17.1094 42.8347 17.1094 42.1875V36.5625C17.1094 35.9153 16.5847 35.3906 15.9375 35.3906ZM14.7656 41.0156H11.4844V37.7344H14.7656V41.0156Z" fill="white"/>
<path d="M49.6875 35.3906H44.0625C43.4154 35.3906 42.8906 35.9153 42.8906 36.5625V42.1875C42.8906 42.8347 43.4154 43.3594 44.0625 43.3594H49.6875C50.3346 43.3594 50.8594 42.8347 50.8594 42.1875V36.5625C50.8594 35.9153 50.3346 35.3906 49.6875 35.3906ZM48.5156 41.0156H45.2344V37.7344H48.5156V41.0156Z" fill="white"/>
<path d="M30 57.6562C29.6918 57.6562 29.3895 57.7816 29.1715 57.9996C28.9535 58.2176 28.8281 58.5199 28.8281 58.8281C28.8281 59.1363 28.9534 59.4387 29.1715 59.6566C29.3895 59.8746 29.6918 60 30 60C30.3082 60 30.6105 59.8746 30.8284 59.6566C31.0464 59.4387 31.1719 59.1363 31.1719 58.8281C31.1719 58.5199 31.0465 58.2176 30.8284 57.9996C30.6105 57.7816 30.3082 57.6562 30 57.6562Z" fill="white"/>
</svg>
