<svg width="256" height="242" viewBox="0 0 256 242" fill="none" xmlns="http://www.w3.org/2000/svg">
<path d="M38.3464 81.3312C48.687 68.9839 57.1052 60.2763 65.0516 51.1921C78.1966 36.1649 82.8759 33.6209 103.133 27.2779C117.363 22.822 168.388 23.3247 185.033 43.4413C203.799 66.1223 193.84 79.604 208.454 95.9515C217.067 105.585 233.596 114.923 224.194 143.071C217.234 163.909 227 187.24 196.483 204.289C169.282 219.487 141.797 201.153 130.767 201.286C71.6095 202 50.9305 174.946 46.6546 169.46C39.7387 160.59 5.38261 120.691 38.3464 81.3312Z" fill="url(#paint0_linear)"/>
<path d="M193.706 114.923L194.512 121.685L200.585 124.46L194.561 127.319L193.873 134.09L189.343 129.096L182.846 130.504L186.072 124.559L182.743 118.658L189.264 119.978L193.706 114.923Z" fill="#F6CA33"/>
<path d="M152.574 93.0543H152.318C152.25 93.0558 152.182 93.0433 152.118 93.0175C152.055 92.9917 151.997 92.9531 151.948 92.904C151.899 92.8549 151.86 92.7962 151.834 92.7315C151.807 92.6667 151.793 92.5971 151.793 92.5269C151.793 92.4566 151.807 92.3871 151.834 92.3223C151.86 92.2576 151.899 92.1989 151.948 92.1498C151.997 92.1006 152.055 92.0621 152.118 92.0363C152.182 92.0105 152.25 91.998 152.318 91.9995H152.574C152.643 91.998 152.711 92.0105 152.774 92.0363C152.838 92.0621 152.896 92.1006 152.945 92.1498C152.994 92.1989 153.032 92.2576 153.059 92.3223C153.085 92.3871 153.099 92.4566 153.099 92.5269C153.099 92.5971 153.085 92.6667 153.059 92.7315C153.032 92.7962 152.994 92.8549 152.945 92.904C152.896 92.9531 152.838 92.9917 152.774 93.0175C152.711 93.0433 152.643 93.0558 152.574 93.0543ZM149.725 93.0543H149.468C149.4 93.0558 149.332 93.0433 149.269 93.0175C149.205 92.9917 149.147 92.9531 149.098 92.904C149.049 92.8549 149.01 92.7962 148.984 92.7315C148.957 92.6667 148.944 92.5971 148.944 92.5269C148.944 92.4566 148.957 92.3871 148.984 92.3223C149.01 92.2576 149.049 92.1989 149.098 92.1498C149.147 92.1006 149.205 92.0621 149.269 92.0363C149.332 92.0105 149.4 91.998 149.468 91.9995H149.725C149.794 91.998 149.862 92.0105 149.925 92.0363C149.989 92.0621 150.047 92.1006 150.096 92.1498C150.144 92.1989 150.183 92.2576 150.21 92.3223C150.236 92.3871 150.25 92.4566 150.25 92.5269C150.25 92.5971 150.236 92.6667 150.21 92.7315C150.183 92.7962 150.144 92.8549 150.096 92.904C150.047 92.9531 149.989 92.9917 149.925 93.0175C149.862 93.0433 149.794 93.0558 149.725 93.0543H149.725ZM146.875 93.0543H146.619C146.485 93.0512 146.357 92.9943 146.263 92.8957C146.169 92.7972 146.117 92.6648 146.117 92.5269C146.117 92.389 146.169 92.2566 146.263 92.1581C146.357 92.0595 146.485 92.0026 146.619 91.9995H146.875C147.009 92.0026 147.137 92.0595 147.231 92.1581C147.325 92.2566 147.377 92.389 147.377 92.5269C147.377 92.6648 147.325 92.7972 147.231 92.8957C147.137 92.9943 147.009 93.0512 146.875 93.0543ZM144.026 93.0543H143.769C143.635 93.0512 143.507 92.9943 143.413 92.8957C143.32 92.7972 143.267 92.6648 143.267 92.5269C143.267 92.389 143.32 92.2566 143.413 92.1581C143.507 92.0595 143.635 92.0026 143.769 91.9995H144.025C144.16 92.0026 144.287 92.0595 144.381 92.1581C144.475 92.2566 144.527 92.389 144.527 92.5269C144.527 92.6648 144.475 92.7972 144.381 92.8957C144.287 92.9943 144.16 93.0512 144.025 93.0543H144.026ZM141.176 93.0543H140.919C140.785 93.0512 140.658 92.9943 140.564 92.8957C140.47 92.7972 140.417 92.6648 140.417 92.5269C140.417 92.389 140.47 92.2566 140.564 92.1581C140.658 92.0595 140.785 92.0026 140.919 91.9995H141.176C141.244 91.998 141.312 92.0105 141.376 92.0363C141.439 92.0621 141.497 92.1006 141.546 92.1498C141.595 92.1989 141.634 92.2576 141.66 92.3223C141.687 92.3871 141.701 92.4566 141.701 92.5269C141.701 92.5971 141.687 92.6667 141.66 92.7315C141.634 92.7962 141.595 92.8549 141.546 92.904C141.497 92.9531 141.439 92.9917 141.376 93.0175C141.312 93.0433 141.244 93.0558 141.176 93.0543ZM138.326 93.0543H138.07C137.936 93.0512 137.808 92.9943 137.714 92.8957C137.621 92.7972 137.568 92.6648 137.568 92.5269C137.568 92.389 137.621 92.2566 137.714 92.1581C137.808 92.0595 137.936 92.0026 138.07 91.9995H138.325C138.394 91.998 138.462 92.0105 138.525 92.0363C138.589 92.0621 138.647 92.1006 138.696 92.1498C138.745 92.1989 138.783 92.2576 138.81 92.3223C138.836 92.3871 138.85 92.4566 138.85 92.5269C138.85 92.5971 138.836 92.6667 138.81 92.7315C138.783 92.7962 138.745 92.8549 138.696 92.904C138.647 92.9531 138.589 92.9917 138.525 93.0175C138.462 93.0433 138.394 93.0558 138.325 93.0543H138.326ZM135.477 93.0543H135.22C135.086 93.0512 134.958 92.9943 134.865 92.8957C134.771 92.7972 134.718 92.6648 134.718 92.5269C134.718 92.389 134.771 92.2566 134.865 92.1581C134.958 92.0595 135.086 92.0026 135.22 91.9995H135.477C135.611 92.0026 135.739 92.0595 135.832 92.1581C135.926 92.2566 135.979 92.389 135.979 92.5269C135.979 92.6648 135.926 92.7972 135.832 92.8957C135.739 92.9943 135.611 93.0512 135.477 93.0543ZM132.627 93.0543H132.37C132.236 93.0512 132.109 92.9943 132.015 92.8957C131.921 92.7972 131.869 92.6648 131.869 92.5269C131.869 92.389 131.921 92.2566 132.015 92.1581C132.109 92.0595 132.236 92.0026 132.37 91.9995H132.627C132.695 91.998 132.763 92.0105 132.827 92.0363C132.891 92.0621 132.948 92.1006 132.997 92.1498C133.046 92.1989 133.085 92.2576 133.112 92.3223C133.138 92.3871 133.152 92.4566 133.152 92.5269C133.152 92.5971 133.138 92.6667 133.112 92.7315C133.085 92.7962 133.046 92.8549 132.997 92.904C132.948 92.9531 132.891 92.9917 132.827 93.0175C132.763 93.0433 132.695 93.0558 132.627 93.0543ZM129.777 93.0543H129.521C129.453 93.0558 129.385 93.0433 129.321 93.0175C129.258 92.9917 129.2 92.9531 129.151 92.904C129.102 92.8549 129.063 92.7962 129.037 92.7315C129.01 92.6667 128.996 92.5971 128.996 92.5269C128.996 92.4566 129.01 92.3871 129.037 92.3223C129.063 92.2576 129.102 92.1989 129.151 92.1498C129.2 92.1006 129.258 92.0621 129.321 92.0363C129.385 92.0105 129.453 91.998 129.521 91.9995H129.777C129.846 91.998 129.914 92.0105 129.977 92.0363C130.041 92.0621 130.099 92.1006 130.148 92.1498C130.197 92.1989 130.235 92.2576 130.262 92.3223C130.288 92.3871 130.302 92.4566 130.302 92.5269C130.302 92.5971 130.288 92.6667 130.262 92.7315C130.235 92.7962 130.197 92.8549 130.148 92.904C130.099 92.9531 130.041 92.9917 129.977 93.0175C129.914 93.0433 129.846 93.0558 129.777 93.0543ZM126.928 93.0543H126.672C126.604 93.0558 126.536 93.0433 126.472 93.0175C126.409 92.9917 126.351 92.9531 126.302 92.904C126.253 92.8549 126.214 92.7962 126.188 92.7315C126.161 92.6667 126.148 92.5971 126.148 92.5269C126.148 92.4566 126.161 92.3871 126.188 92.3223C126.214 92.2576 126.253 92.1989 126.302 92.1498C126.351 92.1006 126.409 92.0621 126.472 92.0363C126.536 92.0105 126.604 91.998 126.672 91.9995H126.929C126.997 91.998 127.065 92.0105 127.129 92.0363C127.192 92.0621 127.25 92.1006 127.299 92.1498C127.348 92.1989 127.387 92.2576 127.413 92.3223C127.44 92.3871 127.453 92.4566 127.453 92.5269C127.453 92.5971 127.44 92.6667 127.413 92.7315C127.387 92.7962 127.348 92.8549 127.299 92.904C127.25 92.9531 127.192 92.9917 127.129 93.0175C127.065 93.0433 126.997 93.0558 126.929 93.0543H126.928Z" fill="white"/>
<path d="M151.423 85.2826H151.167C151.033 85.2795 150.905 85.2226 150.811 85.124C150.717 85.0255 150.665 84.8931 150.665 84.7552C150.665 84.6173 150.717 84.485 150.811 84.3864C150.905 84.2878 151.033 84.2309 151.167 84.2279H151.423C151.557 84.2309 151.684 84.2878 151.778 84.3864C151.872 84.485 151.924 84.6173 151.924 84.7552C151.924 84.8931 151.872 85.0255 151.778 85.124C151.684 85.2226 151.557 85.2795 151.423 85.2826ZM148.573 85.2826H148.316C148.182 85.2795 148.055 85.2226 147.961 85.124C147.867 85.0255 147.814 84.8931 147.814 84.7552C147.814 84.6173 147.867 84.485 147.961 84.3864C148.055 84.2878 148.182 84.2309 148.316 84.2279H148.573C148.707 84.2309 148.835 84.2878 148.928 84.3864C149.022 84.485 149.075 84.6173 149.075 84.7552C149.075 84.8931 149.022 85.0255 148.928 85.124C148.835 85.2226 148.707 85.2795 148.573 85.2826ZM145.723 85.2826H145.467C145.399 85.2841 145.331 85.2717 145.267 85.2459C145.203 85.2201 145.145 85.1815 145.097 85.1323C145.048 85.0832 145.009 85.0245 144.982 84.9598C144.956 84.895 144.942 84.8255 144.942 84.7552C144.942 84.685 144.956 84.6154 144.982 84.5507C145.009 84.4859 145.048 84.4272 145.097 84.3781C145.145 84.329 145.203 84.2904 145.267 84.2646C145.331 84.2388 145.399 84.2263 145.467 84.2279H145.723C145.792 84.2263 145.86 84.2388 145.923 84.2646C145.987 84.2904 146.045 84.329 146.094 84.3781C146.142 84.4272 146.181 84.4859 146.208 84.5507C146.234 84.6154 146.248 84.685 146.248 84.7552C146.248 84.8255 146.234 84.895 146.208 84.9598C146.181 85.0245 146.142 85.0832 146.094 85.1323C146.045 85.1815 145.987 85.2201 145.923 85.2459C145.86 85.2717 145.792 85.2841 145.723 85.2826ZM142.874 85.2826H142.617C142.549 85.2841 142.481 85.2717 142.417 85.2459C142.354 85.2201 142.296 85.1815 142.247 85.1323C142.198 85.0832 142.159 85.0245 142.133 84.9598C142.106 84.895 142.093 84.8255 142.093 84.7552C142.093 84.685 142.106 84.6154 142.133 84.5507C142.159 84.4859 142.198 84.4272 142.247 84.3781C142.296 84.329 142.354 84.2904 142.417 84.2646C142.481 84.2388 142.549 84.2263 142.617 84.2279H142.874C143.008 84.2309 143.136 84.2878 143.229 84.3864C143.323 84.485 143.376 84.6173 143.376 84.7552C143.376 84.8931 143.323 85.0255 143.229 85.124C143.136 85.2226 143.008 85.2795 142.874 85.2826Z" fill="white"/>
<path d="M151.423 175.898H151.167C151.099 175.898 151.033 175.884 150.971 175.858C150.908 175.831 150.852 175.793 150.804 175.744C150.756 175.695 150.719 175.636 150.693 175.573C150.667 175.509 150.654 175.44 150.654 175.371C150.654 175.302 150.667 175.233 150.693 175.169C150.719 175.105 150.756 175.047 150.804 174.998C150.852 174.949 150.908 174.91 150.971 174.884C151.033 174.857 151.099 174.844 151.167 174.844H151.423C151.49 174.844 151.557 174.857 151.619 174.884C151.681 174.91 151.738 174.949 151.785 174.998C151.833 175.047 151.871 175.105 151.897 175.169C151.922 175.233 151.936 175.302 151.936 175.371C151.936 175.44 151.922 175.509 151.897 175.573C151.871 175.636 151.833 175.695 151.785 175.744C151.738 175.793 151.681 175.831 151.619 175.858C151.557 175.884 151.49 175.898 151.423 175.898ZM148.573 175.898H148.316C148.18 175.898 148.05 175.842 147.954 175.744C147.857 175.645 147.803 175.511 147.803 175.371C147.803 175.231 147.857 175.097 147.954 174.998C148.05 174.899 148.18 174.844 148.316 174.844H148.573C148.64 174.844 148.707 174.857 148.769 174.884C148.832 174.91 148.888 174.949 148.936 174.998C148.983 175.047 149.021 175.105 149.047 175.169C149.073 175.233 149.086 175.302 149.086 175.371C149.086 175.44 149.073 175.509 149.047 175.573C149.021 175.636 148.983 175.695 148.936 175.744C148.888 175.793 148.832 175.831 148.769 175.858C148.707 175.884 148.64 175.898 148.573 175.898ZM145.723 175.898H145.467C145.4 175.898 145.333 175.884 145.271 175.858C145.208 175.831 145.152 175.793 145.104 175.744C145.057 175.695 145.019 175.636 144.993 175.573C144.967 175.509 144.954 175.44 144.954 175.371C144.954 175.302 144.967 175.233 144.993 175.169C145.019 175.105 145.057 175.047 145.104 174.998C145.152 174.949 145.208 174.91 145.271 174.884C145.333 174.857 145.4 174.844 145.467 174.844H145.723C145.791 174.844 145.857 174.857 145.92 174.884C145.982 174.91 146.038 174.949 146.086 174.998C146.134 175.047 146.171 175.105 146.197 175.169C146.223 175.233 146.236 175.302 146.236 175.371C146.236 175.44 146.223 175.509 146.197 175.573C146.171 175.636 146.134 175.695 146.086 175.744C146.038 175.793 145.982 175.831 145.92 175.858C145.857 175.884 145.791 175.898 145.723 175.898ZM142.874 175.898H142.617C142.55 175.898 142.483 175.884 142.421 175.858C142.359 175.831 142.302 175.793 142.254 175.744C142.207 175.695 142.169 175.636 142.143 175.573C142.118 175.509 142.104 175.44 142.104 175.371C142.104 175.302 142.118 175.233 142.143 175.169C142.169 175.105 142.207 175.047 142.254 174.998C142.302 174.949 142.359 174.91 142.421 174.884C142.483 174.857 142.55 174.844 142.617 174.844H142.874C142.941 174.844 143.008 174.857 143.07 174.884C143.132 174.91 143.189 174.949 143.237 174.998C143.284 175.047 143.322 175.105 143.348 175.169C143.374 175.233 143.387 175.302 143.387 175.371C143.387 175.44 143.374 175.509 143.348 175.573C143.322 175.636 143.284 175.695 143.237 175.744C143.189 175.793 143.132 175.831 143.07 175.858C143.008 175.884 142.941 175.898 142.874 175.898Z" fill="white"/>
<path d="M130.821 208.816C158.683 208.816 181.269 205.862 181.269 202.219C181.269 198.576 158.683 195.622 130.821 195.622C102.959 195.622 80.3718 198.576 80.3718 202.219C80.3718 205.862 102.959 208.816 130.821 208.816Z" fill="#E9EDF7"/>
<path d="M103.67 149.845C102.152 149.845 100.108 149.305 97.4466 147.595C97.3775 147.551 97.3295 147.482 97.3131 147.403C97.2967 147.324 97.3132 147.243 97.359 147.176C97.4049 147.109 97.4763 147.062 97.5576 147.047C97.6388 147.031 97.7233 147.047 97.7923 147.091C101.738 149.626 104.174 149.464 105.521 148.882C106.081 148.641 106.571 148.268 106.945 147.797C107.318 147.327 107.564 146.773 107.66 146.187C107.671 146.116 107.707 146.052 107.761 146.005C107.816 145.957 107.886 145.93 107.959 145.928C109.283 145.888 110.495 145.192 111.286 144.018C112.415 142.341 112.473 139.965 111.444 137.499C111.415 137.425 111.417 137.343 111.45 137.27C111.483 137.198 111.544 137.141 111.62 137.111C111.695 137.082 111.78 137.082 111.856 137.112C111.931 137.142 111.991 137.2 112.024 137.272C113.13 139.924 113.052 142.504 111.809 144.349C110.969 145.596 109.647 146.393 108.233 146.518C108.088 147.156 107.79 147.753 107.363 148.259C106.936 148.766 106.393 149.168 105.776 149.434C105.112 149.714 104.394 149.854 103.67 149.845Z" fill="#807DFB"/>
<path d="M103.977 148.097C101.593 148.097 99.1568 146.741 97.2671 144.354C97.2421 144.323 97.2238 144.287 97.2132 144.249C97.2026 144.21 97.2 144.17 97.2053 144.131C97.2107 144.091 97.2241 144.053 97.2446 144.019C97.2652 143.985 97.2925 143.954 97.3251 143.93C97.3577 143.906 97.3949 143.888 97.4345 143.878C97.4742 143.868 97.5155 143.865 97.5562 143.87C97.5969 143.876 97.6362 143.889 97.6717 143.909C97.7072 143.928 97.7384 143.955 97.7633 143.986C99.5752 146.275 101.889 147.548 104.134 147.49C105.564 147.449 106.756 146.85 107.491 145.802C107.529 145.748 107.584 145.707 107.647 145.686C108.701 145.333 109.655 144.313 110.137 143.024C110.888 141.011 110.466 138.565 108.948 136.137C108.925 136.103 108.909 136.065 108.902 136.025C108.894 135.985 108.895 135.944 108.905 135.904C108.914 135.865 108.932 135.827 108.956 135.794C108.981 135.761 109.012 135.734 109.048 135.713C109.084 135.692 109.124 135.678 109.165 135.672C109.207 135.666 109.249 135.669 109.289 135.679C109.33 135.69 109.368 135.708 109.401 135.733C109.434 135.758 109.462 135.789 109.482 135.824C111.1 138.412 111.542 141.043 110.725 143.23C110.195 144.648 109.138 145.785 107.95 146.224C107.106 147.371 105.728 148.051 104.153 148.095C104.094 148.096 104.036 148.097 103.977 148.097Z" fill="#807DFB"/>
<path d="M105.383 146.653C104.907 146.648 104.437 146.56 103.994 146.392C101.103 145.341 98.6252 141.374 98.3976 140.048C98.3898 140.009 98.3903 139.968 98.3989 139.928C98.4076 139.889 98.4244 139.852 98.4482 139.819C98.472 139.785 98.5024 139.757 98.5377 139.736C98.5729 139.714 98.6122 139.7 98.6533 139.693C98.6944 139.686 98.7365 139.688 98.777 139.697C98.8176 139.707 98.8558 139.724 98.8894 139.748C98.923 139.771 98.9513 139.801 98.9727 139.836C98.9941 139.871 99.0082 139.909 99.014 139.949C99.1962 141.009 101.549 144.857 104.213 145.826C105.317 146.227 106.328 146.072 107.219 145.364C107.251 145.338 107.287 145.32 107.327 145.308C107.862 145.151 108.305 144.612 108.574 143.789C109.252 141.715 108.773 138.028 106.552 135.28C106.501 135.217 106.477 135.137 106.487 135.057C106.497 134.978 106.54 134.905 106.605 134.856C106.67 134.806 106.753 134.784 106.835 134.794C106.918 134.803 106.993 134.844 107.044 134.907C109.397 137.818 109.896 141.749 109.17 143.971C108.841 144.977 108.288 145.631 107.569 145.868C106.893 146.391 106.161 146.653 105.383 146.653Z" fill="#807DFB"/>
<path d="M107.417 145.9C107.385 145.9 107.353 145.895 107.322 145.886C104.958 145.156 101.677 142.117 101.038 140.697C101.022 140.661 101.013 140.622 101.012 140.582C101.011 140.542 101.019 140.503 101.034 140.466C101.049 140.429 101.071 140.395 101.1 140.367C101.128 140.338 101.162 140.315 101.2 140.299C101.237 140.283 101.278 140.275 101.319 140.274C101.36 140.273 101.401 140.28 101.439 140.295C101.477 140.309 101.512 140.331 101.542 140.359C101.571 140.386 101.595 140.419 101.611 140.455C102.151 141.653 105.052 144.352 107.175 145.19C107.591 142.697 107.283 138.882 106.832 137.924C106.814 137.888 106.804 137.848 106.802 137.808C106.8 137.768 106.806 137.728 106.82 137.69C106.834 137.652 106.856 137.618 106.884 137.588C106.912 137.559 106.946 137.535 106.984 137.518C107.022 137.502 107.063 137.493 107.104 137.491C107.145 137.49 107.187 137.497 107.226 137.511C107.264 137.526 107.3 137.547 107.33 137.575C107.36 137.603 107.384 137.636 107.4 137.673C107.916 138.767 108.264 143.04 107.724 145.657C107.71 145.725 107.671 145.787 107.616 145.831C107.56 145.876 107.49 145.9 107.417 145.9L107.417 145.9Z" fill="#807DFB"/>
<path d="M107.417 145.9C107.339 145.9 107.265 145.872 107.208 145.822C107.15 145.772 107.114 145.703 107.106 145.629C106.851 143.255 106.561 140.564 104.546 137.02C104.526 136.985 104.514 136.947 104.509 136.908C104.504 136.868 104.508 136.828 104.519 136.79C104.542 136.713 104.596 136.648 104.669 136.609C104.741 136.57 104.827 136.561 104.907 136.584C104.986 136.606 105.053 136.658 105.093 136.728C107.17 140.379 107.466 143.135 107.728 145.566C107.736 145.646 107.712 145.726 107.659 145.788C107.607 145.851 107.532 145.89 107.449 145.898C107.438 145.9 107.427 145.9 107.417 145.9Z" fill="#807DFB"/>
<path d="M107.35 145.292C107.28 145.292 107.211 145.269 107.156 145.226C105.216 143.735 102.186 138.576 102.01 136.464C102.006 136.423 102.01 136.383 102.022 136.344C102.034 136.306 102.054 136.27 102.081 136.239C102.107 136.208 102.14 136.182 102.177 136.164C102.214 136.145 102.254 136.134 102.296 136.131C102.338 136.127 102.379 136.132 102.419 136.145C102.458 136.158 102.495 136.178 102.526 136.204C102.558 136.231 102.583 136.263 102.602 136.299C102.62 136.335 102.631 136.375 102.633 136.415C102.792 138.329 105.775 143.394 107.544 144.753C107.595 144.792 107.632 144.845 107.65 144.905C107.668 144.966 107.666 145.03 107.645 145.089C107.623 145.148 107.584 145.2 107.531 145.236C107.478 145.272 107.415 145.292 107.35 145.292L107.35 145.292Z" fill="#807DFB"/>
<path d="M120.358 162.02C120.278 162.02 120.201 161.99 120.143 161.936C116.198 158.288 108.492 148.159 107.683 146.351C107.666 146.314 107.656 146.275 107.655 146.235C107.654 146.195 107.661 146.155 107.676 146.117C107.691 146.08 107.714 146.046 107.743 146.017C107.771 145.988 107.806 145.965 107.844 145.949C107.882 145.933 107.922 145.925 107.964 145.924C108.005 145.924 108.046 145.931 108.085 145.946C108.123 145.961 108.158 145.983 108.187 146.011C108.217 146.04 108.24 146.073 108.256 146.11C109.052 147.889 116.668 157.887 120.574 161.499C120.619 161.541 120.651 161.595 120.664 161.654C120.677 161.713 120.672 161.774 120.648 161.83C120.625 161.886 120.585 161.934 120.533 161.968C120.482 162.002 120.421 162.02 120.358 162.02Z" fill="#807DFB"/>
<path d="M143.51 186.911C144.101 188.792 161.939 195.459 163.479 192.24C164.679 189.733 161.958 188.446 160.934 188.053C159.318 187.434 155.332 186.193 155.994 185.108C157.192 183.144 166.858 187.531 169.282 188.458C171.705 189.386 176.671 190.551 179.009 188.918C181.346 187.285 182.1 186.363 177.767 184.967C173.434 183.571 164.545 181.852 167.424 180.216C170.302 178.58 176.881 181.468 181.279 181.782C185.676 182.097 194.159 181.251 192.485 178.49C190.988 176.021 177.996 176.892 178.834 174.843C179.504 173.203 183.11 174.268 188.914 174.174C194.718 174.079 200.196 173.933 200.456 170.588C200.664 167.903 196.961 168.723 193.831 168.736C190.701 168.748 186.34 168.606 187.392 167.218C188.444 165.831 203.756 167.201 205.092 162.937C205.975 160.115 202.612 160.829 198.969 160.645C195.326 160.461 194.059 160.134 194.338 159.451C194.617 158.768 199.573 158.243 202.303 158.025C205.033 157.806 208.871 156.59 208.748 154.12C208.626 151.651 204.289 152.439 202.757 153.09C201.225 153.741 199.478 153.73 199.282 153.287C199.086 152.843 203.985 150.348 202.26 148.108C200.536 145.867 196.093 148.695 195.032 151.291C193.972 153.886 192.446 157.357 191.467 156.982C190.489 156.608 191.717 153.602 192.685 151.235C193.652 148.867 193.478 147.712 192.825 147.462C190.651 146.63 187.559 149.009 186.852 150.739C186.145 152.469 183.486 162.668 182.041 162.115C180.597 161.562 182.011 157.838 182.793 155.926C183.574 154.013 185.398 149.55 182.975 148.623C180.552 147.695 176.791 153.206 175.535 156.938C174.28 160.67 172.718 166.866 171.6 166.438C170.481 166.009 170.87 160.839 171.819 158.517C172.768 156.195 175.673 152.515 172.691 151.373C169.708 150.231 167.654 153.545 165.791 158.105C165.012 160.01 163.134 164.745 163.744 167.936C164.437 171.569 164.167 173.49 163.302 173.688C161.579 174.081 161.409 170.804 161.837 168.439C162.264 166.075 164.049 158.807 160.173 158.797C156.297 158.788 156.403 164.99 156.19 167.489C155.977 169.988 156.019 178.851 154.016 178.874C152.013 178.897 153.278 174.22 153.51 172.729C153.742 171.238 153.204 168.005 151.868 168.572C150.531 169.14 142.457 183.556 143.51 186.911Z" fill="#DDE2F8"/>
<path d="M114.665 185.242C117.417 181.324 116.896 173.449 113.271 170.387C109.647 167.325 105.83 169.757 104.343 167.571C102.856 165.385 104.031 159.918 100.882 158.063C95.2853 154.764 91.3968 164.517 87.0163 162.496C82.6357 160.475 85.1582 155.174 81.3699 152.664C77.5816 150.154 74.8543 158.383 69.3696 157.29C63.8849 156.197 51.8084 155.93 52.4853 162.696C53.0205 168.044 59.1728 164.741 60.7978 166.446C62.6513 168.39 60.385 170.962 62.9124 172.672C66.4837 175.088 70.7328 171.307 73.3251 173.759C75.9174 176.21 73.3227 180.102 78.0045 181.036C83.8006 182.192 85.2381 173.255 91.2989 177.973C97.3596 182.691 88.4599 187.154 91.777 190.577C95.3975 194.313 101.624 187.297 103.403 190.331C105.824 194.457 110.397 191.32 114.665 185.242Z" fill="#6B67E9"/>
<path d="M115.305 184.446C115.227 184.446 115.152 184.417 115.094 184.366C114.767 184.077 114.442 183.581 114.065 183.005C113.248 181.758 112.231 180.206 110.69 179.899C109.808 179.724 108.908 179.678 107.954 179.63C106.369 179.549 104.73 179.466 103.145 178.746C99.9338 177.287 98.4715 174.975 97.1814 172.935C96.2424 171.45 95.4314 170.168 94.1228 169.497C93.035 168.94 92.2569 169.266 91.2715 169.678C90.246 170.108 89.0834 170.596 87.32 170.244C85.6048 169.902 84.9834 169.205 84.3825 168.532C83.7595 167.833 83.1157 167.111 81.0551 166.7C79.3095 166.352 78.3871 166.748 77.4099 167.168C76.3779 167.612 75.3106 168.07 73.3246 167.768C69.6175 167.203 67.7274 165.323 66.3473 163.95C65.5786 163.186 64.9713 162.582 64.3289 162.486C62.7918 162.26 62.1441 163.209 62.1376 163.219C62.0922 163.285 62.0219 163.331 61.942 163.347C61.862 163.363 61.7786 163.348 61.7098 163.306C61.6409 163.263 61.592 163.196 61.5735 163.119C61.555 163.042 61.5685 162.961 61.611 162.893C61.6459 162.84 62.4875 161.601 64.4235 161.888C65.2729 162.014 65.9443 162.682 66.7952 163.528C68.1141 164.84 69.9202 166.636 73.4218 167.17C75.2268 167.446 76.1639 167.042 77.1563 166.615C78.1805 166.175 79.2396 165.72 81.1811 166.107C83.4499 166.559 84.1965 167.397 84.8555 168.136C85.4368 168.788 85.9388 169.351 87.4458 169.651C89.0164 169.964 90.0363 169.536 91.0231 169.123C92.0718 168.683 93.0627 168.268 94.415 168.961C95.8749 169.71 96.7684 171.122 97.7144 172.618C98.9585 174.585 100.369 176.815 103.41 178.197C104.885 178.868 106.462 178.947 107.986 179.025C108.921 179.072 109.888 179.121 110.815 179.306C112.616 179.665 113.758 181.408 114.592 182.68C114.945 183.219 115.25 183.685 115.516 183.919C115.562 183.96 115.595 184.014 115.609 184.073C115.624 184.133 115.619 184.195 115.596 184.252C115.573 184.309 115.533 184.358 115.481 184.392C115.429 184.427 115.368 184.445 115.305 184.445V184.446Z" fill="#807DFB"/>
<path d="M162.72 28.2538H97.9283C90.4449 28.2538 84.3784 34.1395 84.3784 41.4V189.923C84.3784 197.183 90.4449 203.069 97.9283 203.069H162.72C170.204 203.069 176.27 197.183 176.27 189.923V41.4C176.27 34.1395 170.204 28.2538 162.72 28.2538Z" fill="#6B67E9"/>
<path d="M162.539 33.394H98.1108C92.8698 33.394 88.6211 37.5161 88.6211 42.601V187.683C88.6211 192.768 92.8698 196.89 98.1108 196.89H162.539C167.78 196.89 172.029 192.768 172.029 187.683V42.601C172.029 37.5161 167.78 33.394 162.539 33.394Z" fill="#EFEBEB"/>
<path d="M155.282 33.394H149.858C149.059 33.394 148.293 33.7018 147.728 34.2498C147.164 34.7977 146.846 35.5408 146.846 36.3157V38.405C146.846 39.1798 146.529 39.923 145.964 40.4709C145.4 41.0188 144.634 41.3266 143.835 41.3266H119.641C118.843 41.3266 118.077 41.0188 117.512 40.4709C116.947 39.923 116.63 39.1798 116.63 38.405V36.3157C116.63 35.5408 116.313 34.7977 115.748 34.2498C115.183 33.7018 114.417 33.394 113.619 33.394H98.2158V31.894H155.286L155.282 33.394Z" fill="#6B67E9"/>
<path d="M151.653 38.3423H146.446C145.006 38.3484 143.627 38.9065 142.61 39.8944C141.594 40.8824 141.024 42.2198 141.024 43.6139C141.024 45.008 141.594 46.3454 142.61 47.3334C143.627 48.3213 145.006 48.8794 146.446 48.8855H151.653C153.097 48.8855 154.482 48.3301 155.504 47.3416C156.525 46.353 157.099 45.0122 157.099 43.6142C157.099 42.2161 156.525 40.8753 155.504 39.8867C154.482 38.8982 153.097 38.3428 151.653 38.3428L151.653 38.3423ZM155.199 43.6131C155.198 44.5234 154.825 45.3964 154.16 46.0401C153.495 46.6839 152.593 47.0457 151.653 47.0459H146.446C145.98 47.046 145.519 46.9572 145.089 46.7847C144.659 46.6123 144.268 46.3595 143.939 46.0408C143.274 45.3972 142.9 44.5242 142.9 43.6139C142.9 42.7035 143.273 41.8305 143.938 41.1868C144.603 40.543 145.505 40.1814 146.445 40.1813H151.652C152.592 40.1822 153.493 40.544 154.158 41.1874C154.823 41.8308 155.197 42.7032 155.198 43.6131H155.199Z" fill="#FAB80A"/>
<path d="M143.938 41.1863C143.688 41.4287 143.476 41.7058 143.31 42.0085C143.596 42.5314 143.738 43.1171 143.721 43.7087C143.705 44.3003 143.53 44.8777 143.215 45.3847C142.899 45.8917 142.454 46.3112 141.922 46.6023C141.389 46.8934 140.788 47.0463 140.177 47.0461H134.97C134.029 47.046 133.128 46.6843 132.463 46.0406C131.798 45.3968 131.424 44.5237 131.424 43.6133C131.424 42.703 131.798 41.83 132.463 41.1863C133.128 40.5427 134.03 40.1811 134.971 40.1812H140.177C140.799 40.1808 141.409 40.3395 141.947 40.6412C142.138 40.3708 142.355 40.118 142.594 39.8861C142.815 39.6733 143.054 39.4787 143.309 39.3044C142.393 38.6772 141.299 38.3408 140.177 38.3417L134.971 38.3422C133.526 38.3422 132.141 38.8976 131.12 39.8861C130.099 40.8747 129.525 42.2155 129.525 43.6135C129.525 45.0116 130.099 46.3524 131.12 47.341C132.141 48.3295 133.526 48.8849 134.971 48.8849H140.177C141.168 48.8857 142.141 48.6245 142.99 48.1295C143.839 47.6344 144.532 46.9243 144.995 46.0758C145.457 45.2273 145.672 44.2726 145.615 43.3148C145.558 42.357 145.232 41.4324 144.672 40.6408C144.404 40.7911 144.157 40.9745 143.938 41.1863Z" fill="#807DF9"/>
<path d="M144.675 46.5883C144.484 46.8581 144.267 47.1102 144.028 47.3414C143.806 47.5551 143.566 47.7504 143.311 47.9249C143.547 48.0873 143.797 48.2307 144.058 48.3536C144.524 47.9117 144.905 47.3933 145.184 46.8225C145.008 46.7577 144.838 46.6794 144.675 46.5883Z" fill="#DF8F00"/>
<g style="mix-blend-mode:multiply">
<path d="M144.606 41.57C144.764 41.4875 144.928 41.4162 145.096 41.3565C144.975 41.1074 144.832 40.868 144.671 40.6406C144.094 40.9642 143.623 41.438 143.31 42.0081C143.389 42.1538 143.458 42.3049 143.515 42.4603C143.812 42.0949 144.183 41.792 144.606 41.57Z" fill="#C2C8E7"/>
</g>
<path d="M164.14 162.101H141.781C141.698 162.101 141.619 162.069 141.56 162.013C141.502 161.956 141.469 161.879 141.469 161.799C141.469 161.719 141.502 161.642 141.56 161.585C141.619 161.528 141.698 161.496 141.781 161.496H164.14C165.224 161.495 166.264 161.078 167.03 160.336C167.797 159.594 168.228 158.587 168.229 157.538V139.622C168.229 139.541 168.262 139.464 168.321 139.408C168.379 139.351 168.459 139.319 168.542 139.319C168.625 139.319 168.704 139.351 168.763 139.408C168.821 139.464 168.854 139.541 168.854 139.622V157.538C168.853 158.748 168.356 159.908 167.472 160.763C166.588 161.619 165.39 162.1 164.14 162.101Z" fill="#CED3F8"/>
<path d="M117.913 162.101H93.7814C92.5316 162.1 91.3333 161.619 90.4495 160.763C89.5657 159.908 89.0685 158.748 89.0671 157.538V117.376C89.0671 117.296 89.1001 117.219 89.1587 117.162C89.2173 117.106 89.2968 117.074 89.3796 117.074C89.4625 117.074 89.542 117.106 89.6006 117.162C89.6592 117.219 89.6921 117.296 89.6921 117.376V157.538C89.6934 158.588 90.1246 159.594 90.8912 160.336C91.6579 161.078 92.6973 161.495 93.7814 161.496H117.913C117.996 161.496 118.076 161.528 118.134 161.585C118.193 161.642 118.226 161.719 118.226 161.799C118.226 161.879 118.193 161.956 118.134 162.013C118.076 162.069 117.996 162.101 117.913 162.101Z" fill="#CED3F8"/>
<path d="M89.3796 134.308H66.8535C66.7706 134.308 66.6911 134.276 66.6325 134.219C66.5739 134.162 66.541 134.086 66.541 134.005C66.541 133.925 66.5739 133.848 66.6325 133.791C66.6911 133.735 66.7706 133.703 66.8535 133.703H89.3796C89.4625 133.703 89.542 133.735 89.6006 133.791C89.6592 133.848 89.6921 133.925 89.6921 134.005C89.6921 134.086 89.6592 134.162 89.6006 134.219C89.542 134.276 89.4625 134.308 89.3796 134.308Z" fill="#CED3F8"/>
<path d="M193.972 100.29H142.646C141.631 100.288 140.658 99.8977 139.94 99.2029C139.222 98.5082 138.819 97.5663 138.817 96.5838V93.4255H114.507C114.424 93.4255 114.344 93.3936 114.286 93.3369C114.227 93.2802 114.194 93.2032 114.194 93.123C114.194 93.0428 114.227 92.9658 114.286 92.9091C114.344 92.8524 114.424 92.8205 114.507 92.8205H139.13C139.213 92.8205 139.292 92.8524 139.351 92.9091C139.409 92.9658 139.442 93.0428 139.442 93.123V96.5838C139.443 97.4059 139.781 98.1941 140.382 98.7754C140.982 99.3567 141.797 99.6836 142.646 99.6845H193.972C194.055 99.6845 194.134 99.7164 194.193 99.7731C194.251 99.8299 194.284 99.9068 194.284 99.987C194.284 100.067 194.251 100.144 194.193 100.201C194.134 100.258 194.055 100.29 193.972 100.29Z" fill="#CED3F8"/>
<path d="M139.13 93.4255C139.047 93.4255 138.968 93.3936 138.909 93.3369C138.85 93.2802 138.817 93.2032 138.817 93.123V77.9187C138.819 76.9363 139.223 75.9946 139.94 75.3C140.658 74.6053 141.631 74.2146 142.646 74.2133H155.335C155.418 74.2133 155.497 74.2452 155.556 74.3019C155.615 74.3586 155.647 74.4356 155.647 74.5158C155.647 74.596 155.615 74.673 155.556 74.7297C155.497 74.7864 155.418 74.8183 155.335 74.8183H142.646C141.797 74.8192 140.982 75.1462 140.382 75.7275C139.781 76.3088 139.443 77.097 139.442 77.9191V93.123C139.442 93.2032 139.409 93.2802 139.351 93.3369C139.292 93.3936 139.213 93.4255 139.13 93.4255Z" fill="#CED3F8"/>
<path d="M87.9893 134.005C87.9893 133.739 88.0708 133.479 88.2236 133.257C88.3764 133.036 88.5935 132.863 88.8476 132.762C89.1017 132.66 89.3812 132.633 89.6509 132.685C89.9207 132.737 90.1684 132.865 90.3629 133.053C90.5573 133.242 90.6897 133.481 90.7434 133.743C90.797 134.004 90.7695 134.274 90.6643 134.52C90.559 134.766 90.3808 134.976 90.1522 135.124C89.9235 135.272 89.6547 135.351 89.3797 135.351C89.0109 135.351 88.6573 135.209 88.3965 134.957C88.1357 134.704 87.9893 134.362 87.9893 134.005Z" fill="#CED3F8"/>
<path d="M137.74 93.123C137.74 92.8568 137.821 92.5965 137.974 92.3752C138.127 92.1539 138.344 91.9813 138.598 91.8795C138.852 91.7776 139.132 91.7509 139.401 91.8028C139.671 91.8547 139.919 91.9829 140.113 92.1711C140.308 92.3594 140.44 92.5992 140.494 92.8603C140.548 93.1213 140.52 93.392 140.415 93.6379C140.31 93.8838 140.131 94.094 139.903 94.2419C139.674 94.3898 139.405 94.4688 139.13 94.4688C138.761 94.4688 138.408 94.327 138.147 94.0746C137.886 93.8222 137.74 93.4799 137.74 93.123Z" fill="#CED3F8"/>
<path d="M182.964 63.7313H155.212C153.917 63.7313 152.867 64.7474 152.867 66.0008V83.0302C152.867 84.2835 153.917 85.2996 155.212 85.2996H182.964C184.259 85.2996 185.308 84.2835 185.308 83.0302V66.0008C185.308 64.7474 184.259 63.7313 182.964 63.7313Z" fill="#6B67E9"/>
<path d="M174.251 72.154H163.925C163.8 72.154 163.681 72.1062 163.593 72.0211C163.505 71.936 163.456 71.8206 163.456 71.7002C163.456 71.5799 163.505 71.4645 163.593 71.3794C163.681 71.2943 163.8 71.2465 163.925 71.2465H174.251C174.376 71.2465 174.495 71.2943 174.583 71.3794C174.671 71.4645 174.72 71.5799 174.72 71.7002C174.72 71.8206 174.671 71.936 174.583 72.0211C174.495 72.1062 174.376 72.154 174.251 72.154Z" fill="#362E92"/>
<path d="M166.18 79.9673C166.056 79.9673 165.936 79.9195 165.848 79.8344C165.761 79.7493 165.711 79.6339 165.711 79.5136V69.5175C165.711 69.3971 165.761 69.2817 165.848 69.1966C165.936 69.1115 166.056 69.0637 166.18 69.0637C166.304 69.0637 166.423 69.1115 166.511 69.1966C166.599 69.2817 166.649 69.3971 166.649 69.5175V79.5136C166.649 79.6339 166.599 79.7493 166.511 79.8344C166.423 79.9195 166.304 79.9673 166.18 79.9673Z" fill="#362E92"/>
<path d="M174.251 77.7844H163.925C163.8 77.7844 163.681 77.7366 163.593 77.6515C163.505 77.5664 163.456 77.451 163.456 77.3306C163.456 77.2103 163.505 77.0949 163.593 77.0098C163.681 76.9247 163.8 76.8769 163.925 76.8769H174.251C174.376 76.8769 174.495 76.9247 174.583 77.0098C174.671 77.0949 174.72 77.2103 174.72 77.3306C174.72 77.451 174.671 77.5664 174.583 77.6515C174.495 77.7366 174.376 77.7844 174.251 77.7844Z" fill="#362E92"/>
<path d="M171.996 79.9673C171.872 79.9673 171.753 79.9195 171.665 79.8344C171.577 79.7493 171.527 79.6339 171.527 79.5136V69.5175C171.527 69.3971 171.577 69.2817 171.665 69.1966C171.753 69.1115 171.872 69.0637 171.996 69.0637C172.12 69.0637 172.24 69.1115 172.328 69.1966C172.415 69.2817 172.465 69.3971 172.465 69.5175V79.5136C172.465 79.6339 172.415 79.7493 172.328 79.8344C172.24 79.9195 172.12 79.9673 171.996 79.9673Z" fill="#362E92"/>
<path d="M74.2054 123.976H48.3975C47.1934 123.976 46.2173 124.921 46.2173 126.087V141.923C46.2173 143.089 47.1934 144.034 48.3975 144.034H74.2054C75.4095 144.034 76.3857 143.089 76.3857 141.923V126.087C76.3857 124.921 75.4095 123.976 74.2054 123.976Z" fill="#807DFB"/>
<path d="M55.3845 140.367C54.8557 140.366 54.3487 140.162 53.9748 139.8C53.6008 139.438 53.3905 138.948 53.3898 138.436V135.482C53.3894 135.211 53.2779 134.951 53.0797 134.759C52.8815 134.567 52.6128 134.459 52.3325 134.459C52.2082 134.459 52.089 134.411 52.0011 134.326C51.9132 134.241 51.8638 134.126 51.8638 134.005C51.8638 133.885 51.9132 133.769 52.0011 133.684C52.089 133.599 52.2082 133.551 52.3325 133.551H52.3331C52.6134 133.551 52.8821 133.443 53.0802 133.252C53.2783 133.06 53.3896 132.8 53.3896 132.528V129.575C53.3902 129.063 53.6005 128.572 53.9744 128.21C54.3483 127.848 54.8552 127.644 55.384 127.644H56.4011C56.5254 127.644 56.6446 127.692 56.7325 127.777C56.8204 127.862 56.8698 127.977 56.8698 128.098C56.8698 128.218 56.8204 128.333 56.7325 128.418C56.6446 128.503 56.5254 128.551 56.4011 128.551H55.384C55.1038 128.552 54.8351 128.66 54.637 128.851C54.4388 129.043 54.3274 129.303 54.3271 129.575V132.528C54.3278 132.782 54.2765 133.033 54.1762 133.268C54.0759 133.502 53.9285 133.715 53.7427 133.893C53.702 133.933 53.6599 133.97 53.6164 134.006C53.839 134.187 54.018 134.413 54.1408 134.668C54.2636 134.923 54.3272 135.201 54.3271 135.482V138.436C54.3275 138.707 54.439 138.967 54.6371 139.159C54.8353 139.351 55.104 139.459 55.3843 139.459H56.4011C56.5254 139.459 56.6446 139.507 56.7325 139.592C56.8204 139.677 56.8698 139.793 56.8698 139.913C56.8698 140.033 56.8204 140.149 56.7325 140.234C56.6446 140.319 56.5254 140.367 56.4011 140.367H55.3845Z" fill="#362E94"/>
<path d="M67.2187 140.367H66.2016C66.0773 140.367 65.9581 140.319 65.8702 140.234C65.7823 140.149 65.7329 140.033 65.7329 139.913C65.7329 139.792 65.7823 139.677 65.8702 139.592C65.9581 139.507 66.0773 139.459 66.2016 139.459H67.2187C67.499 139.459 67.7678 139.351 67.966 139.159C68.1642 138.967 68.2755 138.707 68.2756 138.436V135.482C68.2749 135.228 68.3261 134.977 68.4264 134.743C68.5267 134.508 68.674 134.296 68.8597 134.117C68.9004 134.077 68.9426 134.04 68.9861 134.005C68.7635 133.824 68.5845 133.598 68.4618 133.343C68.339 133.087 68.2754 132.809 68.2755 132.528V129.574C68.2755 129.303 68.1641 129.043 67.966 128.851C67.7678 128.659 67.499 128.551 67.2187 128.551H66.2014C66.0771 128.551 65.9579 128.503 65.87 128.418C65.782 128.333 65.7327 128.218 65.7327 128.098C65.7327 127.977 65.782 127.862 65.87 127.777C65.9579 127.692 66.0771 127.644 66.2014 127.644H67.2185C67.4804 127.644 67.7398 127.694 67.9817 127.791C68.2237 127.888 68.4436 128.03 68.6288 128.209C68.8139 128.389 68.9608 128.601 69.061 128.836C69.1612 129.07 69.2127 129.321 69.2127 129.575V132.528C69.213 132.799 69.3244 133.059 69.5226 133.251C69.7208 133.443 69.9895 133.551 70.2697 133.551C70.3941 133.551 70.5133 133.599 70.6012 133.684C70.6891 133.769 70.7385 133.885 70.7385 134.005C70.7385 134.126 70.6891 134.241 70.6012 134.326C70.5133 134.411 70.3941 134.459 70.2697 134.459C69.9895 134.459 69.7207 134.567 69.5225 134.759C69.3243 134.95 69.2129 135.211 69.2128 135.482V138.436C69.2127 138.948 69.0025 139.439 68.6286 139.801C68.2546 140.163 67.7473 140.366 67.2184 140.367H67.2187Z" fill="#362E94"/>
<path d="M63.7035 134.663C64.0789 134.663 64.3833 134.369 64.3833 134.005C64.3833 133.642 64.0789 133.347 63.7035 133.347C63.328 133.347 63.0237 133.642 63.0237 134.005C63.0237 134.369 63.328 134.663 63.7035 134.663Z" fill="#362E94"/>
<path d="M61.3014 134.663C61.6768 134.663 61.9812 134.369 61.9812 134.005C61.9812 133.642 61.6768 133.347 61.3014 133.347C60.9259 133.347 60.6216 133.642 60.6216 134.005C60.6216 134.369 60.9259 134.663 61.3014 134.663Z" fill="#362E94"/>
<path d="M58.8988 134.663C59.2742 134.663 59.5786 134.369 59.5786 134.005C59.5786 133.642 59.2742 133.347 58.8988 133.347C58.5233 133.347 58.219 133.642 58.219 134.005C58.219 134.369 58.5233 134.663 58.8988 134.663Z" fill="#362E94"/>
<path d="M119.396 68.8694H59.3633C58.1592 68.8694 57.1831 69.8143 57.1831 70.9799V115.266C57.1831 116.432 58.1592 117.377 59.3633 117.377H119.396C120.6 117.377 121.576 116.432 121.576 115.266V70.9799C121.576 69.8143 120.6 68.8694 119.396 68.8694Z" fill="#E9EDF7"/>
<path d="M116.966 76.7644C116.904 76.7645 116.843 76.7528 116.786 76.73C116.729 76.7072 116.678 76.6737 116.634 76.6315L113.106 73.216C113.02 73.1305 112.973 73.0158 112.974 72.8969C112.975 72.7779 113.025 72.6641 113.111 72.58C113.198 72.4959 113.316 72.4481 113.439 72.4471C113.562 72.4461 113.68 72.4918 113.769 72.5744L117.297 75.9899C117.362 76.0534 117.407 76.1342 117.425 76.2222C117.443 76.3102 117.434 76.4014 117.398 76.4843C117.363 76.5672 117.303 76.638 117.226 76.6879C117.149 76.7378 117.058 76.7644 116.966 76.7644Z" fill="#BBC0E6"/>
<path d="M113.437 76.7644C113.344 76.7644 113.254 76.7378 113.177 76.6879C113.099 76.638 113.039 76.5672 113.004 76.4843C112.968 76.4014 112.959 76.3102 112.977 76.2222C112.995 76.1342 113.04 76.0534 113.105 75.9899L116.634 72.5744C116.722 72.491 116.841 72.4446 116.964 72.4453C117.087 72.446 117.206 72.4938 117.293 72.5782C117.38 72.6626 117.429 72.7769 117.43 72.8963C117.431 73.0157 117.383 73.1306 117.297 73.216L113.768 76.6315C113.725 76.6737 113.673 76.7072 113.616 76.73C113.559 76.7528 113.498 76.7645 113.437 76.7644Z" fill="#BBC0E6"/>
<path d="M109.475 76.7644H105.102C104.978 76.7644 104.859 76.7166 104.771 76.6315C104.683 76.5464 104.634 76.431 104.634 76.3106C104.634 76.1903 104.683 76.0749 104.771 75.9898C104.859 75.9047 104.978 75.8569 105.102 75.8569H109.475C109.599 75.8569 109.718 75.9047 109.806 75.9898C109.894 76.0749 109.943 76.1903 109.943 76.3106C109.943 76.431 109.894 76.5464 109.806 76.6315C109.718 76.7166 109.599 76.7644 109.475 76.7644Z" fill="#BBC0E6"/>
<path d="M64.582 83.2316H62.6594C62.5351 83.2316 62.4159 83.1838 62.328 83.0987C62.2401 83.0136 62.1907 82.8982 62.1907 82.7779C62.1907 82.6575 62.2401 82.5421 62.328 82.457C62.4159 82.3719 62.5351 82.3241 62.6594 82.3241H64.582C64.7063 82.3241 64.8256 82.3719 64.9135 82.457C65.0014 82.5421 65.0508 82.6575 65.0508 82.7779C65.0508 82.8982 65.0014 83.0136 64.9135 83.0987C64.8256 83.1838 64.7063 83.2316 64.582 83.2316Z" fill="white"/>
<path d="M103.122 83.2316H67.8906C67.7663 83.2316 67.6471 83.1838 67.5592 83.0987C67.4713 83.0136 67.4219 82.8982 67.4219 82.7779C67.4219 82.6575 67.4713 82.5421 67.5592 82.457C67.6471 82.3719 67.7663 82.3241 67.8906 82.3241H103.122C103.246 82.3241 103.366 82.3719 103.454 82.457C103.541 82.5421 103.591 82.6575 103.591 82.7779C103.591 82.8982 103.541 83.0136 103.454 83.0987C103.366 83.1838 103.246 83.2316 103.122 83.2316Z" fill="#BBC0E6"/>
<path d="M70.976 86.7456H69.0535C68.9291 86.7456 68.8099 86.6978 68.722 86.6127C68.6341 86.5276 68.5847 86.4122 68.5847 86.2919C68.5847 86.1715 68.6341 86.0561 68.722 85.971C68.8099 85.8859 68.9291 85.8381 69.0535 85.8381H70.976C71.1003 85.8381 71.2195 85.8859 71.3075 85.971C71.3954 86.0561 71.4447 86.1715 71.4447 86.2919C71.4447 86.4122 71.3954 86.5276 71.3075 86.6127C71.2195 86.6978 71.1003 86.7456 70.976 86.7456Z" fill="white"/>
<path d="M92.1304 86.7456H74.2847C74.1603 86.7456 74.0411 86.6978 73.9532 86.6127C73.8653 86.5276 73.8159 86.4122 73.8159 86.2919C73.8159 86.1715 73.8653 86.0561 73.9532 85.971C74.0411 85.8859 74.1603 85.8381 74.2847 85.8381H92.1304C92.2547 85.8381 92.374 85.8859 92.4619 85.971C92.5498 86.0561 92.5992 86.1715 92.5992 86.2919C92.5992 86.4122 92.5498 86.5276 92.4619 86.6127C92.374 86.6978 92.2547 86.7456 92.1304 86.7456Z" fill="#CED3F8"/>
<path d="M109.517 86.7456H94.9771C94.8527 86.7456 94.7335 86.6978 94.6456 86.6127C94.5577 86.5276 94.5083 86.4122 94.5083 86.2919C94.5083 86.1715 94.5577 86.0561 94.6456 85.971C94.7335 85.8859 94.8527 85.8381 94.9771 85.8381H109.517C109.641 85.8381 109.76 85.8859 109.848 85.971C109.936 86.0561 109.985 86.1715 109.985 86.2919C109.985 86.4122 109.936 86.5276 109.848 86.6127C109.76 86.6978 109.641 86.7456 109.517 86.7456Z" fill="#CED3F8"/>
<path d="M70.976 90.2597H69.0535C68.9291 90.2597 68.8099 90.2119 68.722 90.1268C68.6341 90.0417 68.5847 89.9262 68.5847 89.8059C68.5847 89.6855 68.6341 89.5701 68.722 89.485C68.8099 89.3999 68.9291 89.3521 69.0535 89.3521H70.976C71.1003 89.3521 71.2195 89.3999 71.3075 89.485C71.3954 89.5701 71.4447 89.6855 71.4447 89.8059C71.4447 89.9262 71.3954 90.0417 71.3075 90.1268C71.2195 90.2119 71.1003 90.2597 70.976 90.2597Z" fill="white"/>
<path d="M109.516 90.2597H74.2847C74.1603 90.2597 74.0411 90.2119 73.9532 90.1268C73.8653 90.0417 73.8159 89.9262 73.8159 89.8059C73.8159 89.6855 73.8653 89.5701 73.9532 89.485C74.0411 89.3999 74.1603 89.3521 74.2847 89.3521H109.516C109.641 89.3521 109.76 89.3999 109.848 89.485C109.936 89.5701 109.985 89.6855 109.985 89.8059C109.985 89.9262 109.936 90.0417 109.848 90.1268C109.76 90.2119 109.641 90.2597 109.516 90.2597Z" fill="#BBC0E6"/>
<path d="M70.976 93.7736H69.0535C68.9291 93.7736 68.8099 93.7258 68.722 93.6407C68.6341 93.5556 68.5847 93.4402 68.5847 93.3198C68.5847 93.1995 68.6341 93.084 68.722 92.9989C68.8099 92.9138 68.9291 92.866 69.0535 92.866H70.976C71.1003 92.866 71.2195 92.9138 71.3075 92.9989C71.3954 93.084 71.4447 93.1995 71.4447 93.3198C71.4447 93.4402 71.3954 93.5556 71.3075 93.6407C71.2195 93.7258 71.1003 93.7736 70.976 93.7736Z" fill="white"/>
<path d="M109.516 93.7736H74.2847C74.1603 93.7736 74.0411 93.7258 73.9532 93.6407C73.8653 93.5556 73.8159 93.4402 73.8159 93.3198C73.8159 93.1995 73.8653 93.084 73.9532 92.9989C74.0411 92.9138 74.1603 92.866 74.2847 92.866H109.516C109.641 92.866 109.76 92.9138 109.848 92.9989C109.936 93.084 109.985 93.1995 109.985 93.3198C109.985 93.4402 109.936 93.5556 109.848 93.6407C109.76 93.7258 109.641 93.7736 109.516 93.7736Z" fill="#BBC0E6"/>
<path d="M79.5139 97.2876H77.5913C77.467 97.2876 77.3478 97.2398 77.2598 97.1547C77.1719 97.0696 77.1226 96.9542 77.1226 96.8338C77.1226 96.7135 77.1719 96.5981 77.2598 96.513C77.3478 96.4279 77.467 96.3801 77.5913 96.3801H79.5139C79.6382 96.3801 79.7575 96.4279 79.8454 96.513C79.9333 96.5981 79.9827 96.7135 79.9827 96.8338C79.9827 96.9542 79.9333 97.0696 79.8454 97.1547C79.7575 97.2398 79.6382 97.2876 79.5139 97.2876Z" fill="white"/>
<path d="M104.589 97.2876H82.823C82.6987 97.2876 82.5794 97.2398 82.4915 97.1547C82.4036 97.0696 82.3542 96.9542 82.3542 96.8338C82.3542 96.7135 82.4036 96.5981 82.4915 96.513C82.5794 96.4279 82.6987 96.3801 82.823 96.3801H104.589C104.713 96.3801 104.833 96.4279 104.921 96.513C105.009 96.5981 105.058 96.7135 105.058 96.8338C105.058 96.9542 105.009 97.0696 104.921 97.1547C104.833 97.2398 104.713 97.2876 104.589 97.2876Z" fill="#CED3F8"/>
<path d="M116.394 97.2876H108.097C107.972 97.2876 107.853 97.2398 107.765 97.1547C107.677 97.0696 107.628 96.9542 107.628 96.8338C107.628 96.7135 107.677 96.5981 107.765 96.513C107.853 96.4279 107.972 96.3801 108.097 96.3801H116.394C116.519 96.3801 116.638 96.4279 116.726 96.513C116.814 96.5981 116.863 96.7135 116.863 96.8338C116.863 96.9542 116.814 97.0696 116.726 97.1547C116.638 97.2398 116.519 97.2876 116.394 97.2876Z" fill="#CED3F8"/>
<path d="M79.5139 100.802H77.5913C77.467 100.802 77.3478 100.754 77.2598 100.669C77.1719 100.584 77.1226 100.468 77.1226 100.348C77.1226 100.228 77.1719 100.112 77.2598 100.027C77.3478 99.942 77.467 99.8942 77.5913 99.8942H79.5139C79.6382 99.8942 79.7575 99.942 79.8454 100.027C79.9333 100.112 79.9827 100.228 79.9827 100.348C79.9827 100.468 79.9333 100.584 79.8454 100.669C79.7575 100.754 79.6382 100.802 79.5139 100.802Z" fill="white"/>
<path d="M116.395 100.802H82.823C82.6987 100.802 82.5794 100.754 82.4915 100.669C82.4036 100.584 82.3542 100.468 82.3542 100.348C82.3542 100.228 82.4036 100.112 82.4915 100.027C82.5794 99.942 82.6987 99.8942 82.823 99.8942H116.395C116.519 99.8942 116.638 99.942 116.726 100.027C116.814 100.112 116.864 100.228 116.864 100.348C116.864 100.468 116.814 100.584 116.726 100.669C116.638 100.754 116.519 100.802 116.395 100.802Z" fill="#BBC0E6"/>
<path d="M79.5139 104.316H77.5913C77.467 104.316 77.3478 104.268 77.2598 104.183C77.1719 104.098 77.1226 103.982 77.1226 103.862C77.1226 103.742 77.1719 103.626 77.2598 103.541C77.3478 103.456 77.467 103.408 77.5913 103.408H79.5139C79.6382 103.408 79.7575 103.456 79.8454 103.541C79.9333 103.626 79.9827 103.742 79.9827 103.862C79.9827 103.982 79.9333 104.098 79.8454 104.183C79.7575 104.268 79.6382 104.316 79.5139 104.316Z" fill="white"/>
<path d="M116.395 104.316H82.823C82.6987 104.316 82.5794 104.268 82.4915 104.183C82.4036 104.098 82.3542 103.982 82.3542 103.862C82.3542 103.742 82.4036 103.626 82.4915 103.541C82.5794 103.456 82.6987 103.408 82.823 103.408H116.395C116.519 103.408 116.638 103.456 116.726 103.541C116.814 103.626 116.864 103.742 116.864 103.862C116.864 103.982 116.814 104.098 116.726 104.183C116.638 104.268 116.519 104.316 116.395 104.316Z" fill="#BBC0E6"/>
<path d="M64.582 107.83H62.6594C62.5351 107.83 62.4159 107.782 62.328 107.697C62.2401 107.612 62.1907 107.496 62.1907 107.376C62.1907 107.255 62.2401 107.14 62.328 107.055C62.4159 106.97 62.5351 106.922 62.6594 106.922H64.582C64.7063 106.922 64.8256 106.97 64.9135 107.055C65.0014 107.14 65.0508 107.255 65.0508 107.376C65.0508 107.496 65.0014 107.612 64.9135 107.697C64.8256 107.782 64.7063 107.83 64.582 107.83Z" fill="white"/>
<path d="M98.9145 107.83H67.8906C67.7663 107.83 67.6471 107.782 67.5592 107.697C67.4713 107.612 67.4219 107.496 67.4219 107.376C67.4219 107.255 67.4713 107.14 67.5592 107.055C67.6471 106.97 67.7663 106.922 67.8906 106.922H98.9145C99.0388 106.922 99.158 106.97 99.2459 107.055C99.3338 107.14 99.3832 107.255 99.3832 107.376C99.3832 107.496 99.3338 107.612 99.2459 107.697C99.158 107.782 99.0388 107.83 98.9145 107.83Z" fill="#CED3F8"/>
<path d="M64.582 111.344H62.6594C62.5351 111.344 62.4159 111.296 62.328 111.211C62.2401 111.126 62.1907 111.01 62.1907 110.89C62.1907 110.77 62.2401 110.654 62.328 110.569C62.4159 110.484 62.5351 110.436 62.6594 110.436H64.582C64.7063 110.436 64.8256 110.484 64.9135 110.569C65.0014 110.654 65.0508 110.77 65.0508 110.89C65.0508 111.01 65.0014 111.126 64.9135 111.211C64.8256 111.296 64.7063 111.344 64.582 111.344Z" fill="white"/>
<path d="M103.122 111.344H67.8906C67.7663 111.344 67.6471 111.296 67.5592 111.211C67.4713 111.126 67.4219 111.01 67.4219 110.89C67.4219 110.77 67.4713 110.654 67.5592 110.569C67.6471 110.484 67.7663 110.436 67.8906 110.436H103.122C103.246 110.436 103.366 110.484 103.454 110.569C103.541 110.654 103.591 110.77 103.591 110.89C103.591 111.01 103.541 111.126 103.454 111.211C103.366 111.296 103.246 111.344 103.122 111.344Z" fill="#CED3F8"/>
<path d="M62.6592 76.3115C62.6592 76.1274 62.7156 75.9475 62.8212 75.7945C62.9269 75.6415 63.077 75.5223 63.2526 75.4519C63.4283 75.3814 63.6215 75.363 63.808 75.3989C63.9944 75.4348 64.1657 75.5235 64.3001 75.6536C64.4346 75.7837 64.5261 75.9495 64.5632 76.13C64.6003 76.3105 64.5813 76.4976 64.5085 76.6676C64.4358 76.8376 64.3126 76.983 64.1545 77.0852C63.9965 77.1875 63.8106 77.2421 63.6205 77.2421C63.4943 77.2421 63.3693 77.218 63.2526 77.1712C63.136 77.1245 63.03 77.0559 62.9407 76.9695C62.8515 76.8831 62.7807 76.7805 62.7324 76.6676C62.684 76.5547 62.6592 76.4337 62.6592 76.3115Z" fill="#BBC0E6"/>
<path d="M65.9683 76.3107C65.9683 76.1267 66.0246 75.9468 66.1303 75.7937C66.2359 75.6407 66.3861 75.5214 66.5617 75.451C66.7374 75.3805 66.9307 75.3621 67.1172 75.398C67.3036 75.4339 67.4749 75.5225 67.6094 75.6527C67.7438 75.7828 67.8354 75.9487 67.8725 76.1292C67.9096 76.3097 67.8905 76.4968 67.8178 76.6669C67.745 76.8369 67.6218 76.9823 67.4637 77.0845C67.3056 77.1868 67.1197 77.2413 66.9296 77.2413C66.8034 77.2413 66.6783 77.2173 66.5617 77.1705C66.4451 77.1237 66.3391 77.0552 66.2498 76.9688C66.1606 76.8824 66.0898 76.7798 66.0414 76.6669C65.9931 76.554 65.9683 76.4329 65.9683 76.3107Z" fill="#BBC0E6"/>
<path d="M69.2773 76.3106C69.2774 76.1266 69.3338 75.9467 69.4394 75.7937C69.545 75.6407 69.6952 75.5215 69.8708 75.451C70.0465 75.3806 70.2398 75.3622 70.4262 75.3981C70.6127 75.4341 70.784 75.5227 70.9184 75.6528C71.0528 75.7829 71.1444 75.9487 71.1815 76.1292C71.2185 76.3097 71.1995 76.4968 71.1267 76.6668C71.054 76.8368 70.9308 76.9821 70.7727 77.0844C70.6146 77.1866 70.4288 77.2412 70.2386 77.2412C70.1124 77.2412 69.9874 77.2171 69.8707 77.1703C69.7541 77.1236 69.6481 77.055 69.5589 76.9686C69.4696 76.8822 69.3988 76.7796 69.3505 76.6667C69.3022 76.5538 69.2773 76.4328 69.2773 76.3106Z" fill="#BBC0E6"/>
<path d="M73.5473 77.2414C74.0783 77.2414 74.5087 76.8248 74.5087 76.3108C74.5087 75.7969 74.0783 75.3802 73.5473 75.3802C73.0164 75.3802 72.5859 75.7969 72.5859 76.3108C72.5859 76.8248 73.0164 77.2414 73.5473 77.2414Z" fill="#BBC0E6"/>
<path d="M76.8559 77.2414C77.3868 77.2414 77.8172 76.8248 77.8172 76.3108C77.8172 75.7969 77.3868 75.3802 76.8559 75.3802C76.3249 75.3802 75.8945 75.7969 75.8945 76.3108C75.8945 76.8248 76.3249 77.2414 76.8559 77.2414Z" fill="#BBC0E6"/>
<path d="M80.1648 77.2414C80.6957 77.2414 81.1261 76.8248 81.1261 76.3108C81.1261 75.7969 80.6957 75.3802 80.1648 75.3802C79.6338 75.3802 79.2034 75.7969 79.2034 76.3108C79.2034 76.8248 79.6338 77.2414 80.1648 77.2414Z" fill="#BBC0E6"/>
<path d="M83.474 77.2414C84.0049 77.2414 84.4353 76.8248 84.4353 76.3108C84.4353 75.7969 84.0049 75.3802 83.474 75.3802C82.9431 75.3802 82.5127 75.7969 82.5127 76.3108C82.5127 76.8248 82.9431 77.2414 83.474 77.2414Z" fill="#BBC0E6"/>
<path d="M86.7829 77.2414C87.3139 77.2414 87.7443 76.8248 87.7443 76.3108C87.7443 75.7969 87.3139 75.3802 86.7829 75.3802C86.252 75.3802 85.8215 75.7969 85.8215 76.3108C85.8215 76.8248 86.252 77.2414 86.7829 77.2414Z" fill="#BBC0E6"/>
<path d="M90.0915 77.2414C90.6224 77.2414 91.0528 76.8248 91.0528 76.3108C91.0528 75.7969 90.6224 75.3802 90.0915 75.3802C89.5605 75.3802 89.1301 75.7969 89.1301 76.3108C89.1301 76.8248 89.5605 77.2414 90.0915 77.2414Z" fill="#BBC0E6"/>
<path d="M136.529 51.5543H75.6187V61.6854H136.529V51.5543Z" fill="#FAB80A"/>
<path d="M79.0323 57.9684C78.6972 57.9683 78.3696 57.872 78.091 57.6917C77.8124 57.5114 77.5953 57.2551 77.4672 56.9554C77.339 56.6556 77.3056 56.3258 77.371 56.0077C77.4365 55.6895 77.598 55.3973 77.835 55.168C78.072 54.9386 78.374 54.7825 78.7027 54.7193C79.0314 54.6561 79.3721 54.6887 79.6817 54.8129C79.9913 54.9371 80.2559 55.1474 80.442 55.4172C80.6281 55.687 80.7274 56.0041 80.7273 56.3285C80.7272 56.7636 80.5485 57.1807 80.2306 57.4882C79.9128 57.7958 79.4817 57.9685 79.0323 57.9684Z" fill="#EB9D01"/>
<path d="M79.0323 57.1733C78.8596 57.1734 78.6908 57.1239 78.5471 57.0311C78.4034 56.9382 78.2914 56.8063 78.2253 56.6518C78.1591 56.4974 78.1418 56.3274 78.1754 56.1634C78.2091 55.9994 78.2922 55.8488 78.4143 55.7306C78.5364 55.6123 78.692 55.5318 78.8614 55.4992C79.0308 55.4665 79.2064 55.4833 79.366 55.5473C79.5256 55.6112 79.6619 55.7196 79.7579 55.8586C79.8538 55.9976 79.905 56.1611 79.905 56.3283C79.905 56.4392 79.8825 56.5491 79.8386 56.6516C79.7948 56.7541 79.7305 56.8473 79.6495 56.9258C79.5685 57.0042 79.4723 57.0665 79.3664 57.1089C79.2605 57.1514 79.147 57.1733 79.0323 57.1733Z" fill="white"/>
<path d="M120.2 60.3554V61.6854H120.985V60.3557C120.986 60.3052 120.976 60.2552 120.957 60.2083C120.938 60.1615 120.909 60.1189 120.872 60.0829C120.836 60.047 120.792 60.0184 120.744 59.999C120.696 59.9795 120.644 59.9694 120.592 59.9694C120.54 59.9694 120.489 59.9795 120.441 59.999C120.393 60.0184 120.349 60.047 120.313 60.0829C120.276 60.1189 120.247 60.1615 120.228 60.2083C120.208 60.2552 120.199 60.3052 120.2 60.3557V60.3554ZM117.354 60.3554V61.6854H118.138V60.3557C118.139 60.3052 118.13 60.2551 118.11 60.2083C118.091 60.1615 118.062 60.1188 118.026 60.0829C117.989 60.0469 117.946 60.0184 117.898 59.9989C117.85 59.9794 117.798 59.9693 117.746 59.9693C117.694 59.9693 117.642 59.9794 117.594 59.9989C117.546 60.0184 117.502 60.0469 117.466 60.0829C117.429 60.1188 117.401 60.1615 117.381 60.2083C117.362 60.2551 117.352 60.3052 117.353 60.3557L117.354 60.3554ZM77.9003 59.9752C77.8488 59.9752 77.7977 59.985 77.7501 60.0041C77.7025 60.0232 77.6592 60.0512 77.6227 60.0865C77.5863 60.1218 77.5574 60.1638 77.5377 60.2099C77.5181 60.256 77.508 60.3054 77.5081 60.3554V61.6854H78.2932V60.3554C78.2932 60.3054 78.2831 60.256 78.2634 60.2098C78.2436 60.1637 78.2147 60.1217 78.1782 60.0864C78.1417 60.0511 78.0984 60.0231 78.0507 60.004C78.003 59.9849 77.9519 59.9752 77.9003 59.9752ZM114.508 60.3554V61.6854H115.293V60.3554C115.293 60.2546 115.252 60.1579 115.178 60.0866C115.104 60.0154 115.005 59.9753 114.9 59.9753C114.796 59.9753 114.696 60.0154 114.623 60.0866C114.549 60.1579 114.508 60.2546 114.508 60.3554H114.508ZM105.969 60.3554V61.6854H106.755V60.3554C106.755 60.2546 106.713 60.1579 106.64 60.0866C106.566 60.0154 106.466 59.9753 106.362 59.9753C106.258 59.9753 106.158 60.0154 106.084 60.0866C106.011 60.1579 105.969 60.2546 105.969 60.3554H105.969ZM86.0465 60.3554V61.6854H86.8317V60.3554C86.8317 60.2546 86.7903 60.158 86.7167 60.0867C86.6431 60.0155 86.5433 59.9754 86.4392 59.9754C86.3351 59.9754 86.2353 60.0155 86.1617 60.0867C86.0881 60.158 86.0467 60.2546 86.0467 60.3554H86.0465ZM91.7387 60.3554V61.6854H92.5234V60.3554C92.5234 60.2546 92.482 60.1581 92.4085 60.0868C92.3349 60.0156 92.2351 59.9756 92.1311 59.9756C92.027 59.9756 91.9273 60.0156 91.8537 60.0868C91.7801 60.1581 91.7388 60.2546 91.7388 60.3554H91.7387ZM111.661 60.3554V61.6854H112.446V60.3557C112.446 60.3057 112.436 60.2563 112.416 60.2102C112.397 60.1641 112.368 60.1222 112.331 60.0869C112.295 60.0516 112.252 60.0236 112.204 60.0045C112.156 59.9854 112.105 59.9755 112.054 59.9755C112.002 59.9755 111.951 59.9854 111.903 60.0045C111.856 60.0236 111.812 60.0516 111.776 60.0869C111.74 60.1222 111.711 60.1641 111.691 60.2102C111.671 60.2563 111.661 60.3057 111.661 60.3557L111.661 60.3554ZM83.2004 60.3554V61.6854H83.9856V60.3554C83.9864 60.3049 83.9769 60.2549 83.9575 60.2081C83.9382 60.1613 83.9094 60.1187 83.8729 60.0827C83.8364 60.0468 83.7928 60.0182 83.7448 59.9988C83.6968 59.9793 83.6452 59.9692 83.5931 59.9692C83.541 59.9692 83.4895 59.9793 83.4414 59.9988C83.3934 60.0182 83.3498 60.0468 83.3133 60.0827C83.2768 60.1187 83.248 60.1613 83.2287 60.2081C83.2093 60.2549 83.1998 60.3049 83.2007 60.3554H83.2004ZM80.3542 60.3554V61.6854H81.1392V60.3554C81.1392 60.3055 81.1291 60.2561 81.1093 60.21C81.0896 60.1639 81.0607 60.122 81.0242 60.0867C80.9878 60.0514 80.9445 60.0234 80.8969 60.0043C80.8493 59.9853 80.7982 59.9754 80.7467 59.9754C80.6952 59.9754 80.6441 59.9853 80.5965 60.0043C80.5489 60.0234 80.5056 60.0514 80.4692 60.0867C80.4327 60.122 80.4038 60.1639 80.3841 60.21C80.3644 60.2561 80.3542 60.3055 80.3542 60.3554ZM88.8927 60.3554V61.6854H89.6774V60.3554C89.6774 60.2546 89.6361 60.158 89.5625 60.0867C89.4889 60.0155 89.3891 59.9755 89.285 59.9755C89.1809 59.9755 89.0811 60.0155 89.0075 60.0867C88.9339 60.158 88.8925 60.2546 88.8925 60.3554H88.8927ZM94.5849 60.3554V61.6851H95.3699V60.3551C95.3699 60.2543 95.3286 60.1576 95.2549 60.0863C95.1813 60.0151 95.0815 59.975 94.9773 59.975C94.8732 59.975 94.7733 60.0151 94.6997 60.0863C94.6261 60.1576 94.5847 60.2543 94.5847 60.3551L94.5849 60.3554ZM108.815 60.3554V61.6854H109.6V60.3554C109.6 60.2546 109.559 60.1579 109.485 60.0866C109.412 60.0154 109.312 59.9753 109.208 59.9753C109.104 59.9753 109.004 60.0154 108.93 60.0866C108.856 60.1579 108.815 60.2546 108.815 60.3554H108.815ZM123.439 59.9749C123.387 59.975 123.336 59.9848 123.289 60.004C123.241 60.0232 123.198 60.0512 123.161 60.0866C123.125 60.1219 123.096 60.1639 123.076 60.2101C123.056 60.2562 123.046 60.3057 123.046 60.3557V61.6854H123.831V60.3554C123.831 60.2546 123.79 60.1579 123.716 60.0866C123.643 60.0153 123.543 59.9751 123.439 59.9749ZM126.285 59.9749C126.233 59.9749 126.182 59.9848 126.135 60.0039C126.087 60.023 126.044 60.051 126.007 60.0863C125.971 60.1216 125.942 60.1635 125.922 60.2096C125.903 60.2557 125.892 60.3052 125.893 60.3551V61.6854H126.678V60.3554C126.678 60.3054 126.668 60.2559 126.648 60.2098C126.628 60.1636 126.599 60.1217 126.563 60.0864C126.526 60.0511 126.483 60.0231 126.435 60.004C126.388 59.9849 126.336 59.9752 126.285 59.9752V59.9749ZM129.131 59.9749C129.079 59.975 129.028 59.9848 128.981 60.0039C128.933 60.0231 128.89 60.0511 128.853 60.0864C128.817 60.1218 128.788 60.1637 128.768 60.2098C128.749 60.256 128.739 60.3054 128.739 60.3554V61.6851H129.524V60.3551C129.524 60.3052 129.513 60.2558 129.494 60.2097C129.474 60.1636 129.445 60.1217 129.409 60.0864C129.372 60.0511 129.329 60.0232 129.281 60.0041C129.234 59.985 129.183 59.9752 129.131 59.9752V59.9749ZM131.977 59.9749C131.873 59.975 131.773 60.0151 131.7 60.0864C131.626 60.1577 131.585 60.2543 131.585 60.3551V61.6851H132.37V60.3554C132.37 60.2546 132.328 60.158 132.255 60.0867C132.181 60.0154 132.081 59.9753 131.977 59.9752V59.9749ZM103.123 60.3551V61.6851H103.909V60.3551C103.909 60.2543 103.867 60.1576 103.794 60.0863C103.72 60.0151 103.62 59.975 103.516 59.975C103.412 59.975 103.312 60.0151 103.238 60.0863C103.165 60.1576 103.123 60.2543 103.123 60.3551H103.123ZM100.277 60.3551V61.6851H101.062V60.3554C101.062 60.2546 101.021 60.1579 100.947 60.0867C100.874 60.0154 100.774 59.9754 100.67 59.9754C100.566 59.9754 100.466 60.0154 100.392 60.0867C100.319 60.1579 100.277 60.2546 100.277 60.3554V60.3551ZM97.4307 60.3551V61.6851H98.2165V60.3554C98.2148 60.2555 98.1727 60.1603 98.0991 60.0903C98.0256 60.0203 97.9266 59.981 97.8234 59.981C97.7203 59.981 97.6212 60.0203 97.5477 60.0903C97.4742 60.1603 97.432 60.2555 97.4303 60.3554L97.4307 60.3551Z" fill="#423EAD"/>
<path d="M222.15 81.7318H167.533C166.229 81.7318 165.172 82.7552 165.172 84.0176V119.987C165.172 121.25 166.229 122.273 167.533 122.273H222.15C223.454 122.273 224.512 121.25 224.512 119.987V84.0176C224.512 82.7552 223.454 81.7318 222.15 81.7318Z" fill="#E9EDF7"/>
<path d="M170.062 87.614C170.894 87.614 171.568 86.9611 171.568 86.1558C171.568 85.3504 170.894 84.6975 170.062 84.6975C169.23 84.6975 168.555 85.3504 168.555 86.1558C168.555 86.9611 169.23 87.614 170.062 87.614Z" fill="#FCBA06"/>
<path d="M173.071 86.1558C173.071 85.8674 173.159 85.5854 173.325 85.3456C173.49 85.1058 173.725 84.9189 174.001 84.8085C174.276 84.6981 174.579 84.6693 174.871 84.7255C175.163 84.7818 175.432 84.9207 175.642 85.1246C175.853 85.3286 175.997 85.5884 176.055 85.8713C176.113 86.1541 176.083 86.4474 175.969 86.7138C175.855 86.9803 175.662 87.208 175.414 87.3683C175.166 87.5285 174.875 87.614 174.577 87.614C174.178 87.614 173.795 87.4604 173.512 87.1869C173.23 86.9134 173.071 86.5425 173.071 86.1558Z" fill="#5652CC"/>
<path d="M177.586 86.1557C177.586 85.8673 177.675 85.5854 177.84 85.3456C178.006 85.1058 178.241 84.9189 178.516 84.8086C178.791 84.6982 179.094 84.6693 179.387 84.7256C179.679 84.7819 179.947 84.9207 180.158 85.1247C180.369 85.3286 180.512 85.5884 180.57 85.8712C180.628 86.1541 180.598 86.4473 180.484 86.7137C180.37 86.9802 180.177 87.2079 179.93 87.3681C179.682 87.5283 179.391 87.6139 179.093 87.6139C178.693 87.6139 178.31 87.4602 178.027 87.1868C177.745 86.9133 177.586 86.5424 177.586 86.1557Z" fill="#BBC0E6"/>
<path d="M213.647 99.4015H182.414V100.703H213.647V99.4015Z" fill="#DBE0F6"/>
<path d="M173.144 90.4107H172.365C172.241 90.4107 172.121 90.3629 172.034 90.2778C171.946 90.1927 171.896 90.0773 171.896 89.9569C171.896 89.8366 171.946 89.7212 172.034 89.6361C172.121 89.551 172.241 89.5032 172.365 89.5032H173.144C173.268 89.5032 173.388 89.551 173.476 89.6361C173.564 89.7212 173.613 89.8366 173.613 89.9569C173.613 90.0773 173.564 90.1927 173.476 90.2778C173.388 90.3629 173.268 90.4107 173.144 90.4107Z" fill="#423EAD"/>
<path d="M208.804 90.4107H176.83C176.706 90.4107 176.587 90.3629 176.499 90.2778C176.411 90.1927 176.362 90.0773 176.362 89.9569C176.362 89.8366 176.411 89.7212 176.499 89.6361C176.587 89.551 176.706 89.5032 176.83 89.5032H208.804C208.928 89.5032 209.048 89.551 209.136 89.6361C209.224 89.7212 209.273 89.8366 209.273 89.9569C209.273 90.0773 209.224 90.1927 209.136 90.2778C209.048 90.3629 208.928 90.4107 208.804 90.4107Z" fill="#807DF9"/>
<path d="M184.106 93.0972H183.327C183.203 93.0972 183.083 93.0494 182.995 92.9643C182.908 92.8792 182.858 92.7638 182.858 92.6434C182.858 92.5231 182.908 92.4077 182.995 92.3226C183.083 92.2375 183.203 92.1897 183.327 92.1897H184.106C184.23 92.1897 184.35 92.2375 184.437 92.3226C184.525 92.4077 184.575 92.5231 184.575 92.6434C184.575 92.7638 184.525 92.8792 184.437 92.9643C184.35 93.0494 184.23 93.0972 184.106 93.0972Z" fill="#423EAD"/>
<path d="M209.016 93.0972H187.791C187.667 93.0972 187.548 93.0494 187.46 92.9643C187.372 92.8792 187.323 92.7638 187.323 92.6434C187.323 92.5231 187.372 92.4077 187.46 92.3226C187.548 92.2375 187.667 92.1897 187.791 92.1897H209.016C209.141 92.1897 209.26 92.2375 209.348 92.3226C209.436 92.4077 209.485 92.5231 209.485 92.6434C209.485 92.7638 209.436 92.8792 209.348 92.9643C209.26 93.0494 209.141 93.0972 209.016 93.0972Z" fill="#ED9F00"/>
<path d="M184.106 95.7836H183.327C183.203 95.7836 183.083 95.7358 182.995 95.6507C182.908 95.5656 182.858 95.4502 182.858 95.3298C182.858 95.2095 182.908 95.0941 182.995 95.009C183.083 94.9239 183.203 94.8761 183.327 94.8761H184.106C184.23 94.8761 184.35 94.9239 184.437 95.009C184.525 95.0941 184.575 95.2095 184.575 95.3298C184.575 95.4502 184.525 95.5656 184.437 95.6507C184.35 95.7358 184.23 95.7836 184.106 95.7836Z" fill="#423EAD"/>
<path d="M216.152 95.7836H187.791C187.667 95.7836 187.548 95.7358 187.46 95.6507C187.372 95.5656 187.323 95.4502 187.323 95.3298C187.323 95.2095 187.372 95.0941 187.46 95.009C187.548 94.9239 187.667 94.8761 187.791 94.8761H216.152C216.277 94.8761 216.396 94.9239 216.484 95.009C216.572 95.0941 216.621 95.2095 216.621 95.3298C216.621 95.4502 216.572 95.5656 216.484 95.6507C216.396 95.7358 216.277 95.7836 216.152 95.7836Z" fill="#423EAD"/>
<path d="M184.106 109.542H183.327C183.203 109.542 183.083 109.494 182.995 109.409C182.908 109.324 182.858 109.209 182.858 109.088C182.858 108.968 182.908 108.853 182.995 108.767C183.083 108.682 183.203 108.635 183.327 108.635H184.106C184.23 108.635 184.35 108.682 184.437 108.767C184.525 108.853 184.575 108.968 184.575 109.088C184.575 109.209 184.525 109.324 184.437 109.409C184.35 109.494 184.23 109.542 184.106 109.542Z" fill="#423EAD"/>
<path d="M203.382 109.542H187.791C187.667 109.542 187.548 109.494 187.46 109.409C187.372 109.324 187.323 109.209 187.323 109.088C187.323 108.968 187.372 108.853 187.46 108.767C187.548 108.682 187.667 108.635 187.791 108.635H203.382C203.506 108.635 203.625 108.682 203.713 108.767C203.801 108.853 203.851 108.968 203.851 109.088C203.851 109.209 203.801 109.324 203.713 109.409C203.625 109.494 203.506 109.542 203.382 109.542Z" fill="#6B67E9"/>
<path d="M184.106 112.228H183.327C183.203 112.228 183.083 112.181 182.995 112.096C182.908 112.01 182.858 111.895 182.858 111.775C182.858 111.654 182.908 111.539 182.995 111.454C183.083 111.369 183.203 111.321 183.327 111.321H184.106C184.23 111.321 184.35 111.369 184.437 111.454C184.525 111.539 184.575 111.654 184.575 111.775C184.575 111.895 184.525 112.01 184.437 112.096C184.35 112.181 184.23 112.228 184.106 112.228Z" fill="#423EAD"/>
<path d="M206.514 112.228H187.791C187.667 112.228 187.548 112.181 187.46 112.096C187.372 112.01 187.323 111.895 187.323 111.775C187.323 111.654 187.372 111.539 187.46 111.454C187.548 111.369 187.667 111.321 187.791 111.321H206.514C206.638 111.321 206.757 111.369 206.845 111.454C206.933 111.539 206.983 111.654 206.983 111.775C206.983 111.895 206.933 112.01 206.845 112.096C206.757 112.181 206.638 112.228 206.514 112.228Z" fill="#807DFB"/>
<path d="M178.728 98.4701H177.949C177.824 98.4701 177.705 98.4223 177.617 98.3372C177.529 98.2521 177.48 98.1367 177.48 98.0163C177.48 97.896 177.529 97.7806 177.617 97.6955C177.705 97.6104 177.824 97.5626 177.949 97.5626H178.728C178.852 97.5626 178.972 97.6104 179.06 97.6955C179.147 97.7806 179.197 97.896 179.197 98.0163C179.197 98.1367 179.147 98.2521 179.06 98.3372C178.972 98.4223 178.852 98.4701 178.728 98.4701Z" fill="#423EAD"/>
<path d="M186.046 98.4701H182.414C182.289 98.4701 182.17 98.4223 182.082 98.3372C181.994 98.2521 181.945 98.1367 181.945 98.0163C181.945 97.896 181.994 97.7806 182.082 97.6955C182.17 97.6104 182.289 97.5626 182.414 97.5626H186.046C186.17 97.5626 186.289 97.6104 186.377 97.6955C186.465 97.7806 186.515 97.896 186.515 98.0163C186.515 98.1367 186.465 98.2521 186.377 98.3372C186.289 98.4223 186.17 98.4701 186.046 98.4701Z" fill="#423EAD"/>
<path d="M178.728 101.157H177.949C177.824 101.157 177.705 101.109 177.617 101.024C177.529 100.939 177.48 100.823 177.48 100.703C177.48 100.582 177.529 100.467 177.617 100.382C177.705 100.297 177.824 100.249 177.949 100.249H178.728C178.852 100.249 178.972 100.297 179.06 100.382C179.147 100.467 179.197 100.582 179.197 100.703C179.197 100.823 179.147 100.939 179.06 101.024C178.972 101.109 178.852 101.157 178.728 101.157Z" fill="#423EAD"/>
<path d="M204.911 101.157H182.414C182.289 101.157 182.17 101.109 182.082 101.024C181.994 100.939 181.945 100.823 181.945 100.703C181.945 100.582 181.994 100.467 182.082 100.382C182.17 100.297 182.289 100.249 182.414 100.249H204.911C205.035 100.249 205.155 100.297 205.243 100.382C205.331 100.467 205.38 100.582 205.38 100.703C205.38 100.823 205.331 100.939 205.243 101.024C205.155 101.109 205.035 101.157 204.911 101.157Z" fill="#423EAD"/>
<path d="M213.647 101.157H206.9C206.776 101.157 206.657 101.109 206.569 101.024C206.481 100.939 206.431 100.823 206.431 100.703C206.431 100.582 206.481 100.467 206.569 100.382C206.657 100.297 206.776 100.249 206.9 100.249H213.647C213.771 100.249 213.89 100.297 213.978 100.382C214.066 100.467 214.116 100.582 214.116 100.703C214.116 100.823 214.066 100.939 213.978 101.024C213.89 101.109 213.771 101.157 213.647 101.157Z" fill="#423EAD"/>
<path d="M178.728 103.871H177.949C177.824 103.871 177.705 103.823 177.617 103.738C177.529 103.653 177.48 103.538 177.48 103.417C177.48 103.297 177.529 103.182 177.617 103.097C177.705 103.011 177.824 102.964 177.949 102.964H178.728C178.852 102.964 178.972 103.011 179.06 103.097C179.147 103.182 179.197 103.297 179.197 103.417C179.197 103.538 179.147 103.653 179.06 103.738C178.972 103.823 178.852 103.871 178.728 103.871Z" fill="#423EAD"/>
<path d="M191.773 103.871H182.414C182.289 103.871 182.17 103.823 182.082 103.738C181.994 103.653 181.945 103.538 181.945 103.417C181.945 103.297 181.994 103.182 182.082 103.097C182.17 103.011 182.289 102.964 182.414 102.964H191.773C191.897 102.964 192.017 103.011 192.104 103.097C192.192 103.182 192.242 103.297 192.242 103.417C192.242 103.538 192.192 103.653 192.104 103.738C192.017 103.823 191.897 103.871 191.773 103.871Z" fill="#423EAD"/>
<path d="M178.728 106.586H177.949C177.824 106.586 177.705 106.538 177.617 106.453C177.529 106.368 177.48 106.252 177.48 106.132C177.48 106.012 177.529 105.896 177.617 105.811C177.705 105.726 177.824 105.678 177.949 105.678H178.728C178.852 105.678 178.972 105.726 179.06 105.811C179.147 105.896 179.197 106.012 179.197 106.132C179.197 106.252 179.147 106.368 179.06 106.453C178.972 106.538 178.852 106.586 178.728 106.586Z" fill="#423EAD"/>
<path d="M211.052 106.586H182.414C182.289 106.586 182.17 106.538 182.082 106.453C181.994 106.368 181.945 106.252 181.945 106.132C181.945 106.012 181.994 105.896 182.082 105.811C182.17 105.726 182.289 105.678 182.414 105.678H211.052C211.176 105.678 211.295 105.726 211.383 105.811C211.471 105.896 211.521 106.012 211.521 106.132C211.521 106.252 211.471 106.368 211.383 106.453C211.295 106.538 211.176 106.586 211.052 106.586Z" fill="#423EAD"/>
<path d="M161.19 114.065L156.771 109.386C156.454 109.05 156.068 108.782 155.637 108.598C155.207 108.415 154.742 108.32 154.272 108.32H147.149C146.507 108.32 145.892 108.567 145.438 109.006C144.984 109.445 144.729 110.041 144.729 110.662V141.066C144.729 141.544 144.926 142.003 145.275 142.341C145.625 142.68 146.099 142.87 146.593 142.87H190.49C190.735 142.87 190.977 142.823 191.203 142.732C191.43 142.642 191.635 142.509 191.808 142.341C191.981 142.174 192.118 141.975 192.212 141.756C192.306 141.537 192.354 141.303 192.354 141.066V116.407C192.354 115.786 192.099 115.19 191.645 114.751C191.192 114.312 190.576 114.065 189.935 114.065H161.19Z" fill="#FAB80A"/>
<path d="M179.481 122.288H158.696V134.724H179.481V122.288Z" fill="#FFD03E"/>
<path d="M166.578 132.631C166.498 132.631 166.42 132.611 166.35 132.573C166.28 132.535 166.222 132.481 166.18 132.415C166.138 132.35 166.114 132.274 166.11 132.197C166.107 132.12 166.123 132.043 166.159 131.974L169.951 124.632C170.007 124.525 170.104 124.443 170.222 124.405C170.34 124.367 170.469 124.376 170.58 124.429C170.691 124.483 170.776 124.578 170.815 124.692C170.854 124.806 170.845 124.931 170.789 125.038L166.998 132.38C166.959 132.455 166.899 132.519 166.825 132.563C166.751 132.607 166.665 132.631 166.578 132.631Z" fill="white"/>
<path d="M164.927 131.343C164.832 131.343 164.74 131.315 164.662 131.263L161.144 128.921C161.081 128.879 161.03 128.823 160.995 128.758C160.96 128.693 160.941 128.62 160.941 128.547C160.941 128.473 160.96 128.401 160.995 128.336C161.03 128.271 161.081 128.215 161.144 128.173L164.662 125.83C164.764 125.766 164.888 125.742 165.008 125.765C165.128 125.788 165.234 125.856 165.304 125.953C165.373 126.051 165.4 126.171 165.379 126.287C165.359 126.404 165.292 126.508 165.193 126.578L162.236 128.547L165.193 130.516C165.275 130.571 165.337 130.65 165.37 130.741C165.403 130.833 165.404 130.932 165.374 131.024C165.345 131.117 165.285 131.198 165.205 131.255C165.124 131.312 165.027 131.343 164.927 131.343H164.927Z" fill="white"/>
<path d="M172.156 131.343C172.056 131.343 171.959 131.312 171.878 131.255C171.797 131.198 171.738 131.117 171.708 131.024C171.678 130.932 171.68 130.833 171.713 130.741C171.745 130.65 171.808 130.571 171.89 130.516L174.847 128.547L171.89 126.578C171.791 126.508 171.724 126.404 171.703 126.287C171.683 126.171 171.71 126.051 171.779 125.953C171.848 125.856 171.954 125.788 172.074 125.765C172.194 125.742 172.319 125.766 172.421 125.83L175.939 128.173C176.002 128.215 176.053 128.271 176.088 128.336C176.124 128.401 176.142 128.473 176.142 128.547C176.142 128.62 176.124 128.693 176.088 128.758C176.053 128.823 176.002 128.879 175.939 128.921L172.421 131.263C172.343 131.315 172.251 131.343 172.156 131.343Z" fill="white"/>
<path d="M137.46 141.002H124.051V155.488H137.46V141.002Z" fill="#131147"/>
<path d="M119.612 167.971C119.612 167.971 116.111 165.836 114.124 164.918C112.385 168.085 111.175 171.727 110.578 174.144C109.395 178.934 117.375 188.741 117.375 188.741C117.375 188.741 118.481 189.55 120.274 190.646L115.162 175.383C115.162 175.383 118.646 169.692 119.612 167.971Z" fill="#F7D3C9"/>
<path d="M140.513 167.971C140.513 167.971 144.014 165.836 146.001 164.918C147.741 168.085 148.95 171.727 149.547 174.144C150.73 178.934 142.749 188.741 142.749 188.741C142.749 188.741 141.644 189.55 139.851 190.646L144.963 175.383C144.963 175.383 141.479 169.692 140.513 167.971Z" fill="#F7D3C9"/>
<path d="M146.26 165.397C144.845 162.082 142.413 158.196 140.83 157.102C137.583 154.857 134.876 155.231 130.062 155.38C125.247 155.231 122.541 154.856 119.294 157.102C117.71 158.196 115.278 162.082 113.863 165.397C115.35 166.598 117.583 167.909 119.227 168.641C121.495 173.666 120.05 186.897 119.235 191.343C119.235 191.343 121.113 194.919 130.062 194.919C139.01 194.919 140.888 191.343 140.888 191.343C140.074 186.896 138.629 173.666 140.897 168.641C142.541 167.909 144.774 166.598 146.26 165.397Z" fill="#FCBA06"/>
<path d="M132.222 151.567H127.903C127.718 153.831 126.829 155.275 125.166 155.275C123.06 160.014 128.06 162.695 130.062 162.695C132.064 162.695 137.719 161.512 134.959 155.275C133.296 155.275 132.407 153.831 132.222 151.567Z" fill="#F0C9C0"/>
<path d="M134.917 136.244C133.835 135.377 132.097 135.104 130.063 135.104C128.028 135.104 126.29 135.377 125.209 136.244C123.189 137.862 122.657 142.291 123.447 145.273C125.133 151.632 126.996 153.252 130.063 153.252C133.13 153.252 134.993 151.632 136.679 145.273C137.47 142.291 136.937 137.862 134.917 136.244Z" fill="#F7D3C9"/>
<path d="M124.155 143.863C124.067 143.021 123.537 142.384 122.971 142.439C122.405 142.494 122.017 143.222 122.105 144.064C122.194 144.905 122.724 145.543 123.29 145.488C123.856 145.433 124.244 144.705 124.155 143.863Z" fill="#F0CCC0"/>
<path d="M111.361 174.388L114.745 194.64H145.379L148.762 174.388C148.795 174.192 148.783 173.992 148.728 173.801C148.673 173.61 148.576 173.433 148.443 173.282C148.31 173.131 148.145 173.01 147.959 172.927C147.774 172.844 147.571 172.801 147.366 172.801H112.757C112.552 172.801 112.35 172.844 112.164 172.927C111.978 173.01 111.813 173.132 111.68 173.282C111.548 173.433 111.451 173.61 111.395 173.801C111.34 173.992 111.329 174.192 111.361 174.388Z" fill="#E9EDF7"/>
<path d="M131.156 182.55H128.947L127.843 183.838L128.947 185.127H131.156L132.26 183.838L131.156 182.55Z" fill="#CED3F8"/>
<path d="M146.136 199.817C146.516 200.033 147.049 200.249 147.43 200.047C149.122 200.987 149.358 203.233 147.134 203.701C146.814 203.487 146.413 203.356 145.857 203.356C145.501 202.257 146.136 199.817 146.136 199.817Z" fill="#F0CCC0"/>
<path d="M146.334 199.267C133.465 194.112 124.903 189.98 116.622 187.06C108.058 184.04 100.128 182.987 99.239 186.147C98.2153 189.785 104.742 194.788 115.372 198.462C123.607 201.307 133.542 201.937 145.858 203.892C145.857 202.509 146.334 199.267 146.334 199.267Z" fill="#423EAF"/>
<path d="M161.478 202.933C161.284 201.286 160.326 200.133 158.25 199.303H158.899C159.937 199.303 162.338 200.806 162.338 202.984C162.338 205.162 159.937 205.525 158.25 205.525C159.743 205.41 161.638 204.284 161.478 202.933Z" fill="#362E94"/>
<path d="M147.135 203.701C148.973 202.936 148.866 201.365 147.43 200.048C148.134 199.74 148.995 199.303 150.594 199.303H158.251C160.327 200.133 161.284 201.286 161.478 202.933C161.638 204.284 159.744 205.41 158.251 205.525C156.563 205.525 151.024 204.903 149.362 204.54C148.066 204.258 147.625 203.972 147.135 203.701Z" fill="#807DFB"/>
<path d="M150.415 203.411C150.383 203.411 150.352 203.402 150.326 203.384C150.3 203.366 150.28 203.341 150.269 203.312C150.258 203.283 150.256 203.251 150.264 203.221C150.272 203.192 150.29 203.165 150.314 203.145C150.873 202.684 150.775 201.553 150.32 200.924C150.308 200.907 150.3 200.889 150.296 200.87C150.291 200.85 150.291 200.83 150.295 200.811C150.298 200.791 150.306 200.772 150.317 200.756C150.328 200.739 150.342 200.724 150.359 200.713C150.376 200.702 150.395 200.694 150.415 200.689C150.435 200.685 150.456 200.685 150.476 200.688C150.496 200.692 150.515 200.699 150.533 200.71C150.55 200.72 150.565 200.734 150.577 200.751C151.063 201.424 151.276 202.749 150.517 203.375C150.488 203.398 150.453 203.411 150.415 203.411Z" fill="white"/>
<path d="M151.297 203.615C151.264 203.615 151.231 203.605 151.205 203.586C151.178 203.568 151.158 203.541 151.148 203.511C151.137 203.481 151.137 203.448 151.147 203.418C151.157 203.388 151.177 203.361 151.203 203.342C151.362 203.223 151.493 203.073 151.589 202.902C151.685 202.731 151.743 202.542 151.759 202.348C151.831 201.755 151.619 201.159 151.372 200.878C151.346 200.847 151.333 200.808 151.336 200.768C151.339 200.728 151.359 200.691 151.391 200.665C151.422 200.639 151.463 200.626 151.505 200.629C151.546 200.633 151.584 200.652 151.611 200.682C151.954 201.074 152.142 201.774 152.069 202.383C152.049 202.618 151.978 202.847 151.861 203.054C151.744 203.261 151.583 203.442 151.389 203.585C151.362 203.605 151.33 203.615 151.297 203.615Z" fill="white"/>
<path d="M152.716 203.748C152.683 203.748 152.652 203.738 152.625 203.719C152.599 203.701 152.579 203.674 152.568 203.644C152.558 203.614 152.558 203.582 152.568 203.551C152.577 203.521 152.597 203.495 152.623 203.476C152.779 203.356 152.908 203.205 152.999 203.034C153.091 202.862 153.145 202.674 153.156 202.481C153.216 201.894 152.994 201.187 152.628 200.799C152.6 200.769 152.586 200.73 152.588 200.69C152.59 200.65 152.608 200.612 152.639 200.585C152.669 200.558 152.71 200.544 152.751 200.546C152.793 200.547 152.832 200.565 152.86 200.595C153.286 201.048 153.536 201.836 153.468 202.511C153.415 203.03 153.188 203.447 152.809 203.719C152.782 203.738 152.75 203.748 152.716 203.748Z" fill="white"/>
<path d="M115.078 199.817C114.698 200.033 114.165 200.249 113.784 200.047C112.092 200.987 111.856 203.233 114.08 203.701C114.399 203.487 114.801 203.356 115.356 203.356C115.713 202.257 115.078 199.817 115.078 199.817Z" fill="#F0CCC0"/>
<path d="M114.88 199.267C127.748 194.112 136.312 189.98 144.592 187.06C153.157 184.04 161.085 182.987 161.975 186.147C162.999 189.785 156.471 194.788 145.841 198.462C137.607 201.307 127.672 201.937 115.356 203.892C115.356 202.509 114.88 199.267 114.88 199.267Z" fill="#5652CC"/>
<path d="M99.7353 202.933C99.9301 201.286 100.887 200.133 102.964 199.303H102.314C101.277 199.303 98.8757 200.806 98.8757 202.984C98.8757 205.162 101.277 205.525 102.964 205.525C101.471 205.41 99.5754 204.284 99.7353 202.933Z" fill="#362E94"/>
<path d="M114.08 203.701C112.241 202.936 112.348 201.365 113.784 200.048C113.08 199.74 112.219 199.303 110.619 199.303H102.963C100.887 200.133 99.9299 201.286 99.7351 202.933C99.5752 204.284 101.471 205.41 102.963 205.525C104.65 205.525 110.189 204.903 111.852 204.54C113.148 204.258 113.588 203.972 114.08 203.701Z" fill="#807DFB"/>
<path d="M110.798 203.411C110.761 203.411 110.725 203.398 110.697 203.375C109.937 202.749 110.15 201.425 110.637 200.751C110.648 200.734 110.663 200.719 110.681 200.708C110.698 200.696 110.717 200.688 110.738 200.685C110.759 200.681 110.78 200.681 110.8 200.685C110.821 200.689 110.84 200.697 110.857 200.709C110.875 200.721 110.889 200.735 110.9 200.753C110.911 200.77 110.919 200.789 110.922 200.809C110.926 200.829 110.925 200.85 110.92 200.869C110.915 200.889 110.906 200.908 110.893 200.924C110.439 201.553 110.34 202.684 110.9 203.145C110.924 203.165 110.942 203.192 110.95 203.222C110.958 203.251 110.956 203.283 110.945 203.312C110.934 203.341 110.914 203.366 110.888 203.384C110.862 203.402 110.83 203.411 110.798 203.411Z" fill="white"/>
<path d="M109.917 203.615C109.883 203.615 109.851 203.604 109.824 203.585C109.63 203.442 109.469 203.261 109.352 203.054C109.235 202.847 109.164 202.619 109.144 202.384C109.071 201.774 109.26 201.075 109.603 200.682C109.616 200.667 109.632 200.654 109.651 200.645C109.669 200.636 109.689 200.631 109.709 200.629C109.73 200.627 109.75 200.63 109.77 200.636C109.789 200.642 109.808 200.651 109.823 200.664C109.839 200.677 109.852 200.693 109.861 200.711C109.871 200.728 109.876 200.748 109.878 200.767C109.88 200.787 109.877 200.807 109.871 200.826C109.865 200.845 109.855 200.862 109.842 200.878C109.595 201.159 109.383 201.755 109.454 202.349C109.471 202.542 109.529 202.731 109.625 202.902C109.72 203.073 109.851 203.222 110.01 203.342C110.036 203.361 110.055 203.387 110.065 203.418C110.075 203.448 110.075 203.48 110.064 203.51C110.054 203.541 110.034 203.567 110.008 203.585C109.981 203.604 109.949 203.614 109.917 203.614V203.615Z" fill="white"/>
<path d="M108.497 203.748C108.464 203.748 108.431 203.737 108.404 203.718C108.026 203.446 107.799 203.029 107.746 202.51C107.678 201.835 107.928 201.047 108.354 200.594C108.368 200.579 108.384 200.567 108.403 200.559C108.422 200.551 108.442 200.546 108.462 200.545C108.483 200.544 108.503 200.547 108.523 200.554C108.542 200.56 108.56 200.571 108.575 200.584C108.59 200.598 108.602 200.614 108.611 200.632C108.62 200.65 108.625 200.669 108.626 200.689C108.627 200.709 108.623 200.729 108.616 200.747C108.609 200.766 108.599 200.783 108.585 200.798C108.22 201.186 107.998 201.894 108.057 202.481C108.069 202.674 108.122 202.862 108.214 203.033C108.306 203.204 108.434 203.355 108.59 203.475C108.617 203.494 108.636 203.52 108.646 203.551C108.656 203.581 108.655 203.614 108.645 203.644C108.634 203.674 108.615 203.7 108.588 203.719C108.561 203.737 108.529 203.747 108.497 203.747L108.497 203.748Z" fill="white"/>
<path d="M135.969 143.863C136.056 143.021 136.587 142.384 137.153 142.438C137.719 142.493 138.107 143.222 138.019 144.064C137.931 144.905 137.4 145.543 136.834 145.488C136.268 145.433 135.881 144.705 135.969 143.863Z" fill="#F0CCC0"/>
<path d="M125.644 139.211C124.891 141.452 124.024 152.432 125.778 157.352C123.218 156.943 121.385 156.009 121.013 154.719C119.976 151.114 118.717 132.9 129.903 132.9C141.088 132.9 140.654 145.672 138.988 154.719C138.521 157.253 135.777 157.763 134.373 157.628C135.498 153.713 136.602 145.093 136.762 143.568C130.683 144.604 125.644 139.211 125.644 139.211Z" fill="#362E94"/>
<defs>
<linearGradient id="paint0_linear" x1="24.2732" y1="117.66" x2="227" y2="117.66" gradientUnits="userSpaceOnUse">
<stop stop-color="#F5786D"/>
<stop offset="0.166" stop-color="#F07674"/>
<stop offset="0.407" stop-color="#E37287"/>
<stop offset="0.695" stop-color="#CE6BA7"/>
<stop offset="1" stop-color="#B363D1"/>
</linearGradient>
</defs>
</svg>
