<svg width="208" height="155" viewBox="0 0 208 155" fill="none" xmlns="http://www.w3.org/2000/svg">
<path d="M16.9365 144.629H192.927C212.649 118.285 202.398 75.6467 169.653 67.827C139.166 60.5465 157.542 5.25127 98.7576 0.17227C73.1871 -2.03693 44.4585 16.9438 54.436 60.4778C60.2229 85.729 20.5305 76.7032 6.86452 102.992C-0.00659227 116.21 1.67456 133.23 16.9365 144.629Z" fill="url(#paint0_linear)"/>
<path d="M65.1781 86.5285C65.0695 86.5285 64.9653 86.4858 64.8885 86.4097C64.8117 86.3336 64.7686 86.2304 64.7686 86.1228V78.8614C64.7686 78.8081 64.7791 78.7554 64.7997 78.7061C64.8203 78.6569 64.8505 78.6122 64.8885 78.5745C64.9265 78.5368 64.9717 78.507 65.0214 78.4866C65.0711 78.4662 65.1243 78.4557 65.1781 78.4557C65.2319 78.4557 65.2852 78.4662 65.3348 78.4866C65.3845 78.507 65.4297 78.5368 65.4677 78.5745C65.5057 78.6122 65.5359 78.6569 65.5565 78.7061C65.5771 78.7554 65.5877 78.8081 65.5877 78.8614V86.1226C65.5877 86.1759 65.5771 86.2287 65.5566 86.2779C65.536 86.3272 65.5058 86.3719 65.4678 86.4096C65.4297 86.4473 65.3846 86.4772 65.3349 86.4976C65.2852 86.518 65.2319 86.5285 65.1781 86.5285Z" fill="white"/>
<path d="M68.8433 82.8978H61.5128C61.4042 82.8978 61.3 82.855 61.2232 82.7789C61.1464 82.7028 61.1033 82.5996 61.1033 82.492C61.1033 82.3844 61.1464 82.2812 61.2232 82.2051C61.3 82.129 61.4042 82.0863 61.5128 82.0863H68.8433C68.9519 82.0863 69.0561 82.129 69.1329 82.2051C69.2097 82.2812 69.2529 82.3844 69.2529 82.492C69.2529 82.5996 69.2097 82.7028 69.1329 82.7789C69.0561 82.855 68.9519 82.8978 68.8433 82.8978Z" fill="white"/>
<path d="M33.637 97.2666C33.61 97.2667 33.5834 97.2614 33.5585 97.2512C33.5336 97.241 33.5109 97.2261 33.4919 97.2072C33.4728 97.1883 33.4577 97.1659 33.4474 97.1412C33.4371 97.1166 33.4319 97.0901 33.4319 97.0635V93.4275C33.4319 93.3736 33.4535 93.322 33.492 93.2839C33.5304 93.2458 33.5826 93.2244 33.637 93.2244C33.6914 93.2244 33.7436 93.2458 33.782 93.2839C33.8205 93.322 33.8421 93.3736 33.8421 93.4275V97.0635C33.8421 97.1173 33.8205 97.169 33.782 97.2071C33.7436 97.2452 33.6914 97.2666 33.637 97.2666Z" fill="white"/>
<path d="M35.4722 95.4487H31.801C31.7741 95.4487 31.7474 95.4434 31.7226 95.4332C31.6977 95.423 31.6751 95.408 31.656 95.3892C31.637 95.3703 31.6219 95.3479 31.6116 95.3232C31.6013 95.2986 31.5959 95.2722 31.5959 95.2455C31.5959 95.2188 31.6013 95.1924 31.6116 95.1677C31.6219 95.1431 31.637 95.1207 31.656 95.1018C31.6751 95.0829 31.6977 95.068 31.7226 95.0578C31.7474 95.0476 31.7741 95.0423 31.801 95.0423H35.4716C35.4985 95.0423 35.5252 95.0476 35.55 95.0578C35.5749 95.068 35.5975 95.0829 35.6166 95.1018C35.6356 95.1207 35.6507 95.1431 35.661 95.1677C35.6713 95.1924 35.6766 95.2188 35.6766 95.2455C35.6766 95.2722 35.6713 95.2986 35.661 95.3232C35.6507 95.3479 35.6356 95.3703 35.6166 95.3892C35.5975 95.408 35.5749 95.423 35.55 95.4332C35.5252 95.4434 35.4985 95.4487 35.4716 95.4487H35.4722Z" fill="white"/>
<path d="M45.9648 101.276C45.6695 101.06 45.4393 100.768 45.299 100.431C45.1383 100.059 45.0578 99.6585 45.0628 99.254C45.0569 98.8449 45.1374 98.4391 45.299 98.0626C45.4404 97.7251 45.6702 97.4313 45.9648 97.2116C46.3313 96.9557 46.7835 96.8501 47.2268 96.9169C47.6701 96.9837 48.0701 97.2176 48.3433 97.5698C48.6986 98.0539 48.8801 98.642 48.8587 99.2401C48.864 99.6458 48.7816 100.048 48.6171 100.419C48.4716 100.756 48.2398 101.05 47.9447 101.27C47.6627 101.479 47.3193 101.589 46.9675 101.585C46.6084 101.592 46.2566 101.484 45.9648 101.276ZM47.6208 100.276C47.7868 99.9614 47.8663 99.6088 47.8513 99.2538C47.8671 98.8941 47.7876 98.5366 47.6208 98.2168C47.5587 98.0983 47.4649 97.9989 47.3496 97.9296C47.2344 97.8602 47.1022 97.8236 46.9673 97.8236C46.8325 97.8236 46.7002 97.8602 46.585 97.9296C46.4698 97.9989 46.376 98.0983 46.3138 98.2168C46.1476 98.5322 46.068 98.8853 46.0831 99.2408C46.0671 99.6001 46.1466 99.9572 46.3138 100.276C46.3755 100.396 46.4691 100.495 46.5844 100.565C46.6997 100.635 46.8322 100.672 46.9673 100.672C47.1024 100.672 47.2349 100.635 47.3502 100.565C47.4655 100.495 47.5592 100.396 47.6208 100.276ZM46.6374 105.531C46.5841 105.491 46.5411 105.439 46.5119 105.379C46.4827 105.319 46.4681 105.253 46.4693 105.186C46.474 105.078 46.5038 104.972 46.5565 104.877L51.6736 97.218C51.7174 97.1485 51.7778 97.0908 51.8495 97.05C51.9211 97.0092 52.0019 96.9865 52.0845 96.9839C52.2152 96.9863 52.3408 97.0343 52.4393 97.1194C52.4925 97.16 52.5355 97.2124 52.5647 97.2723C52.5939 97.3323 52.6085 97.3982 52.6074 97.4647C52.6039 97.5747 52.5693 97.6814 52.5076 97.7728L47.4031 105.432C47.3593 105.501 47.2988 105.559 47.2271 105.6C47.1554 105.641 47.0747 105.663 46.992 105.666C46.8616 105.664 46.7359 105.617 46.6374 105.532V105.531ZM51.2374 105.445C50.9402 105.23 50.7062 104.94 50.5592 104.606C50.3942 104.237 50.3114 103.837 50.3165 103.434C50.3108 103.025 50.3912 102.619 50.5528 102.242C50.6943 101.905 50.9241 101.611 51.2185 101.391C51.512 101.187 51.8619 101.077 52.2206 101.077C52.5793 101.077 52.9293 101.187 53.2227 101.391C53.5154 101.609 53.7434 101.9 53.8829 102.235C54.0405 102.611 54.1188 103.014 54.1129 103.42C54.1182 103.823 54.0354 104.223 53.8702 104.592C53.7235 104.926 53.4919 105.217 53.198 105.436C52.9159 105.645 52.5724 105.755 52.2206 105.751C51.8685 105.755 51.524 105.648 51.2372 105.446L51.2374 105.445ZM52.8696 104.457C53.0183 104.133 53.0947 103.78 53.0936 103.424C53.0926 103.068 53.0142 102.716 52.8636 102.392C52.8059 102.272 52.7149 102.17 52.6014 102.1C52.4879 102.029 52.3564 101.991 52.2221 101.991C52.0861 101.99 51.9524 102.027 51.8367 102.098C51.721 102.169 51.628 102.271 51.5686 102.392C51.4168 102.715 51.3382 103.068 51.3382 103.425C51.3382 103.781 51.4168 104.134 51.5686 104.457C51.629 104.578 51.7223 104.678 51.8379 104.748C51.9535 104.818 52.0867 104.855 52.2221 104.853C52.3567 104.855 52.4891 104.819 52.6037 104.749C52.7183 104.679 52.8105 104.578 52.8694 104.458L52.8696 104.457Z" fill="white"/>
<path d="M19.3725 118.636C19.1854 118.498 19.0395 118.313 18.9503 118.1C18.8482 117.864 18.797 117.609 18.8 117.353C18.7965 117.093 18.8477 116.836 18.9503 116.598C19.04 116.384 19.1858 116.197 19.3725 116.058C19.6051 115.895 19.8919 115.828 20.1731 115.871C20.4543 115.913 20.7081 116.061 20.8815 116.285C21.1071 116.592 21.2224 116.965 21.209 117.344C21.212 117.602 21.1595 117.857 21.055 118.092C20.9627 118.306 20.8157 118.492 20.6285 118.632C20.4496 118.764 20.2317 118.834 20.0087 118.831C19.7809 118.836 19.5578 118.767 19.3725 118.636ZM20.4231 118.002C20.5285 117.802 20.5789 117.578 20.5694 117.353C20.5795 117.125 20.529 116.898 20.4231 116.695C20.3837 116.62 20.3242 116.557 20.2511 116.513C20.178 116.469 20.0941 116.445 20.0086 116.445C19.923 116.445 19.8391 116.469 19.766 116.513C19.6929 116.557 19.6334 116.62 19.594 116.695C19.4887 116.895 19.4383 117.119 19.4479 117.344C19.4377 117.572 19.4881 117.799 19.594 118.002C19.6331 118.077 19.6925 118.14 19.7656 118.185C19.8388 118.229 19.9228 118.252 20.0086 118.252C20.0943 118.252 20.1783 118.229 20.2515 118.185C20.3246 118.14 20.384 118.077 20.4231 118.002ZM19.8003 121.335C19.7664 121.31 19.739 121.277 19.7203 121.239C19.7017 121.201 19.6923 121.159 19.693 121.116C19.6959 121.048 19.7148 120.981 19.7482 120.92L22.9943 116.062C23.022 116.018 23.0603 115.981 23.1058 115.955C23.1513 115.929 23.2025 115.915 23.255 115.913C23.3378 115.914 23.4174 115.945 23.4799 115.998C23.5138 116.024 23.5412 116.057 23.5599 116.095C23.5785 116.133 23.5879 116.175 23.5873 116.217C23.585 116.287 23.5631 116.355 23.5239 116.413L20.2859 121.272C20.2582 121.316 20.2199 121.352 20.1744 121.378C20.1289 121.404 20.0777 121.419 20.0252 121.42C19.9422 121.42 19.8621 121.389 19.7995 121.335H19.8003ZM22.7183 121.281C22.5301 121.144 22.3819 120.961 22.2888 120.749C22.1841 120.514 22.1316 120.26 22.1348 120.004C22.1314 119.745 22.1826 119.488 22.2851 119.249C22.375 119.035 22.5209 118.849 22.7078 118.71C22.8939 118.58 23.1159 118.51 23.3435 118.51C23.5711 118.51 23.7931 118.58 23.9792 118.71C24.1648 118.848 24.3095 119.033 24.3978 119.245C24.4978 119.483 24.5475 119.739 24.5438 119.997C24.5472 120.253 24.4947 120.507 24.3898 120.741C24.2968 120.953 24.1498 121.138 23.9633 121.277C23.7844 121.409 23.5666 121.479 23.3435 121.476C23.1189 121.479 22.8994 121.41 22.7168 121.281H22.7183ZM23.753 120.654C23.8474 120.448 23.8959 120.225 23.8953 119.999C23.8946 119.772 23.8448 119.549 23.7492 119.344C23.7125 119.268 23.6548 119.204 23.5828 119.159C23.5108 119.114 23.4275 119.09 23.3424 119.09C23.2561 119.089 23.1713 119.112 23.0979 119.157C23.0245 119.202 22.9656 119.267 22.9279 119.344C22.8315 119.549 22.7816 119.773 22.7816 119.999C22.7816 120.225 22.8315 120.449 22.9279 120.654C22.9662 120.73 23.0254 120.794 23.0987 120.839C23.172 120.883 23.2565 120.906 23.3424 120.905C23.4277 120.906 23.5116 120.883 23.5842 120.839C23.6567 120.794 23.715 120.73 23.7522 120.654H23.753Z" fill="white"/>
<path d="M58.7286 143.686H0.529415C0.38653 143.693 0.251949 143.755 0.153437 143.858C0.0549237 143.96 0 144.097 0 144.239C0 144.38 0.0549237 144.517 0.153437 144.619C0.251949 144.722 0.38653 144.784 0.529415 144.791H58.7286C58.8043 144.795 58.8799 144.783 58.951 144.757C59.0221 144.731 59.0871 144.691 59.142 144.64C59.197 144.588 59.2407 144.526 59.2706 144.457C59.3005 144.388 59.3159 144.314 59.3159 144.239C59.3159 144.163 59.3005 144.089 59.2706 144.02C59.2407 143.951 59.197 143.889 59.142 143.837C59.0871 143.786 59.0221 143.746 58.951 143.72C58.8799 143.694 58.8043 143.682 58.7286 143.686Z" fill="#9CC4FF"/>
<path d="M41.4725 144.668C36.1956 144.668 31.9549 144.287 31.8969 144.282C31.8656 144.279 31.8351 144.27 31.8072 144.255C31.7794 144.241 31.7547 144.221 31.7346 144.197C31.7144 144.173 31.6993 144.145 31.6899 144.116C31.6806 144.086 31.6773 144.055 31.6802 144.024C31.6877 143.962 31.7189 143.905 31.7674 143.865C31.8159 143.825 31.878 143.805 31.9409 143.809C32.0204 143.816 40.0044 144.534 47.6925 143.991C47.724 143.988 47.7559 143.991 47.7861 144.001C47.8163 144.01 47.8442 144.026 47.8681 144.046C47.8921 144.067 47.9115 144.092 47.9253 144.12C47.9391 144.149 47.947 144.179 47.9485 144.211C47.9508 144.242 47.9468 144.273 47.9369 144.303C47.927 144.332 47.9113 144.36 47.8907 144.383C47.8701 144.407 47.845 144.426 47.8168 144.44C47.7887 144.454 47.758 144.462 47.7266 144.464C45.6078 144.614 43.4657 144.668 41.4725 144.668Z" fill="#9CC4FF"/>
<path d="M207.413 143.686H57.9028C57.8271 143.682 57.7514 143.694 57.6804 143.72C57.6093 143.746 57.5443 143.786 57.4893 143.837C57.4344 143.889 57.3906 143.951 57.3607 144.02C57.3308 144.089 57.3154 144.163 57.3154 144.239C57.3154 144.314 57.3308 144.388 57.3607 144.457C57.3906 144.526 57.4344 144.588 57.4893 144.64C57.5443 144.691 57.6093 144.731 57.6804 144.757C57.7514 144.783 57.8271 144.795 57.9028 144.791H207.413C207.488 144.795 207.564 144.783 207.635 144.757C207.706 144.731 207.771 144.691 207.826 144.64C207.881 144.588 207.925 144.526 207.955 144.457C207.985 144.388 208 144.314 208 144.239C208 144.163 207.985 144.089 207.955 144.02C207.925 143.951 207.881 143.889 207.826 143.837C207.771 143.786 207.706 143.746 207.635 143.72C207.564 143.694 207.488 143.682 207.413 143.686Z" fill="#9CC4FF"/>
<path d="M146.364 81.7258C143.899 78.9996 140.272 77.9803 135.585 78.6975C117.743 81.4256 113.983 95.6569 113.948 95.7982L116.144 96.1303C116.176 96.0027 119.532 83.3878 135.925 80.8812C139.875 80.277 142.745 81.0352 144.701 83.1985C150.58 89.6993 146.11 106.495 146.063 106.663L148.217 107.237C148.417 106.501 153.046 89.1176 146.364 81.7258Z" fill="url(#paint1_linear)"/>
<path d="M148.847 106.55L135.804 83.8174C135.235 82.8264 129.89 84.7728 123.866 88.1649C117.841 91.557 113.419 95.1102 113.987 96.1005L119.111 105.032L120.113 106.778C120.117 107.407 119.257 107.693 115.909 106.438C108.454 103.646 99.7707 102.975 99.7707 102.975C98.8591 103.435 99.1194 104.471 99.1194 104.471C112.581 106.414 125.472 116.118 126.574 118.039L127.03 118.833C127.598 119.824 132.943 117.877 138.967 114.485C144.992 111.093 149.415 107.541 148.847 106.55Z" fill="url(#paint2_linear)"/>
<path d="M97.7893 103.687C97.7893 103.687 94.9652 104.695 94.1862 106.161C93.4073 107.628 94.8325 107.801 95.2145 107.289C95.5966 106.776 96.1438 105.149 97.7893 103.687Z" fill="white"/>
<path d="M157.878 149.592C157.878 150.039 154.432 150.401 150.182 150.401C145.933 150.401 142.487 150.039 142.487 149.592C142.487 149.146 145.933 148.784 150.182 148.784C154.432 148.784 157.878 149.146 157.878 149.592Z" fill="url(#paint3_linear)"/>
<path d="M155.032 147.644V149.582C155.033 150.031 152.226 150.397 148.761 150.4C145.296 150.403 142.488 150.042 142.487 149.593V147.655C142.488 148.104 145.297 148.465 148.761 148.462C152.225 148.459 155.034 148.093 155.032 147.644Z" fill="url(#paint4_linear)"/>
<path d="M144.558 148.255V150.193C144.926 150.236 145.331 150.274 145.77 150.305V148.367C145.33 148.336 144.926 148.298 144.558 148.255Z" fill="#FFE97A"/>
<path d="M143.624 148.119V150.058C143.738 150.079 143.859 150.099 143.987 150.118V148.18C143.859 148.16 143.738 148.14 143.624 148.119Z" fill="#FFE97A"/>
<path d="M142.488 147.663C142.488 147.207 145.295 146.835 148.759 146.829C152.223 146.824 155.033 147.189 155.034 147.644C155.034 148.099 152.227 148.472 148.761 148.477C145.296 148.483 142.489 148.118 142.488 147.663Z" fill="url(#paint5_linear)"/>
<path d="M147.377 147.082C146.668 147.112 146.034 147.165 145.522 147.233C145.108 147.267 144.701 147.363 144.316 147.517C144.231 147.563 144.187 147.61 144.187 147.66C144.187 147.709 144.232 147.757 144.316 147.802C144.695 147.953 145.096 148.046 145.504 148.079C146.013 148.146 146.645 148.197 147.352 148.226C147.795 148.244 148.269 148.254 148.76 148.253C149.236 148.253 149.694 148.242 150.125 148.224C150.834 148.194 151.47 148.142 151.984 148.074C152.403 148.04 152.815 147.944 153.205 147.788C153.289 147.742 153.334 147.694 153.334 147.645C153.334 147.596 153.289 147.548 153.205 147.503C152.821 147.35 152.416 147.256 152.004 147.223C151.492 147.156 150.858 147.106 150.15 147.077C149.711 147.059 149.244 147.05 148.759 147.051C148.277 147.053 147.813 147.063 147.377 147.082ZM152.964 147.647C152.964 147.952 151.082 148.202 148.76 148.205C146.439 148.209 144.558 147.964 144.557 147.659C144.557 147.354 146.437 147.104 148.759 147.101C151.08 147.097 152.963 147.342 152.964 147.647Z" fill="#FE9834"/>
<path d="M78.8696 149.96C78.8696 150.407 75.4243 150.769 71.1744 150.769C66.9245 150.769 63.4792 150.407 63.4792 149.96C63.4792 149.513 66.9245 149.152 71.1744 149.152C75.4243 149.152 78.8696 149.514 78.8696 149.96Z" fill="url(#paint6_linear)"/>
<path d="M76.0249 148.012V149.95C76.0261 150.399 73.2185 150.765 69.7538 150.768C66.289 150.771 63.4806 150.409 63.4795 149.961V148.022C63.4795 148.471 66.2899 148.832 69.7538 148.829C73.2177 148.827 76.0261 148.46 76.0249 148.012Z" fill="url(#paint7_linear)"/>
<path d="M65.55 148.622V150.561C65.9189 150.603 66.323 150.64 66.7626 150.672V148.734C66.3223 148.703 65.9182 148.666 65.55 148.622Z" fill="#FFE97A"/>
<path d="M64.616 148.487V150.425C64.7295 150.446 64.8504 150.466 64.9787 150.486V148.547C64.8507 148.528 64.7298 148.508 64.616 148.487Z" fill="#FFE97A"/>
<path d="M63.4788 148.03C63.4788 147.575 66.2859 147.202 69.7498 147.197C73.2137 147.192 76.0241 147.556 76.0248 148.012C76.0254 148.467 73.2176 148.84 69.7524 148.845C66.2872 148.85 63.48 148.485 63.4788 148.03Z" fill="url(#paint8_linear)"/>
<path d="M68.369 147.449C67.6603 147.48 67.0261 147.532 66.5137 147.601C66.0995 147.635 65.693 147.73 65.3076 147.884C65.2229 147.93 65.1787 147.978 65.1787 148.027C65.1787 148.076 65.2238 148.124 65.3086 148.17C65.6882 148.32 66.0885 148.414 66.4961 148.446C67.0057 148.514 67.6373 148.565 68.3443 148.594C68.788 148.612 69.2613 148.621 69.7529 148.621C70.2284 148.621 70.6865 148.61 71.1175 148.591C71.8262 148.561 72.4626 148.509 72.977 148.441C73.396 148.407 73.8074 148.311 74.1974 148.156C74.2821 148.11 74.3263 148.062 74.3263 148.013C74.3263 147.964 74.2812 147.916 74.1964 147.87C73.8124 147.718 73.4075 147.624 72.9952 147.591C72.4832 147.524 71.8497 147.473 71.1409 147.445C70.7024 147.427 70.2353 147.418 69.7506 147.419C69.2659 147.419 68.8048 147.43 68.369 147.449ZM73.9554 148.014C73.9554 148.319 72.0734 148.569 69.7523 148.573C67.4311 148.576 65.5494 148.331 65.549 148.027C65.5485 147.722 67.4294 147.472 69.7506 147.468C72.0717 147.465 73.955 147.709 73.9554 148.014Z" fill="#FE9834"/>
<path d="M131.962 150.699C136.996 150.699 141.076 150.27 141.076 149.742C141.076 149.213 136.996 148.785 131.962 148.785C126.928 148.785 122.848 149.213 122.848 149.742C122.848 150.27 126.928 150.699 131.962 150.699Z" fill="url(#paint9_linear)"/>
<path d="M135.394 147.782V149.72C135.395 150.168 132.587 150.535 129.122 150.538C125.658 150.541 122.849 150.179 122.848 149.731V147.792C122.849 148.241 125.659 148.602 129.122 148.599C132.586 148.596 135.395 148.23 135.394 147.782Z" fill="url(#paint10_linear)"/>
<path d="M124.918 148.392V150.331C125.287 150.373 125.691 150.41 126.131 150.442V148.504C125.691 148.474 125.287 148.437 124.918 148.392Z" fill="#FFE97A"/>
<path d="M123.985 148.257V150.195C124.098 150.216 124.219 150.236 124.347 150.255V148.317C124.219 148.298 124.098 148.278 123.985 148.257Z" fill="#FFE97A"/>
<path d="M122.848 147.8C122.848 147.345 125.655 146.972 129.119 146.967C132.583 146.962 135.393 147.326 135.394 147.782C135.395 148.237 132.587 148.61 129.122 148.615C125.656 148.62 122.849 148.255 122.848 147.8Z" fill="#F78E28"/>
<path d="M135.394 145.541V147.479C135.395 147.928 132.587 148.294 129.122 148.297C125.658 148.3 122.849 147.939 122.848 147.49V145.552C122.849 146 125.659 146.362 129.122 146.359C132.586 146.356 135.395 145.991 135.394 145.541Z" fill="url(#paint11_linear)"/>
<path d="M124.918 146.152V148.09C125.287 148.133 125.692 148.171 126.131 148.202V146.263C125.691 146.233 125.287 146.196 124.918 146.152Z" fill="#FFE97A"/>
<path d="M123.984 146.016V147.954C124.099 147.975 124.22 147.995 124.347 148.015V146.077C124.219 146.058 124.098 146.037 123.984 146.016Z" fill="#FFE97A"/>
<path d="M122.848 145.56C122.848 145.104 125.655 144.731 129.119 144.726C132.583 144.721 135.393 145.086 135.394 145.541C135.395 145.996 132.587 146.369 129.121 146.374C125.656 146.38 122.849 146.015 122.848 145.56Z" fill="#F78E28"/>
<path d="M135.394 143.301V145.239C135.395 145.687 132.587 146.054 129.122 146.057C125.657 146.059 122.849 145.698 122.848 145.25V143.311C122.849 143.76 125.659 144.121 129.122 144.118C132.586 144.115 135.395 143.749 135.394 143.301Z" fill="url(#paint12_linear)"/>
<path d="M124.918 143.911V145.85C125.287 145.892 125.692 145.93 126.131 145.961V144.023C125.691 143.992 125.288 143.954 124.918 143.911Z" fill="#FFE97A"/>
<path d="M123.984 143.776V145.714C124.098 145.735 124.219 145.755 124.347 145.774V143.836C124.219 143.817 124.098 143.797 123.984 143.776Z" fill="#FFE97A"/>
<path d="M122.848 143.319C122.848 142.864 125.655 142.491 129.119 142.486C132.583 142.481 135.393 142.845 135.394 143.301C135.395 143.756 132.587 144.129 129.122 144.134C125.656 144.139 122.849 143.774 122.848 143.319Z" fill="#F78E28"/>
<path d="M135.046 141.036V142.975C135.048 143.423 132.24 143.79 128.775 143.793C125.31 143.796 122.502 143.434 122.501 142.986V141.047C122.502 141.496 125.311 141.857 128.775 141.854C132.239 141.851 135.048 141.485 135.046 141.036Z" fill="url(#paint13_linear)"/>
<path d="M124.571 141.647V143.585C124.94 143.628 125.344 143.665 125.784 143.697V141.759C125.343 141.728 124.939 141.691 124.571 141.647Z" fill="#FFE97A"/>
<path d="M123.637 141.512V143.45C123.751 143.471 123.872 143.491 124 143.51V141.572C123.871 141.554 123.751 141.533 123.637 141.512Z" fill="#FFE97A"/>
<path d="M122.5 141.055C122.5 140.6 125.308 140.227 128.772 140.221C132.235 140.216 135.046 140.581 135.047 141.036C135.047 141.492 132.239 141.865 128.774 141.87C125.309 141.875 122.501 141.51 122.5 141.055Z" fill="#F78E28"/>
<path d="M135.498 138.801V140.739C135.499 141.188 132.692 141.554 129.227 141.557C125.763 141.56 122.954 141.199 122.953 140.75V138.812C122.954 139.26 125.763 139.622 129.227 139.619C132.691 139.616 135.499 139.25 135.498 138.801Z" fill="url(#paint14_linear)"/>
<path d="M125.023 139.412V141.35C125.392 141.392 125.796 141.43 126.236 141.461V139.523C125.795 139.493 125.392 139.455 125.023 139.412Z" fill="#FFE97A"/>
<path d="M124.089 139.276V141.214C124.203 141.235 124.324 141.255 124.452 141.275V139.337C124.324 139.317 124.203 139.297 124.089 139.276Z" fill="#FFE97A"/>
<path d="M122.953 138.819C122.953 138.364 125.76 137.991 129.224 137.986C132.688 137.981 135.498 138.346 135.499 138.801C135.5 139.256 132.692 139.629 129.226 139.634C125.761 139.639 122.953 139.275 122.953 138.819Z" fill="url(#paint15_linear)"/>
<path d="M127.843 138.239C127.135 138.269 126.5 138.322 125.988 138.39C125.574 138.424 125.167 138.52 124.782 138.674C124.697 138.719 124.653 138.767 124.653 138.816C124.653 138.866 124.698 138.913 124.782 138.959C125.161 139.11 125.562 139.204 125.969 139.237C126.479 139.304 127.111 139.355 127.818 139.384C128.261 139.402 128.735 139.411 129.226 139.411C129.702 139.411 130.16 139.4 130.591 139.381C131.3 139.351 131.936 139.299 132.45 139.231C132.869 139.198 133.281 139.101 133.671 138.946C133.755 138.9 133.8 138.852 133.8 138.803C133.8 138.754 133.755 138.706 133.671 138.66C133.287 138.508 132.882 138.414 132.47 138.381C131.958 138.314 131.324 138.263 130.615 138.235C130.177 138.217 129.71 138.208 129.225 138.209C128.74 138.209 128.278 138.22 127.843 138.239ZM133.43 138.803C133.43 139.109 131.548 139.359 129.227 139.362C126.905 139.366 125.024 139.121 125.023 138.816C125.023 138.511 126.904 138.261 129.225 138.258C131.546 138.254 133.428 138.499 133.429 138.803H133.43Z" fill="#FE9834"/>
<path d="M101.295 155C109.416 155 115.999 154.309 115.999 153.456C115.999 152.604 109.416 151.912 101.295 151.912C93.1742 151.912 86.5911 152.604 86.5911 153.456C86.5911 154.309 93.1742 155 101.295 155Z" fill="url(#paint16_linear)"/>
<path d="M86.5911 150.42V153.452C86.5911 153.714 90.1196 153.926 94.4729 153.926C98.8261 153.926 102.355 153.713 102.355 153.452V150.42H86.5911Z" fill="url(#paint17_linear)"/>
<path d="M102.354 153.452V150.42H95.6758V153.92C99.4558 153.885 102.354 153.689 102.354 153.452Z" fill="url(#paint18_linear)"/>
<path d="M80.7593 130.948L86.5914 150.421C86.5914 150.682 90.1199 150.895 94.4731 150.895C98.8264 150.895 102.355 150.682 102.355 150.421L108.187 130.948H80.7593Z" fill="url(#paint19_linear)"/>
<path d="M80.7593 130.947L81.5889 133.717C84.2861 133.974 89.0463 134.145 94.4727 134.145H94.5006C94.8427 134.144 95.1811 134.214 95.4944 134.35C95.8076 134.486 96.0887 134.686 96.3198 134.935C96.5508 135.185 96.7268 135.48 96.8364 135.801C96.946 136.122 96.9868 136.462 96.9562 136.8L95.6762 150.888C99.4561 150.853 102.354 150.657 102.354 150.42L108.186 130.947L80.7593 130.947Z" fill="url(#paint20_linear)"/>
<path d="M80.3923 125.746V131.908C80.3923 132.376 86.6963 132.754 94.4726 132.754C102.249 132.754 108.553 132.375 108.553 131.908V125.746H80.3923Z" fill="#FF6173"/>
<path d="M108.554 125.746C108.554 126.214 102.25 126.592 94.4734 126.592C86.697 126.592 80.3933 126.213 80.3933 125.746C80.3933 125.279 86.697 124.9 94.4734 124.9C102.25 124.9 108.554 125.279 108.554 125.746Z" fill="#181894"/>
<path d="M89.7716 126.013C89.7716 126.013 90.0079 115.825 90.2456 105.637C90.3049 103.09 90.3641 100.543 90.4196 98.1546L90.4247 97.9312C90.4247 97.9074 90.4269 97.827 90.4271 97.85L90.4226 97.7389L90.4043 97.2972C90.3863 97.0081 90.3934 96.7051 90.3551 96.4356C90.285 95.9142 90.166 95.4004 89.9999 94.9008C89.8427 94.4189 89.6389 93.9532 89.3915 93.51C89.1411 93.1047 88.8558 92.7216 88.5389 92.3648C88.2454 92.0337 87.9267 91.7254 87.5856 91.4427C87.2675 91.1958 86.9354 90.9671 86.591 90.7577C86.0268 90.4141 85.4308 90.1244 84.8112 89.8926C84.411 89.7425 84.0023 89.6158 83.5871 89.5131C83.2991 89.4418 83.1494 89.4184 83.1494 89.4184L83.1945 89.0897C83.1945 89.0897 83.3638 89.1087 83.6638 89.1687C84.0983 89.2552 84.5272 89.367 84.9485 89.5035C85.6058 89.7158 86.2412 89.9896 86.8461 90.3211C87.2209 90.5258 87.5833 90.7519 87.9315 90.9983C88.3122 91.2844 88.6698 91.5994 89.0013 91.9404C89.3647 92.3133 89.6945 92.7169 89.987 93.1467C90.2825 93.6204 90.5308 94.1214 90.7284 94.6427C90.9433 95.2004 91.1027 95.7776 91.2043 96.366C91.2578 96.6639 91.2627 96.9447 91.2947 97.2383L91.3336 97.6787L91.3433 97.7893L91.3482 97.9306L91.3533 98.154C91.409 100.542 91.4682 103.09 91.5273 105.636C91.7635 115.824 92.0013 126.013 92.0013 126.013L89.7716 126.013Z" fill="#181894"/>
<path d="M72.8572 86.782C72.8572 86.782 74.141 89.2355 78.0098 90.2645C81.8785 91.2936 83.4448 89.3142 83.4448 89.3142C83.4448 89.3142 83.2223 87.1956 79.136 86.1087C77.0332 85.5283 74.7858 85.7693 72.8572 86.782Z" fill="#0464DC"/>
<path d="M90.3896 102.558C90.3896 102.558 90.6835 102.057 91.1566 101.355C91.7362 100.494 92.3635 99.6647 93.0355 98.8718C93.4006 98.4397 93.7913 98.0276 94.1678 97.6541L94.7296 97.1349C94.9184 96.9816 95.0966 96.8371 95.2611 96.7024C95.5321 96.4955 95.8171 96.3073 96.1142 96.1391L96.4513 95.9514L96.1406 96.1786C95.8708 96.379 95.6152 96.5975 95.3756 96.8326L94.9119 97.3168C94.7588 97.4985 94.5971 97.6898 94.43 97.8879C94.1102 98.2959 93.7836 98.7404 93.482 99.2025C92.9295 100.048 92.4246 100.924 91.9695 101.825C91.5958 102.565 91.3844 103.057 91.3844 103.057L90.3896 102.558Z" fill="#181894"/>
<path d="M105.059 87.9621C105.059 87.9621 101.733 87.5943 98.1166 90.7307C94.5005 93.867 95.4486 96.7347 95.4486 96.7347C95.4486 96.7347 97.7301 97.9278 101.55 94.6151C103.536 92.9245 104.793 90.5432 105.059 87.9621Z" fill="#0464DC"/>
<path d="M90.3383 112.664C90.3383 112.664 90.3267 112.547 90.2887 112.316C90.2513 112.09 90.1903 111.766 90.0926 111.383C89.9828 110.95 89.8385 110.526 89.6612 110.115C89.4729 109.656 89.1932 109.239 88.8388 108.89C88.6681 108.722 88.4607 108.596 88.2328 108.521C88.0048 108.446 87.7625 108.425 87.5247 108.458C87.2914 108.488 87.064 108.553 86.8504 108.651C86.651 108.739 86.4599 108.844 86.2795 108.965C86.1215 109.065 85.9702 109.174 85.8268 109.293C85.711 109.38 85.6001 109.474 85.4948 109.573L85.2139 109.828L85.4606 109.54C85.5535 109.427 85.6526 109.32 85.7576 109.218C85.8879 109.079 86.0274 108.948 86.1751 108.827C86.3479 108.677 86.5338 108.542 86.7307 108.424C86.956 108.285 87.201 108.181 87.4577 108.114C87.7455 108.036 88.0477 108.026 88.3402 108.084C88.6462 108.146 88.9348 108.273 89.1857 108.457C89.655 108.811 90.0467 109.256 90.3368 109.765C90.5889 110.19 90.8063 110.635 90.9871 111.094C91.1456 111.495 91.256 111.836 91.3286 112.078C91.3999 112.315 91.436 112.468 91.436 112.468L90.3383 112.664Z" fill="#181894"/>
<path d="M86.4685 109.159L87.5094 109.598C89.3695 110.383 89.9178 113.251 88.7336 116.004C87.5494 118.758 85.0841 120.353 83.2241 119.568L82.1831 119.129C84.0432 119.913 86.5097 118.318 87.6926 115.565C88.8755 112.813 88.3285 109.944 86.4685 109.159Z" fill="url(#paint21_linear)"/>
<path d="M82.1843 119.129C80.3251 118.345 79.7768 115.477 80.9601 112.725C82.1435 109.973 84.6111 108.376 86.4694 109.16C88.3278 109.944 88.8778 112.812 87.6936 115.566C86.5094 118.319 84.0439 119.914 82.1843 119.129Z" fill="url(#paint22_linear)"/>
<path d="M81.5119 114.254C81.3923 114.824 81.3831 115.412 81.4849 115.985C81.5709 116.532 81.8296 117.037 82.2238 117.429C82.5412 117.726 82.9549 117.9 83.3904 117.921C83.942 117.931 84.4828 117.77 84.9367 117.459C85.4254 117.138 85.8477 116.727 86.1811 116.249C86.6485 115.588 86.9733 114.84 87.1353 114.049C87.2566 113.479 87.2678 112.892 87.1683 112.317C87.0841 111.765 86.8243 111.254 86.4268 110.858C86.1093 110.562 85.6957 110.387 85.2602 110.366C84.7037 110.356 84.1584 110.521 83.7021 110.836C83.214 111.16 82.7925 111.573 82.4601 112.053C81.9947 112.715 81.6721 113.464 81.5125 114.254H81.5119ZM85.7601 110.804C87.0058 111.329 87.3734 113.251 86.5807 115.096C85.788 116.941 84.1359 118.009 82.889 117.484C81.6421 116.958 81.2759 115.037 82.0686 113.193C82.8613 111.349 84.5141 110.278 85.7601 110.804Z" fill="#FE9834"/>
<path d="M88.3111 112.846L89.3521 113.285C89.362 112.951 89.3431 112.617 89.2956 112.286L88.2549 111.847C88.3022 112.178 88.321 112.512 88.3111 112.846Z" fill="#FFE97A"/>
<path d="M89.0844 111.413L88.0437 110.974C88.1073 111.155 88.1593 111.34 88.1994 111.528L89.2401 111.966C89.2002 111.779 89.1482 111.594 89.0844 111.413Z" fill="#FFE97A"/>
<path d="M90.5518 97.9187L90.4152 97.7136C90.3237 97.5839 90.1912 97.3958 90.0146 97.1841C89.8161 96.9409 89.6032 96.7096 89.377 96.4914C89.1192 96.2442 88.834 96.0266 88.527 95.8427C88.3739 95.7476 88.211 95.6692 88.041 95.6087C87.877 95.5512 87.7081 95.5084 87.5363 95.481C87.3736 95.4715 87.2104 95.4787 87.0492 95.5023C86.9023 95.5254 86.7593 95.5684 86.6242 95.63L86.2836 95.8068L86.0546 95.9972L85.8525 96.1652L86.0321 95.9738L86.241 95.7516L86.5703 95.5257C86.7071 95.442 86.8547 95.3772 87.0093 95.3332C87.1846 95.285 87.3645 95.2556 87.5462 95.2453C87.7413 95.2514 87.9354 95.2755 88.126 95.3172C88.3224 95.361 88.5135 95.4251 88.6962 95.5087C89.0549 95.6673 89.3943 95.8657 89.708 96.0999C89.9785 96.3034 90.2367 96.5225 90.4811 96.7563C90.6978 96.9592 90.8645 97.1424 90.9819 97.2716L91.163 97.4824L90.5518 97.9187Z" fill="#181894"/>
<path d="M82.6216 104.487L81.4754 103.964C80.9504 103.724 81.3971 101.655 82.4734 99.3422C83.5498 97.0294 84.8472 95.3502 85.3727 95.5899L86.5191 96.1133C85.9942 95.8735 84.6962 97.5538 83.6198 99.8656C82.5435 102.177 82.0965 104.247 82.6216 104.487Z" fill="url(#paint23_linear)"/>
<path d="M86.5184 96.1133C87.0437 96.3533 86.5968 98.4221 85.5208 100.734C84.4449 103.046 83.1468 104.727 82.6215 104.487C82.0962 104.247 82.5431 102.179 83.6195 99.8656C84.6959 97.5526 85.9935 95.8735 86.5184 96.1133Z" fill="url(#paint24_linear)"/>
<path d="M85.661 99.6799C85.8283 99.2513 85.9637 98.8111 86.066 98.3629C86.156 98.053 86.173 97.7268 86.1156 97.4094C86.1099 97.3744 86.0956 97.3413 86.0739 97.3131C86.0522 97.2848 86.0239 97.2623 85.9914 97.2474C85.9589 97.2326 85.9232 97.2259 85.8875 97.2279C85.8517 97.2299 85.817 97.2406 85.7864 97.259C85.5094 97.4189 85.273 97.6395 85.0955 97.904C84.8181 98.2701 84.5684 98.6559 84.3484 99.0584C84.1888 99.3448 84.0301 99.6554 83.8774 99.9835C83.7298 100.301 83.5982 100.611 83.485 100.908C83.3168 101.338 83.1805 101.779 83.0769 102.228C82.9851 102.541 82.9674 102.871 83.0252 103.192C83.031 103.227 83.0454 103.26 83.0671 103.288C83.0888 103.317 83.1171 103.339 83.1496 103.354C83.1821 103.369 83.2177 103.375 83.2534 103.373C83.2891 103.371 83.3238 103.361 83.3544 103.342C83.6346 103.18 83.8734 102.957 84.0526 102.689C84.3302 102.321 84.5801 101.934 84.8004 101.53C84.9576 101.247 85.1142 100.94 85.2647 100.617C85.4153 100.293 85.5465 99.9803 85.661 99.6799ZM83.2651 103.105C82.9133 102.945 83.2127 101.558 83.9336 100.008C84.6546 98.4587 85.5242 97.3337 85.876 97.4943C86.2277 97.6549 85.9288 99.0408 85.2078 100.59C84.4869 102.139 83.6169 103.267 83.2651 103.106V103.105Z" fill="#FE9834"/>
<path d="M85.1714 97.1728L84.0255 96.6488C83.8605 96.8716 83.6902 97.1205 83.5173 97.3979L84.6633 97.9219C84.8362 97.6447 85.0063 97.3958 85.1714 97.1728Z" fill="#FFE97A"/>
<path d="M85.6201 96.6226L84.4744 96.0986C84.4145 96.1633 84.3532 96.2332 84.2905 96.3082L85.4363 96.8322C85.4994 96.757 85.5607 96.6872 85.6201 96.6226Z" fill="#FFE97A"/>
<path d="M98.6173 109.815C98.6173 109.815 98.0744 111.325 99.1628 113.357C100.251 115.389 101.719 115.264 101.719 115.264C101.719 115.264 102.538 114.334 101.388 112.187C100.805 111.074 99.8135 110.225 98.6173 109.815Z" fill="#0464DC"/>
<path d="M99.9021 126.033C99.9021 126.033 99.9294 125.141 99.9702 123.804C99.9906 123.135 100.014 122.355 100.04 121.519C100.052 121.101 100.066 120.669 100.079 120.23C100.095 119.787 100.101 119.355 100.126 118.89C100.148 118.428 100.214 117.968 100.322 117.518C100.425 117.078 100.582 116.652 100.788 116.249C100.981 115.871 101.224 115.52 101.51 115.206C101.989 114.697 102.573 114.298 103.222 114.035C103.446 113.942 103.675 113.863 103.909 113.797C104.299 113.699 104.523 113.655 104.523 113.655L104.575 113.892C104.575 113.892 104.36 113.948 103.993 114.064C103.775 114.14 103.563 114.228 103.356 114.329C103.088 114.454 102.834 114.607 102.598 114.785C102.319 114.989 102.067 115.227 101.849 115.494C101.609 115.791 101.41 116.119 101.258 116.469C101.094 116.844 100.977 117.237 100.908 117.639C100.834 118.058 100.799 118.482 100.806 118.907C100.807 119.334 100.829 119.794 100.84 120.228C100.854 120.667 100.867 121.099 100.879 121.517C100.905 122.353 100.929 123.134 100.949 123.802L101.017 126.031L99.9021 126.033Z" fill="#181894"/>
<path d="M100.011 122.467C100.011 122.467 99.7651 121.997 99.5008 121.559C99.1824 121.024 98.8337 120.508 98.4564 120.013C98.2558 119.749 98.0407 119.495 97.8121 119.253C97.6161 119.04 97.4015 118.844 97.1708 118.667C97.0098 118.538 96.833 118.43 96.6446 118.344L96.4241 118.253L96.6603 118.299C96.8693 118.348 97.0713 118.422 97.2617 118.52C97.8409 118.823 98.3789 119.198 98.8627 119.635C99.3526 120.065 99.8175 120.521 100.255 121.002C100.613 121.391 100.845 121.676 100.845 121.676L100.011 122.467Z" fill="#181894"/>
<path d="M109.83 123.168L108.25 123.794C107.527 124.081 105.897 121.731 104.609 118.544C103.321 115.357 102.864 112.543 103.587 112.256L105.167 111.63C104.444 111.917 104.901 114.732 106.188 117.917C107.476 121.103 109.106 123.455 109.83 123.168Z" fill="url(#paint25_linear)"/>
<path d="M105.167 111.63C105.891 111.343 107.52 113.693 108.808 116.879C110.095 120.064 110.553 122.881 109.83 123.168C109.106 123.455 107.476 121.104 106.188 117.917C104.9 114.731 104.444 111.917 105.167 111.63Z" fill="url(#paint26_linear)"/>
<path d="M107.897 115.766C107.628 115.206 107.319 114.667 106.971 114.153C106.633 113.667 106.321 113.338 106.074 113.221C106.034 113.194 105.988 113.178 105.94 113.173C105.893 113.167 105.844 113.174 105.799 113.192C105.755 113.21 105.715 113.238 105.684 113.274C105.653 113.311 105.631 113.354 105.621 113.401C105.524 113.651 105.527 114.096 105.618 114.669C105.723 115.277 105.872 115.877 106.066 116.463C106.201 116.883 106.361 117.325 106.544 117.777C106.72 118.214 106.906 118.629 107.094 119.014C107.362 119.575 107.672 120.115 108.019 120.631C108.36 121.124 108.675 121.458 108.924 121.576C108.964 121.602 109.01 121.619 109.058 121.624C109.106 121.629 109.154 121.622 109.199 121.605C109.244 121.587 109.284 121.559 109.315 121.522C109.346 121.486 109.368 121.442 109.378 121.396C109.475 121.143 109.472 120.693 109.378 120.114C109.272 119.504 109.121 118.903 108.927 118.315C108.793 117.9 108.635 117.464 108.454 117.018C108.275 116.576 108.087 116.155 107.897 115.766ZM109.061 121.264C108.577 121.456 107.484 119.881 106.621 117.746C105.758 115.611 105.452 113.725 105.937 113.534C106.422 113.342 107.514 114.916 108.377 117.05C109.239 119.184 109.546 121.072 109.061 121.264Z" fill="#FE9834"/>
<path d="M104.966 113.917L103.386 114.543C103.453 114.909 103.541 115.305 103.655 115.73L105.235 115.104C105.121 114.68 105.033 114.284 104.966 113.917Z" fill="#FFE97A"/>
<path d="M104.839 112.972L103.259 113.597C103.267 113.715 103.28 113.839 103.296 113.969L104.876 113.344C104.859 113.214 104.847 113.09 104.839 112.972Z" fill="#FFE97A"/>
<path d="M85.728 112.171C85.728 112.171 86.3863 115.387 90.4648 117.811C94.5434 120.235 96.9816 118.482 96.9816 118.482C96.9816 118.482 97.4249 115.991 93.1171 113.431C90.9078 112.089 88.263 111.638 85.728 112.171Z" fill="#0464DC"/>
<defs>
<linearGradient id="paint0_linear" x1="102.974" y1="2.74795" x2="102.974" y2="123.947" gradientUnits="userSpaceOnUse">
<stop stop-color="#F0F6FF"/>
<stop offset="0.317" stop-color="#E9F2FE"/>
<stop offset="0.767" stop-color="#D6E9FD"/>
<stop offset="0.842" stop-color="#D3E8FD"/>
<stop offset="0.92" stop-color="#D3E8FD"/>
</linearGradient>
<linearGradient id="paint1_linear" x1="146.291" y1="91.5044" x2="125.488" y2="101.13" gradientUnits="userSpaceOnUse">
<stop stop-color="#EB2D43"/>
<stop offset="0.228" stop-color="#ED3349"/>
<stop offset="0.551" stop-color="#F3465A"/>
<stop offset="0.93" stop-color="#FC6476"/>
<stop offset="1" stop-color="#FF6B7C"/>
</linearGradient>
<linearGradient id="paint2_linear" x1="144.263" y1="83.9143" x2="131.964" y2="109.546" gradientUnits="userSpaceOnUse">
<stop stop-color="#EB2D43"/>
<stop offset="0.228" stop-color="#ED3349"/>
<stop offset="0.551" stop-color="#F3465A"/>
<stop offset="0.93" stop-color="#FC6476"/>
<stop offset="1" stop-color="#FF6B7C"/>
</linearGradient>
<linearGradient id="paint3_linear" x1="142.487" y1="149.592" x2="157.878" y2="149.592" gradientUnits="userSpaceOnUse">
<stop offset="0.08" stop-color="#B9DBFD"/>
<stop offset="0.158" stop-color="#B9DBFD"/>
<stop offset="0.472" stop-color="#D2E7FE"/>
<stop offset="0.782" stop-color="#E5F0FE"/>
<stop offset="1" stop-color="#ECF4FF"/>
</linearGradient>
<linearGradient id="paint4_linear" x1="71.5175" y1="168.183" x2="71.8449" y2="179.57" gradientUnits="userSpaceOnUse">
<stop offset="0.054" stop-color="#FFDC55"/>
<stop offset="0.188" stop-color="#FEC94B"/>
<stop offset="0.422" stop-color="#FEAE3E"/>
<stop offset="0.63" stop-color="#FE9D36"/>
<stop offset="0.788" stop-color="#FE9834"/>
</linearGradient>
<linearGradient id="paint5_linear" x1="49.2336" y1="183.234" x2="49.2342" y2="195.808" gradientUnits="userSpaceOnUse">
<stop stop-color="#FFDC55"/>
<stop offset="0.295" stop-color="#FECC4D"/>
<stop offset="0.868" stop-color="#FEA239"/>
<stop offset="1" stop-color="#FE9834"/>
</linearGradient>
<linearGradient id="paint6_linear" x1="63.4792" y1="149.96" x2="78.8696" y2="149.96" gradientUnits="userSpaceOnUse">
<stop offset="0.08" stop-color="#D3E8FD"/>
<stop offset="0.158" stop-color="#D3E8FD"/>
<stop offset="0.65" stop-color="#E5F0FE"/>
<stop offset="1" stop-color="#ECF4FF"/>
</linearGradient>
<linearGradient id="paint7_linear" x1="31.7146" y1="100.571" x2="32.042" y2="111.958" gradientUnits="userSpaceOnUse">
<stop offset="0.054" stop-color="#FFDC55"/>
<stop offset="0.188" stop-color="#FEC94B"/>
<stop offset="0.422" stop-color="#FEAE3E"/>
<stop offset="0.63" stop-color="#FE9D36"/>
<stop offset="0.788" stop-color="#FE9834"/>
</linearGradient>
<linearGradient id="paint8_linear" x1="9.28005" y1="115.709" x2="9.28048" y2="128.286" gradientUnits="userSpaceOnUse">
<stop stop-color="#FFDC55"/>
<stop offset="0.295" stop-color="#FECC4D"/>
<stop offset="0.868" stop-color="#FEA239"/>
<stop offset="1" stop-color="#FE9834"/>
</linearGradient>
<linearGradient id="paint9_linear" x1="122.848" y1="149.742" x2="141.076" y2="149.742" gradientUnits="userSpaceOnUse">
<stop offset="0.08" stop-color="#B9DBFD"/>
<stop offset="0.158" stop-color="#B9DBFD"/>
<stop offset="0.472" stop-color="#D2E7FE"/>
<stop offset="0.782" stop-color="#E5F0FE"/>
<stop offset="1" stop-color="#ECF4FF"/>
</linearGradient>
<linearGradient id="paint10_linear" x1="61.5891" y1="151.4" x2="61.9158" y2="162.786" gradientUnits="userSpaceOnUse">
<stop offset="0.054" stop-color="#FFDC55"/>
<stop offset="0.188" stop-color="#FEC94B"/>
<stop offset="0.422" stop-color="#FEAE3E"/>
<stop offset="0.63" stop-color="#FE9D36"/>
<stop offset="0.788" stop-color="#FE9834"/>
</linearGradient>
<linearGradient id="paint11_linear" x1="63.5461" y1="150.282" x2="63.8735" y2="161.668" gradientUnits="userSpaceOnUse">
<stop offset="0.054" stop-color="#FFDC55"/>
<stop offset="0.188" stop-color="#FEC94B"/>
<stop offset="0.422" stop-color="#FEAE3E"/>
<stop offset="0.63" stop-color="#FE9D36"/>
<stop offset="0.788" stop-color="#FE9834"/>
</linearGradient>
<linearGradient id="paint12_linear" x1="65.5032" y1="149.163" x2="65.8305" y2="160.548" gradientUnits="userSpaceOnUse">
<stop offset="0.054" stop-color="#FFDC55"/>
<stop offset="0.188" stop-color="#FEC94B"/>
<stop offset="0.422" stop-color="#FEAE3E"/>
<stop offset="0.63" stop-color="#FE9D36"/>
<stop offset="0.788" stop-color="#FE9834"/>
</linearGradient>
<linearGradient id="paint13_linear" x1="67.314" y1="147.731" x2="67.6407" y2="159.117" gradientUnits="userSpaceOnUse">
<stop offset="0.054" stop-color="#FFDC55"/>
<stop offset="0.188" stop-color="#FEC94B"/>
<stop offset="0.422" stop-color="#FEAE3E"/>
<stop offset="0.63" stop-color="#FE9D36"/>
<stop offset="0.788" stop-color="#FE9834"/>
</linearGradient>
<linearGradient id="paint14_linear" x1="69.497" y1="147.003" x2="69.8237" y2="158.389" gradientUnits="userSpaceOnUse">
<stop offset="0.054" stop-color="#FFDC55"/>
<stop offset="0.188" stop-color="#FEC94B"/>
<stop offset="0.422" stop-color="#FEAE3E"/>
<stop offset="0.63" stop-color="#FE9D36"/>
<stop offset="0.788" stop-color="#FE9834"/>
</linearGradient>
<linearGradient id="paint15_linear" x1="52.6059" y1="158.959" x2="52.6064" y2="171.535" gradientUnits="userSpaceOnUse">
<stop stop-color="#FFDC55"/>
<stop offset="0.295" stop-color="#FECC4D"/>
<stop offset="0.868" stop-color="#FEA239"/>
<stop offset="1" stop-color="#FE9834"/>
</linearGradient>
<linearGradient id="paint16_linear" x1="86.5911" y1="153.456" x2="115.999" y2="153.456" gradientUnits="userSpaceOnUse">
<stop offset="0.08" stop-color="#B9DBFD"/>
<stop offset="0.158" stop-color="#B9DBFD"/>
<stop offset="0.472" stop-color="#D2E7FE"/>
<stop offset="0.782" stop-color="#E5F0FE"/>
<stop offset="1" stop-color="#ECF4FF"/>
</linearGradient>
<linearGradient id="paint17_linear" x1="102.323" y1="152.173" x2="86.6226" y2="152.173" gradientUnits="userSpaceOnUse">
<stop stop-color="#EB2D43"/>
<stop offset="0.228" stop-color="#ED3349"/>
<stop offset="0.551" stop-color="#F3465A"/>
<stop offset="0.93" stop-color="#FC6476"/>
<stop offset="1" stop-color="#FF6B7C"/>
</linearGradient>
<linearGradient id="paint18_linear" x1="95.1015" y1="152.17" x2="102.547" y2="152.17" gradientUnits="userSpaceOnUse">
<stop stop-color="#EB2D43"/>
<stop offset="0.228" stop-color="#ED3349"/>
<stop offset="0.551" stop-color="#F3465A"/>
<stop offset="0.93" stop-color="#FC6476"/>
<stop offset="1" stop-color="#FF6B7C"/>
</linearGradient>
<linearGradient id="paint19_linear" x1="105.856" y1="140.921" x2="82.9535" y2="140.921" gradientUnits="userSpaceOnUse">
<stop stop-color="#EB2D43"/>
<stop offset="0.228" stop-color="#ED3349"/>
<stop offset="0.551" stop-color="#F3465A"/>
<stop offset="0.93" stop-color="#FC6476"/>
<stop offset="1" stop-color="#FF6B7C"/>
</linearGradient>
<linearGradient id="paint20_linear" x1="96.3378" y1="139.103" x2="103.962" y2="143.771" gradientUnits="userSpaceOnUse">
<stop stop-color="#EB2D43"/>
<stop offset="0.228" stop-color="#ED3349"/>
<stop offset="0.551" stop-color="#F3465A"/>
<stop offset="0.93" stop-color="#FC6476"/>
<stop offset="1" stop-color="#FF6B7C"/>
</linearGradient>
<linearGradient id="paint21_linear" x1="171.884" y1="-23.0866" x2="182.905" y2="-23.0866" gradientUnits="userSpaceOnUse">
<stop offset="0.054" stop-color="#FFDC55"/>
<stop offset="0.188" stop-color="#FEC94B"/>
<stop offset="0.422" stop-color="#FEAE3E"/>
<stop offset="0.63" stop-color="#FE9D36"/>
<stop offset="0.788" stop-color="#FE9834"/>
</linearGradient>
<linearGradient id="paint22_linear" x1="89.316" y1="98.343" x2="96.6359" y2="98.343" gradientUnits="userSpaceOnUse">
<stop stop-color="#FE9834"/>
<stop offset="0.132" stop-color="#FEA239"/>
<stop offset="0.705" stop-color="#FECC4D"/>
<stop offset="1" stop-color="#FFDC55"/>
</linearGradient>
<linearGradient id="paint23_linear" x1="86.5033" y1="41.9666" x2="93.8093" y2="46.2366" gradientUnits="userSpaceOnUse">
<stop offset="0.054" stop-color="#FFDC55"/>
<stop offset="0.188" stop-color="#FEC94B"/>
<stop offset="0.422" stop-color="#FEAE3E"/>
<stop offset="0.63" stop-color="#FE9D36"/>
<stop offset="0.788" stop-color="#FE9834"/>
</linearGradient>
<linearGradient id="paint24_linear" x1="89.9741" y1="41.6251" x2="90.0559" y2="50.9534" gradientUnits="userSpaceOnUse">
<stop stop-color="#FFDC55"/>
<stop offset="0.295" stop-color="#FECC4D"/>
<stop offset="0.868" stop-color="#FEA239"/>
<stop offset="1" stop-color="#FE9834"/>
</linearGradient>
<linearGradient id="paint25_linear" x1="113.254" y1="83.1332" x2="123.06" y2="87.9398" gradientUnits="userSpaceOnUse">
<stop offset="0.054" stop-color="#FFDC55"/>
<stop offset="0.188" stop-color="#FEC94B"/>
<stop offset="0.422" stop-color="#FEAE3E"/>
<stop offset="0.63" stop-color="#FE9D36"/>
<stop offset="0.788" stop-color="#FE9834"/>
</linearGradient>
<linearGradient id="paint26_linear" x1="117.935" y1="82.6762" x2="118.085" y2="95.2454" gradientUnits="userSpaceOnUse">
<stop stop-color="#FFDC55"/>
<stop offset="0.295" stop-color="#FECC4D"/>
<stop offset="0.868" stop-color="#FEA239"/>
<stop offset="1" stop-color="#FE9834"/>
</linearGradient>
</defs>
</svg>
