<svg width="60" height="60" viewBox="0 0 60 60" fill="none" xmlns="http://www.w3.org/2000/svg">
<path d="M58.125 60H55.3125C54.277 60 53.4375 59.1605 53.4375 58.125C53.4375 57.0895 54.277 56.25 55.3125 56.25H58.125C59.1605 56.25 60 57.0895 60 58.125C60 59.1605 59.1605 60 58.125 60Z" fill="white"/>
<path d="M4.6875 60H1.875C0.839531 60 0 59.1605 0 58.125C0 57.0895 0.839531 56.25 1.875 56.25H4.6875C5.72297 56.25 6.5625 57.0895 6.5625 58.125C6.5625 59.1605 5.72297 60 4.6875 60Z" fill="white"/>
<path d="M48.75 60H11.25C10.2145 60 9.375 59.1605 9.375 58.125C9.375 57.0895 10.2145 56.25 11.25 56.25H48.75C49.7855 56.25 50.625 57.0895 50.625 58.125C50.625 59.1605 49.7855 60 48.75 60Z" fill="white"/>
<path d="M30 51.9788C28.6195 51.9788 27.2391 51.4533 26.1882 50.4023L10.393 34.607C9.16219 33.3763 8.48438 31.7402 8.48438 30C8.48438 28.2764 9.15094 26.6516 10.3614 25.4248C11.5696 24.2 13.1989 23.5225 14.9494 23.5165H14.9715C16.7254 23.5165 18.4346 24.2207 19.6649 25.4509L23.4375 29.2234V6.5625C23.4375 2.94398 26.3815 0 30 0C33.6185 0 36.5625 2.94398 36.5625 6.5625V29.2234L40.393 25.3929C41.6236 24.1622 43.2598 23.4844 45 23.4844C46.7236 23.4844 48.3484 24.1509 49.5752 25.3614C50.7998 26.5696 51.4775 28.1989 51.4835 29.9494C51.4895 31.7109 50.7844 33.4296 49.5491 34.665L33.8118 50.4023C32.7609 51.4533 31.3805 51.9788 30 51.9788ZM14.972 27.2664C14.9687 27.2664 14.9654 27.2664 14.9621 27.2664C14.2181 27.2688 13.5322 27.5501 13.031 28.0583C12.5174 28.579 12.2345 29.2685 12.2345 30C12.2345 30.7385 12.5223 31.433 13.0447 31.9554L28.8398 47.7507C29.4796 48.3905 30.5204 48.3905 31.1602 47.7507L46.8975 32.0134C47.4314 31.4794 47.7362 30.7317 47.7335 29.9622C47.7311 29.2181 47.4498 28.5322 46.9416 28.031C46.4209 27.5174 45.7314 27.2345 44.9999 27.2345C44.2614 27.2345 43.5669 27.5223 43.0444 28.0447L36.0131 35.076C35.477 35.6123 34.6706 35.7727 33.9697 35.4825C33.2693 35.1921 32.8125 34.5083 32.8125 33.75V6.5625C32.8125 5.01164 31.5507 3.75 30 3.75C28.4491 3.75 27.1875 5.01164 27.1875 6.5625V33.75C27.1875 34.5083 26.7307 35.1921 26.03 35.4823C25.3295 35.7724 24.5229 35.6121 23.9866 35.0757L17.0133 28.1025C16.4817 27.5708 15.738 27.2664 14.972 27.2664Z" fill="white"/>
</svg>
