<svg width="343" height="261" viewBox="0 0 343 261" fill="none" xmlns="http://www.w3.org/2000/svg">
<path d="M12.1518 2.67768C5.91134 1.30259 -8.96454e-05 6.05324 -8.96454e-05 12.4434V106.282C-8.96454e-05 112.672 5.91134 117.423 12.1518 116.048L13.3062 115.793C17.8899 114.783 21.1543 110.721 21.1543 106.027V12.6978C21.1543 8.00411 17.8899 3.94207 13.3062 2.93205L12.1518 2.67768Z" fill="#34343E"/>
<path d="M12.8864 22.7526C14.5985 9.56473 16.8366 4.65964 21.1526 4.65964C25.4687 4.65964 27.7068 9.56473 29.4189 22.7526C30.6909 32.5543 31.3911 45.5552 31.3911 59.3608C31.3911 73.1665 30.6909 86.1674 29.4189 95.969C27.7068 109.157 25.4658 114.062 21.1526 114.062C16.8394 114.062 14.5985 109.157 12.8864 95.969C11.6144 86.1674 10.9113 73.1665 10.9113 59.3608C10.9113 45.5552 11.6144 32.5543 12.8864 22.7526ZM19.6863 92.1691C20.1694 96.5273 20.681 99.684 21.1526 101.965C21.6214 99.684 22.133 96.5273 22.619 92.1691C23.6279 83.056 24.1853 71.404 24.1853 59.3608C24.1853 47.3177 23.6279 35.6657 22.619 26.5526C22.133 22.1944 21.6214 19.0377 21.1526 16.7566C20.681 19.0377 20.1694 22.1944 19.6863 26.5526C18.6745 35.6657 18.12 47.3177 18.12 59.3608C18.12 71.404 18.6745 83.056 19.6863 92.1691Z" fill="#4AA0D5"/>
<path d="M18.1236 59.3621C18.1236 71.4052 18.6781 83.0573 19.69 92.1703C20.173 96.5285 20.6847 99.6852 21.1563 101.966C21.6251 99.6852 22.1367 96.5285 22.6226 92.1703C23.6316 83.0573 24.189 71.4052 24.189 59.3621C24.189 47.319 23.6316 35.6669 22.6226 26.5538C22.1367 22.1957 21.6251 19.0389 21.1563 16.7578C20.6847 19.0389 20.173 22.1957 19.69 26.5538C18.6781 35.6669 18.1236 47.319 18.1236 59.3621Z" fill="#34343E"/>
<path d="M54.115 78.7368H62.136C64.5839 78.7368 66.5684 80.7042 66.5684 83.131V110.287C66.5684 112.714 64.5839 114.681 62.136 114.681H54.115C51.667 114.681 49.6826 112.714 49.6826 110.287V83.131C49.6826 80.7042 51.667 78.7368 54.115 78.7368Z" fill="#454553"/>
<path d="M63.022 86.1747C61.4884 86.1747 60.2451 84.9422 60.2451 83.4218C60.2451 81.9014 61.4884 80.6689 63.022 80.6689C64.5556 80.6689 65.7988 81.9014 65.7988 83.4218C65.7988 84.9422 64.5556 86.1747 63.022 86.1747Z" fill="#F1C40F"/>
<path d="M63.021 92.8195C61.4874 92.8195 60.2441 91.587 60.2441 90.0666C60.2441 88.5462 61.4874 87.3137 63.021 87.3137C64.5546 87.3137 65.7979 88.5462 65.7979 90.0666C65.7979 91.587 64.5546 92.8195 63.021 92.8195Z" fill="#4AA0D5"/>
<path d="M63.021 99.464C61.4874 99.464 60.2441 98.2315 60.2441 96.7111C60.2441 95.1907 61.4874 93.9582 63.021 93.9582C64.5546 93.9582 65.7979 95.1907 65.7979 96.7111C65.7979 98.2315 64.5546 99.464 63.021 99.464Z" fill="#4AA0D5"/>
<path d="M60.2696 103.738C60.0565 102.233 61.1148 100.84 62.6334 100.628C64.152 100.416 65.5558 101.464 65.7689 102.97C65.982 104.475 64.9237 105.868 63.4051 106.08C61.8865 106.292 60.4827 105.244 60.2696 103.738Z" fill="#4AA0D5"/>
<path d="M63.021 112.751C61.4874 112.751 60.2441 111.519 60.2441 109.999C60.2441 108.478 61.4874 107.246 63.021 107.246C64.5546 107.246 65.7979 108.478 65.7979 109.999C65.7979 111.519 64.5546 112.751 63.021 112.751Z" fill="#F73859"/>
<path d="M51.6821 82.4982H58.1442C58.3912 82.4982 58.6282 82.5955 58.8028 82.7687C58.9775 82.9419 59.0757 83.1768 59.0757 83.4217C59.0757 83.6667 58.9776 83.9016 58.8029 84.0748C58.6282 84.2481 58.3912 84.3454 58.1442 84.3455H51.6821C51.435 84.3454 51.198 84.2481 51.0233 84.0748C50.8485 83.9016 50.7503 83.6667 50.7503 83.4217C50.7503 83.1768 50.8486 82.9419 51.0233 82.7687C51.198 82.5955 51.435 82.4982 51.6821 82.4982Z" fill="white"/>
<path d="M51.6821 89.1427H58.1442C58.2665 89.1427 58.3876 89.1666 58.5006 89.213C58.6137 89.2594 58.7163 89.3274 58.8028 89.4132C58.8893 89.4989 58.958 89.6007 59.0048 89.7128C59.0516 89.8248 59.0757 89.9449 59.0757 90.0662C59.0757 90.1875 59.0517 90.3076 59.0049 90.4197C58.9581 90.5317 58.8895 90.6336 58.803 90.7194C58.7165 90.8051 58.6137 90.8732 58.5007 90.9196C58.3877 90.966 58.2665 90.9899 58.1442 90.9899H51.6821C51.4349 90.9899 51.1979 90.8926 51.0232 90.7194C50.8484 90.5461 50.7503 90.3112 50.7503 90.0662C50.7503 89.8212 50.8486 89.5863 51.0233 89.4131C51.198 89.24 51.435 89.1427 51.6821 89.1427Z" fill="white"/>
<path d="M51.6821 95.7871H58.1442C58.2665 95.7871 58.3877 95.811 58.5007 95.8575C58.6137 95.9039 58.7165 95.9719 58.803 96.0577C58.8895 96.1435 58.9581 96.2454 59.0049 96.3574C59.0517 96.4695 59.0757 96.5896 59.0757 96.7109C59.0757 96.9558 58.9775 97.1907 58.8028 97.3639C58.6282 97.5371 58.3912 97.6344 58.1442 97.6344H51.6821C51.435 97.6344 51.198 97.5371 51.0233 97.3639C50.8486 97.1908 50.7503 96.9559 50.7503 96.7109C50.7503 96.4659 50.8484 96.231 51.0232 96.0577C51.1979 95.8845 51.4349 95.7871 51.6821 95.7871Z" fill="white"/>
<path d="M51.6821 102.43H58.1442C58.3912 102.43 58.6282 102.528 58.8029 102.701C58.9776 102.874 59.0757 103.109 59.0757 103.354C59.0757 103.599 58.9776 103.834 58.8029 104.007C58.6282 104.18 58.3912 104.278 58.1442 104.278H51.6821C51.435 104.278 51.198 104.18 51.0233 104.007C50.8485 103.834 50.7503 103.599 50.7503 103.354C50.7503 103.109 50.8485 102.874 51.0233 102.701C51.198 102.528 51.435 102.43 51.6821 102.43Z" fill="white"/>
<path d="M51.6821 109.075H58.1442C58.3912 109.075 58.6282 109.172 58.8028 109.345C58.9775 109.518 59.0757 109.753 59.0757 109.998C59.0757 110.243 58.9776 110.478 58.8029 110.651C58.6282 110.824 58.3912 110.922 58.1442 110.922H51.6821C51.435 110.922 51.198 110.824 51.0233 110.651C50.8485 110.478 50.7503 110.243 50.7503 109.998C50.7503 109.753 50.8486 109.518 51.0233 109.345C51.198 109.172 51.435 109.075 51.6821 109.075Z" fill="white"/>
<path d="M82.8154 72.8668L59.0571 32.071C58.9627 31.9089 58.827 31.7742 58.6634 31.6806C58.4999 31.587 58.3144 31.5378 58.1256 31.5378C57.9368 31.5378 57.7513 31.587 57.5878 31.6806C57.4243 31.7742 57.2885 31.9089 57.1941 32.071L33.4358 72.8668C33.3414 73.0289 33.2918 73.2127 33.2918 73.3999C33.2918 73.5871 33.3415 73.7709 33.4359 73.933C33.5303 74.0951 33.6661 74.2297 33.8296 74.3233C33.9931 74.4168 34.1785 74.4661 34.3673 74.4661H81.8839C82.0727 74.4661 82.2582 74.4168 82.4217 74.3233C82.5852 74.2297 82.7209 74.0951 82.8153 73.933C82.9097 73.7709 82.9595 73.5871 82.9595 73.3999C82.9595 73.2127 82.9098 73.0289 82.8154 72.8668Z" fill="#F1C40F"/>
<path d="M38.9262 71.7812H77.3345C77.5095 71.7812 77.6814 71.7355 77.833 71.6488C77.9846 71.5621 78.1104 71.4373 78.1979 71.287C78.2855 71.1368 78.3315 70.9663 78.3315 70.7928C78.3315 70.6193 78.2855 70.4489 78.198 70.2986L58.9938 37.3229C58.9063 37.1727 58.7804 37.0479 58.6288 36.9612C58.4772 36.8745 58.3053 36.8288 58.1303 36.8288C57.9553 36.8288 57.7834 36.8745 57.6318 36.9612C57.4803 37.0479 57.3544 37.1727 57.2668 37.3229L38.0627 70.2986C37.9751 70.4489 37.9289 70.6193 37.9289 70.7929C37.9289 70.9664 37.9749 71.1369 38.0625 71.2872C38.15 71.4375 38.2759 71.5622 38.4275 71.649C38.5791 71.7357 38.7511 71.7813 38.9262 71.7812ZM77.0223 70.6143H39.2383L58.1303 38.1744L77.0223 70.6143Z" fill="#34343E"/>
<path d="M60.2828 56.905L54.6431 47.2782L57.5317 46.0991L63.8843 58.5642H59.1555L61.6879 64.9323L63.2314 64.3621L63.3615 69.1386L59.3067 65.8107L60.8716 65.2332L55.5371 56.905H60.2828Z" fill="#34343E"/>
<path d="M184.1 86.114H230.892V119.229H184.1V86.114Z" fill="#EF8171"/>
<path d="M189.048 31.4342C200.977 37.7729 204.595 37.1039 204.595 37.1039C204.595 37.1039 207.384 49.1543 222.357 60.9081C223.539 61.6066 224.55 112.426 227.171 129.412L273.172 154.147C285.627 143.976 286.988 91.3202 285.932 90.057C285.059 89.0119 268.815 87.824 264.918 78.5129C257.982 61.9402 257.845 43.0778 252.313 35.3413C249.962 32.0543 221.901 11.3636 219.511 10.9034C216.798 10.3812 212.768 10.5019 206.127 12.4016L199.365 13.2404C199.365 13.2404 182.531 12.4506 179.844 14.1967C177.158 15.9429 177.117 25.0953 189.048 31.4342Z" fill="#F1937B"/>
<path d="M276.314 82.3835L342.998 99.3269V198.285L265.517 154.146C258.658 107.042 276.314 82.3835 276.314 82.3835Z" fill="#F73859"/>
<path opacity="0.48" d="M265.518 154.148L342.998 198.285V160.32L264.2 124.599C263.606 134.467 264.047 144.37 265.518 154.148Z" fill="#B92A43"/>
<path d="M122.263 101.516C123.17 103.872 124.964 105.787 127.267 106.856C129.57 107.926 132.202 108.067 134.609 107.25L202.394 84.2238L174.105 67.7089L127.617 89.0867C125.274 90.0664 123.405 91.9101 122.407 94.229C121.408 96.5478 121.356 99.1606 122.263 101.516Z" fill="#F1937B"/>
<path d="M125.065 90.6455C124.869 92.2793 125.094 93.9358 125.719 95.46C126.344 96.9841 127.349 98.3261 128.64 99.3605C129.931 100.395 131.465 101.088 133.099 101.374C134.733 101.661 136.414 101.532 137.985 100.999L156.737 94.628C157.077 94.5122 157.37 94.2904 157.572 93.9959C157.775 93.7014 157.875 93.3498 157.859 92.9939C157.843 92.638 157.711 92.2969 157.483 92.0214C157.255 91.746 156.943 91.5511 156.595 91.4659C148.212 89.3864 139.657 88.0642 131.033 87.5155L174.105 67.7061L196.868 80.9943L202.398 84.2219L169.629 95.3523L134.611 107.246C132.451 107.98 130.1 107.943 127.964 107.142C125.828 106.342 124.041 104.828 122.91 102.861C121.779 100.894 121.376 98.5983 121.77 96.3684C122.163 94.1385 123.329 92.1146 125.066 90.6455H125.065Z" fill="#EF8171"/>
<path d="M179.846 14.198C180.403 13.9012 181.01 13.7056 181.637 13.6205C181.061 17.2337 183.286 23.5528 192.215 28.2955C199.203 32.0077 203.336 33.3157 205.564 33.7625C208.188 31.2275 210.049 24.2964 210.512 22.9283C210.512 22.9283 211.552 34.5823 209 37.2522C210.668 41.2332 214.325 48.8731 221.732 60.4101C207.305 48.8204 204.595 37.1051 204.595 37.1051C204.595 37.1051 200.977 37.7742 189.048 31.4355C177.12 25.0969 177.156 15.9424 179.846 14.198Z" fill="#EF8171"/>
<path d="M181.713 13.6066C184.539 15.1456 188.633 16.6103 192.487 17.3448C199.258 18.6375 202.67 16.5632 202.67 16.5632C203.401 13.5819 199.573 13.2586 199.374 13.2425C199.371 13.2418 199.369 13.2418 199.366 13.2425C199.366 13.2425 186.903 12.657 181.713 13.6066Z" fill="#F5B49C"/>
<path d="M273.169 154.148L242.05 131.967L263.638 111.961L283.867 144.235L273.169 154.148Z" fill="#454553"/>
<path d="M283.867 144.234L276.568 150.999C276.927 150.667 277.215 150.268 277.418 149.825C277.621 149.383 277.734 148.905 277.75 148.419C277.767 147.933 277.687 147.449 277.515 146.994C277.342 146.539 277.081 146.122 276.746 145.767C276.412 145.412 276.009 145.125 275.563 144.924C275.117 144.723 274.635 144.611 274.145 144.595C273.654 144.578 273.166 144.658 272.707 144.829C272.248 145 271.827 145.258 271.469 145.59L266.989 149.742L260.592 145.183L266.192 139.994C266.55 139.662 266.839 139.263 267.042 138.821C267.244 138.378 267.357 137.9 267.374 137.414C267.39 136.928 267.31 136.444 267.138 135.989C266.966 135.534 266.705 135.117 266.37 134.762C266.035 134.407 265.633 134.12 265.186 133.919C264.74 133.718 264.258 133.606 263.768 133.59C263.278 133.574 262.789 133.653 262.33 133.824C261.871 133.995 261.451 134.253 261.092 134.585L254.411 140.777L248.232 136.373L255.994 129.18C256.356 128.849 256.649 128.45 256.854 128.006C257.06 127.563 257.176 127.084 257.194 126.596C257.212 126.108 257.133 125.621 256.96 125.164C256.788 124.707 256.526 124.288 256.19 123.931C255.854 123.575 255.45 123.287 255.001 123.086C254.552 122.885 254.068 122.774 253.576 122.759C253.084 122.744 252.594 122.826 252.133 123C251.673 123.174 251.252 123.436 250.895 123.772L263.639 111.961L267.657 118.372L259.895 125.565C259.536 125.897 259.248 126.296 259.045 126.738C258.843 127.181 258.73 127.658 258.713 128.144C258.697 128.63 258.777 129.114 258.95 129.569C259.122 130.024 259.383 130.441 259.718 130.796C260.053 131.151 260.455 131.437 260.901 131.638C261.347 131.839 261.829 131.95 262.319 131.967C262.809 131.983 263.298 131.903 263.757 131.733C264.215 131.562 264.636 131.303 264.994 130.971L271.676 124.779L275.693 131.19L270.094 136.379C269.37 137.05 268.945 137.977 268.912 138.959C268.878 139.94 269.239 140.894 269.916 141.611C270.592 142.328 271.528 142.75 272.517 142.783C273.507 142.816 274.47 142.458 275.193 141.787L279.711 137.601L283.867 144.234Z" fill="#34343E"/>
<path d="M193.788 46.3253L173.238 37.0568C171.667 36.3484 170.973 34.512 171.688 32.9549L174.337 27.1824C175.051 25.6254 176.904 24.9374 178.474 25.6458L199.024 34.9143C200.595 35.6226 201.289 37.4591 200.574 39.0161L197.925 44.7886C197.211 46.3457 195.358 47.0336 193.788 46.3253Z" fill="#F73859"/>
<path d="M87.2502 80.258H137.345V38.1856H99.4183L87.2502 80.258Z" fill="#454553"/>
<path d="M106.18 29.6765V32.2863C106.18 32.9796 106.327 33.6651 106.612 34.2982L107.477 36.2186C107.502 36.2738 107.542 36.3207 107.593 36.3537C107.645 36.3866 107.704 36.4042 107.765 36.4042H109.466C109.507 36.4042 109.548 36.3961 109.587 36.3803C109.625 36.3646 109.66 36.3415 109.689 36.3124C109.718 36.2833 109.741 36.2488 109.757 36.2108C109.773 36.1728 109.781 36.1321 109.78 36.0911V32.787C109.78 32.6742 109.805 32.5627 109.853 32.4603C109.901 32.358 109.971 32.2671 110.057 32.1941C110.144 32.1211 110.246 32.0677 110.356 32.0376C110.465 32.0074 110.58 32.0013 110.693 32.0197L118.157 33.2832L115.486 26.7318L107.601 28.0168C107.204 28.0815 106.843 28.2839 106.583 28.5879C106.323 28.8919 106.18 29.2777 106.18 29.6765Z" fill="#34343E"/>
<path d="M261.976 99.9552L227.422 65.6981C179.347 18.0382 121.32 24.7036 118.061 24.1128C117.723 24.1125 117.388 24.1783 117.076 24.3063C116.764 24.4344 116.48 24.6222 116.241 24.8591C116.002 25.096 115.813 25.3772 115.683 25.6868C115.554 25.9963 115.488 26.3281 115.488 26.6631V30.9419C115.488 34.5588 118.915 35.5461 119.433 35.9777H126.157C124.233 35.9777 122.673 46.7799 122.673 60.105C122.673 73.43 124.233 84.2328 126.157 84.2328C164.138 84.2329 200.565 99.191 227.422 125.817L231.629 129.986C232.565 130.914 233.676 131.65 234.899 132.152C236.121 132.654 237.432 132.912 238.755 132.912C240.079 132.912 241.389 132.654 242.612 132.152C243.834 131.65 244.945 130.914 245.881 129.986L261.976 114.032C262.909 113.108 263.649 112.011 264.154 110.803C264.659 109.595 264.918 108.301 264.918 106.994C264.918 105.686 264.659 104.392 264.154 103.184C263.649 101.977 262.909 100.879 261.976 99.9552Z" fill="#4AA0D5"/>
<path d="M255.21 93.2504C252.491 95.9463 248.819 97.484 244.973 97.5365C241.128 97.589 237.414 96.1521 234.621 93.5315C226.864 86.2538 216.15 76.3045 207.439 68.6017C201.289 63.1631 204.172 47.0293 204.172 47.0293C212.556 52.4313 220.347 58.6883 227.418 65.6981L255.21 93.2504Z" fill="#454553"/>
<path d="M224.861 123.341C210.421 109.723 193.272 99.2428 174.511 92.572C174.511 92.572 188.513 82.3904 195.537 85.8089C205.541 90.6817 214.992 96.5983 223.73 103.458C225.215 104.629 226.433 106.097 227.305 107.767C228.178 109.437 228.684 111.271 228.791 113.148C228.898 115.026 228.603 116.904 227.926 118.661C227.248 120.418 226.204 122.013 224.861 123.341Z" fill="#34343E"/>
<path d="M135.468 37.5806C133.213 37.5806 131.385 35.7684 131.385 33.533C131.385 31.2975 133.213 29.4854 135.468 29.4854C137.723 29.4854 139.551 31.2975 139.551 33.533C139.551 35.7684 137.723 37.5806 135.468 37.5806Z" fill="#454553"/>
<path d="M131.385 33.5318C131.385 33.0396 132.682 32.627 134.436 32.5083C134.555 30.7696 134.971 29.4854 135.468 29.4854C135.964 29.4854 136.381 30.7707 136.501 32.5094C138.255 32.6282 139.551 33.0408 139.551 33.533C139.551 34.0252 138.255 34.4378 136.501 34.5568C136.381 36.2955 135.964 37.5806 135.468 37.5806C134.971 37.5806 134.555 36.2955 134.436 34.5568C132.682 34.4366 131.385 34.024 131.385 33.5318Z" fill="#34343E"/>
<path d="M89.9812 58.2697C86.621 69.8878 85.3962 79.7317 87.2452 80.2573C89.0943 80.783 93.3172 71.7909 96.6777 60.1731C100.038 48.5553 101.263 38.7109 99.4136 38.1855C97.5646 37.6601 93.3414 46.6517 89.9812 58.2697Z" fill="#34343E"/>
<path d="M129.64 58.7352C129.64 71.3043 128.081 81.4922 126.157 81.4922H119.433C119.034 81.4922 118.652 81.0564 118.299 80.2564H119.433V38.1846H117.934C118.388 36.7678 118.895 35.9743 119.433 35.9743H126.157C128.081 35.9743 129.64 46.1662 129.64 58.7352Z" fill="#34343E"/>
<path d="M119.431 80.2577C117.507 80.2577 115.948 70.8395 115.948 59.2217C115.948 47.6038 117.507 38.1856 119.431 38.1856C121.354 38.1856 122.914 47.6038 122.914 59.2217C122.914 70.8395 121.354 80.2577 119.431 80.2577Z" fill="#454553"/>
<path d="M0.00354004 249.269V261.001H252.45C264.598 261.001 276.172 257.556 285.927 251.041C295.091 244.853 302.377 236.303 307.001 226.312C311.625 216.321 313.411 205.269 312.166 194.346C310.787 182.767 305.869 171.821 297.947 162.691L281.866 144.163L273.477 152.48L288.978 170.342C301.411 184.67 304.195 204.243 296.244 221.421C288.293 238.599 271.515 249.27 252.45 249.27L0.00354004 249.269Z" fill="#454553"/>
<path d="M0.00167847 255.134V261H252.448C264.596 261 276.171 257.555 285.925 251.041C294.528 245.227 301.487 237.327 306.138 228.092C310.789 218.858 312.978 208.596 312.496 198.285C312.012 207.603 309.361 216.683 304.752 224.817C300.143 232.951 293.7 239.918 285.925 245.176C276.171 251.69 264.595 255.135 252.448 255.135L0.00167847 255.134Z" fill="#34343E"/>
<path d="M288.972 170.342L273.471 152.48L281.861 144.163L286.735 149.78L286.444 155.145C286.299 157.804 287.197 160.415 288.948 162.433L292.649 166.697C305.082 181.025 307.866 200.595 299.915 217.776C297.152 223.795 293.164 229.183 288.202 233.604C291.483 229.966 294.193 225.859 296.239 221.421C304.19 204.243 301.404 184.67 288.972 170.342Z" fill="#34343E"/>
<path d="M91.2375 44.2771C91.5438 43.9717 91.9081 43.7296 92.3094 43.5646C92.7107 43.3996 93.1409 43.3151 93.5753 43.3159H100.181C99.9749 45.5153 99.6512 47.7022 99.2113 49.8676H93.5753C92.9219 49.8677 92.2832 49.6758 91.7398 49.3161C91.1964 48.9563 90.7729 48.4449 90.5227 47.8466C90.2724 47.2482 90.2068 46.5897 90.334 45.9543C90.4612 45.319 90.7757 44.7353 91.2375 44.2771Z" fill="#F1C40F"/>
<path d="M90.2708 46.597C90.2707 47.0268 90.3561 47.4525 90.522 47.8496C90.6879 48.2467 90.9311 48.6076 91.2377 48.9115C91.5443 49.2154 91.9083 49.4565 92.3089 49.621C92.7095 49.7854 93.1388 49.87 93.5724 49.8698H99.2113C99.4366 48.7168 99.6269 47.6211 99.783 46.597C99.9676 45.398 100.1 44.2994 100.181 43.3181H97.9359L97.681 44.1983C97.4809 44.8894 97.0594 45.4972 96.4801 45.93C95.9008 46.3627 95.1953 46.5968 94.4699 46.597H90.2708Z" fill="#F39C11"/>
<path d="M88.6636 55.4172C88.9705 55.1128 89.3349 54.8715 89.736 54.707C90.1371 54.5426 90.5671 54.4582 91.0011 54.4589H98.2041C97.7596 56.2897 97.2517 58.2067 96.6832 60.1752C96.6023 60.4555 96.5214 60.7332 96.4379 61.0106H91.0006C90.3471 61.0103 89.7083 60.8179 89.165 60.4579C88.6217 60.0978 88.1982 59.5862 87.9481 58.9876C87.6979 58.3891 87.6323 57.7305 87.7596 57.095C87.8869 56.4595 88.2012 55.8756 88.663 55.4172H88.6636Z" fill="#F1C40F"/>
<path d="M87.6965 57.7369C87.6964 58.1667 87.7817 58.5923 87.9475 58.9895C88.1134 59.3867 88.3566 59.7475 88.6632 60.0515C88.9697 60.3554 89.3337 60.5965 89.7343 60.761C90.1349 60.9255 90.5642 61.0101 90.9978 61.01H96.4389C96.5224 60.7326 96.6033 60.4549 96.6842 60.1747C96.9208 59.3529 97.1486 58.5379 97.3653 57.7377C97.6654 56.619 97.9454 55.5261 98.2051 54.4591H94.7131L94.2737 55.976C94.1267 56.4837 93.817 56.9301 93.3915 57.248C92.9659 57.5658 92.4476 57.7377 91.9148 57.7377L87.6965 57.7369Z" fill="#F39C11"/>
<path d="M85.8278 66.5544C86.1347 66.25 86.4991 66.0086 86.9002 65.8442C87.3013 65.6797 87.7313 65.5954 88.1653 65.596H94.9907C94.1827 67.9992 93.3543 70.2109 92.552 72.148H88.1653C87.5118 72.1476 86.8731 71.9552 86.3298 71.5951C85.7865 71.235 85.3631 70.7234 85.1129 70.1248C84.8628 69.5263 84.7972 68.8677 84.9245 68.2322C85.0517 67.5967 85.3661 67.0128 85.8278 66.5544Z" fill="#F1C40F"/>
<path d="M84.8616 68.8728C84.8615 69.3027 84.9468 69.7283 85.1127 70.1255C85.2786 70.5227 85.5217 70.8835 85.8283 71.1875C86.1349 71.4914 86.4989 71.7325 86.8994 71.897C87.3 72.0615 87.7294 72.1461 88.163 72.146H92.5525C92.9741 71.1273 93.404 70.0315 93.8339 68.8728C94.2206 67.8286 94.6073 66.7326 94.9912 65.594H91.4906L91.2763 66.3339C91.0644 67.0656 90.618 67.709 90.0047 68.167C89.3914 68.6251 88.6444 68.8728 87.8766 68.8728H84.8616Z" fill="#F39C11"/>
<path d="M135.468 78.5128C133.213 78.5128 131.385 76.7007 131.385 74.4652C131.385 72.2298 133.213 70.4176 135.468 70.4176C137.723 70.4176 139.551 72.2298 139.551 74.4652C139.551 76.7007 137.723 78.5128 135.468 78.5128Z" fill="#454553"/>
<path d="M131.385 74.4652C131.385 73.973 132.682 73.5604 134.436 73.4417C134.555 71.703 134.971 70.4176 135.468 70.4176C135.964 70.4176 136.381 71.703 136.501 73.4417C138.255 73.5604 139.551 73.973 139.551 74.4652C139.551 74.9574 138.255 75.37 136.501 75.489C136.381 77.2278 135.964 78.5128 135.468 78.5128C134.971 78.5128 134.555 77.2278 134.436 75.489C132.682 75.37 131.385 74.9574 131.385 74.4652Z" fill="#34343E"/>
<path d="M236.079 127.716C233.824 127.716 231.996 125.904 231.996 123.668C231.996 121.433 233.824 119.621 236.079 119.621C238.334 119.621 240.162 121.433 240.162 123.668C240.162 125.904 238.334 127.716 236.079 127.716Z" fill="#454553"/>
<path d="M233.187 126.528C232.836 126.18 233.459 124.979 234.614 123.666C233.459 122.352 232.836 121.152 233.187 120.804C233.539 120.456 234.749 121.073 236.074 122.218C237.399 121.073 238.61 120.455 238.961 120.804C239.312 121.152 238.69 122.352 237.535 123.666C238.69 124.979 239.313 126.18 238.961 126.528C238.61 126.876 237.399 126.259 236.074 125.113C234.75 126.259 233.538 126.876 233.187 126.528Z" fill="#34343E"/>
<path d="M255.32 108.636C253.065 108.636 251.237 106.824 251.237 104.588C251.237 102.353 253.065 100.541 255.32 100.541C257.574 100.541 259.402 102.353 259.402 104.588C259.402 106.824 257.574 108.636 255.32 108.636Z" fill="#454553"/>
<path d="M252.435 107.452C252.084 107.103 252.706 105.903 253.862 104.59C252.706 103.276 252.084 102.076 252.435 101.728C252.786 101.38 253.997 101.997 255.322 103.142C256.646 101.997 257.857 101.38 258.208 101.728C258.559 102.076 257.937 103.276 256.782 104.59C257.937 105.903 258.559 107.104 258.208 107.452C257.857 107.8 256.646 107.183 255.322 106.037C253.997 107.183 252.786 107.8 252.435 107.452Z" fill="#34343E"/>
<path d="M87.5849 80.2567H126.242V70.4176H93.2501C91.0338 76.111 88.8866 79.9362 87.5849 80.2567Z" fill="#34343E"/>
<path d="M87.2487 80.2565C87.3578 80.285 87.4725 80.285 87.5815 80.2565H87.2487Z" fill="#34343E"/>
<path d="M202.944 100.9C202.944 100.9 212.956 95.845 216.642 104.832C218.687 109.817 216.138 113.163 216.021 113.304C215.008 114.905 211.546 116.996 208.796 118.479C206.777 119.568 194.115 124.961 194.115 124.961C189.752 126.793 184.565 124.415 182.528 119.65C180.492 114.885 182.378 109.536 186.741 107.704L202.944 100.9Z" fill="#F1937B"/>
<path d="M181.709 115.696C181.712 117.056 181.991 118.401 182.529 119.652C184.564 124.417 189.753 126.797 194.115 124.962C194.115 124.962 206.777 119.57 208.796 118.48C211.545 116.998 215.009 114.91 216.019 113.307C216.43 112.746 216.749 112.124 216.964 111.465C215.884 112.147 214.729 112.803 213.677 113.368C211.659 114.458 198.996 119.85 198.996 119.85C194.634 121.681 189.445 119.305 187.411 114.54C186.873 113.289 186.594 111.943 186.591 110.583C186.588 109.556 186.755 108.535 187.085 107.561L186.739 107.705C183.57 109.037 181.709 112.226 181.709 115.696Z" fill="#EF8171"/>
<path d="M214.762 112.364C217.776 108.328 214.566 101.422 209.617 101.027C205.969 102.778 203.806 104.795 203.185 107.024C203.016 107.614 202.968 108.231 203.044 108.84C203.121 109.448 203.32 110.035 203.63 110.566C204.123 112.298 205.911 113.812 208.808 113.812C209.069 113.777 211.028 113.948 214.762 112.364Z" fill="#F5B49C"/>
<path d="M220.409 113.208C220.409 113.208 229.801 108.093 233.586 116.55C235.686 121.242 233.357 124.506 233.249 124.646C231.659 127.345 223.091 131.665 223.091 131.665L212.719 136.407C208.615 138.283 203.598 136.17 201.514 131.688C199.43 127.206 201.066 122.051 205.17 120.175L220.409 113.208Z" fill="#F1937B"/>
<path d="M200.606 127.65C200.609 129.045 200.918 130.423 201.512 131.688C203.596 136.169 208.613 138.285 212.717 136.408L223.09 131.665C223.09 131.665 231.657 127.344 233.247 124.647C233.625 124.091 233.914 123.48 234.103 122.836C231.761 124.241 229.334 125.502 226.837 126.613L216.222 130.789C212.021 132.444 207.125 130.065 205.288 125.479C204.829 124.341 204.592 123.127 204.59 121.902C204.59 121.4 204.632 120.899 204.715 120.404C202.101 121.814 200.606 124.621 200.606 127.65Z" fill="#EF8171"/>
<path d="M232.328 123.766C232.636 123.323 234.286 120.68 232.511 117.078C230.752 113.509 227.619 113.17 227.093 113.139C223.667 114.918 221.669 116.906 221.153 119.049C221.01 119.612 220.984 120.198 221.076 120.772C221.167 121.346 221.375 121.895 221.687 122.387C222.19 123.966 223.853 125.323 226.452 125.323C226.793 125.273 228.634 125.47 232.328 123.766Z" fill="#F5B49C"/>
<path d="M180.928 91.2044C180.928 91.2044 191.211 86.7159 194.381 95.8939C196.14 100.986 193.405 104.183 193.28 104.319C191.369 106.993 182.021 110.727 182.021 110.727L170.748 114.736C166.289 116.322 161.244 113.659 159.481 108.787C157.718 103.916 159.905 98.6814 164.365 97.0951L180.928 91.2044Z" fill="#F1937B"/>
<path d="M158.873 105.348C158.873 111.817 165.015 116.775 170.752 114.736L182.02 110.728C182.02 110.728 191.371 106.994 193.28 104.321C193.805 103.672 194.209 102.936 194.472 102.147C187.746 105.313 176.749 109.266 176.749 109.266C169.715 111.657 162.996 103.82 165.549 96.6731L164.366 97.0939C160.954 98.3076 158.873 101.657 158.873 105.348Z" fill="#EF8171"/>
<path d="M191.893 103.143C195.084 99.3382 192.418 92.2747 187.397 91.5371C183.657 93.0823 181.383 94.9758 180.639 97.1657C180.436 97.745 180.353 98.359 180.394 98.9708C180.436 99.5827 180.602 100.18 180.881 100.727C181.3 102.592 183.155 104.269 186.387 104.269C186.692 104.238 188.476 104.373 191.893 103.143Z" fill="#F5B49C"/>
</svg>
